# MagicaVoxel @ Ephtracy

# material
mtllib ×óÊÖ.mtl
usemtl palette

# normals
vn -1 0 0
vn 1 0 0
vn 0 0 1
vn 0 0 -1
vn 0 -1 0
vn 0 1 0

# texcoords
vt 0.970703 0.5
vt 0.978516 0.5

# verts
v -4 0 6
v -4 0 4
v -4 1 6
v -4 1 5
v -4 2 6
v -4 2 5
v -4 3 6
v -4 3 5
v -4 3 4
v -4 4 5
v -4 4 4
v -4 5 6
v -4 5 4
v -3 0 6
v -3 0 4
v -3 1 6
v -3 1 5
v -3 2 6
v -3 2 5
v -3 3 6
v -3 3 5
v -3 3 4
v -3 4 5
v -3 4 4
v -3 5 6
v -3 5 4
v -4 0 6
v -4 1 6
v -4 2 6
v -4 3 6
v -4 5 6
v -3 0 6
v -3 1 6
v -3 2 6
v -3 3 6
v -3 5 6
v -4 1 5
v -4 2 5
v -3 1 5
v -3 2 5
v -4 0 4
v -4 3 4
v -4 4 4
v -4 5 4
v -3 0 4
v -3 3 4
v -3 4 4
v -3 5 4
v -4 0 6
v -3 0 6
v -4 0 4
v -3 0 4
v -4 2 6
v -3 2 6
v -4 2 5
v -3 2 5
v -4 1 6
v -3 1 6
v -4 1 5
v -3 1 5
v -4 5 6
v -3 5 6
v -4 5 4
v -3 5 4

# faces
f 3/1/1 2/1/1 1/1/1
f 4/1/1 2/1/1 3/1/1
f 6/1/1 2/1/1 4/1/1
f 7/2/1 6/2/1 5/2/1
f 8/1/1 2/1/1 6/1/1
f 8/2/1 6/2/1 7/2/1
f 9/1/1 2/1/1 8/1/1
f 10/1/1 8/1/1 7/1/1
f 10/2/1 9/2/1 8/2/1
f 11/2/1 9/2/1 10/2/1
f 12/1/1 10/1/1 7/1/1
f 12/1/1 11/1/1 10/1/1
f 13/1/1 11/1/1 12/1/1
f 14/1/2 15/1/2 16/1/2
f 16/1/2 15/1/2 17/1/2
f 17/1/2 15/1/2 19/1/2
f 18/2/2 19/2/2 20/2/2
f 19/1/2 15/1/2 21/1/2
f 20/2/2 19/2/2 21/2/2
f 21/1/2 15/1/2 22/1/2
f 20/1/2 21/1/2 23/1/2
f 21/2/2 22/2/2 23/2/2
f 23/2/2 22/2/2 24/2/2
f 20/1/2 23/1/2 25/1/2
f 23/1/2 24/1/2 25/1/2
f 25/1/2 24/1/2 26/1/2
f 32/1/3 28/1/3 27/1/3
f 33/1/3 28/1/3 32/1/3
f 34/2/3 30/2/3 29/2/3
f 35/1/3 31/1/3 30/1/3
f 35/2/3 30/2/3 34/2/3
f 36/1/3 31/1/3 35/1/3
f 39/1/3 38/1/3 37/1/3
f 40/1/3 38/1/3 39/1/3
f 41/1/4 42/1/4 45/1/4
f 42/2/4 43/2/4 46/2/4
f 45/1/4 42/1/4 46/1/4
f 43/1/4 44/1/4 47/1/4
f 46/2/4 43/2/4 47/2/4
f 47/1/4 44/1/4 48/1/4
f 51/1/5 50/1/5 49/1/5
f 52/1/5 50/1/5 51/1/5
f 55/2/5 54/2/5 53/2/5
f 56/2/5 54/2/5 55/2/5
f 57/1/6 58/1/6 59/1/6
f 59/1/6 58/1/6 60/1/6
f 61/1/6 62/1/6 63/1/6
f 63/1/6 62/1/6 64/1/6
