# MagicaVoxel @ Ephtracy

# material
mtllib ×ó½Å.mtl
usemtl palette

# normals
vn -1 0 0
vn 1 0 0
vn 0 0 1
vn 0 0 -1
vn 0 -1 0
vn 0 1 0

# texcoords
vt 0.970703 0.5
vt 0.978516 0.5
vt 0.982422 0.5

# verts
v -4 0 1
v -4 0 -1
v -4 1 1
v -4 1 -0
v -4 2 1
v -4 2 -0
v -4 2 -1
v -4 3 1
v -4 3 -0
v -4 3 -1
v -4 4 1
v -4 4 -0
v -4 4 -1
v -4 5 1
v -4 5 -0
v -4 5 -1
v -3 0 1
v -3 0 -1
v -3 1 1
v -3 1 -0
v -3 2 1
v -3 2 -0
v -3 2 -1
v -3 3 1
v -3 3 -0
v -3 3 -1
v -3 4 1
v -3 4 -0
v -3 4 -1
v -3 5 1
v -3 5 -0
v -3 5 -1
v -4 0 1
v -4 1 1
v -4 2 1
v -4 3 1
v -4 4 1
v -4 5 1
v -3 0 1
v -3 1 1
v -3 2 1
v -3 3 1
v -3 4 1
v -3 5 1
v -4 1 -0
v -4 2 -0
v -3 1 -0
v -3 2 -0
v -4 0 -1
v -4 2 -1
v -4 3 -1
v -4 4 -1
v -4 5 -1
v -3 0 -1
v -3 2 -1
v -3 3 -1
v -3 4 -1
v -3 5 -1
v -4 0 1
v -3 0 1
v -4 0 -1
v -3 0 -1
v -4 2 1
v -3 2 1
v -4 2 -0
v -3 2 -0
v -4 1 1
v -3 1 1
v -4 1 -0
v -3 1 -0
v -4 5 1
v -3 5 1
v -4 5 -0
v -3 5 -0
v -4 5 -1
v -3 5 -1

# faces
f 3/1/1 2/1/1 1/1/1
f 4/1/1 2/1/1 3/1/1
f 6/1/1 2/1/1 4/1/1
f 7/1/1 2/1/1 6/1/1
f 8/1/1 6/1/1 5/1/1
f 9/2/1 7/2/1 6/2/1
f 9/1/1 6/1/1 8/1/1
f 10/2/1 7/2/1 9/2/1
f 11/3/1 9/3/1 8/3/1
f 12/1/1 10/1/1 9/1/1
f 12/3/1 9/3/1 11/3/1
f 13/1/1 10/1/1 12/1/1
f 14/1/1 12/1/1 11/1/1
f 15/2/1 13/2/1 12/2/1
f 15/1/1 12/1/1 14/1/1
f 16/2/1 13/2/1 15/2/1
f 17/1/2 18/1/2 19/1/2
f 19/1/2 18/1/2 20/1/2
f 20/1/2 18/1/2 22/1/2
f 22/1/2 18/1/2 23/1/2
f 21/1/2 22/1/2 24/1/2
f 22/2/2 23/2/2 25/2/2
f 24/1/2 22/1/2 25/1/2
f 25/2/2 23/2/2 26/2/2
f 24/3/2 25/3/2 27/3/2
f 25/1/2 26/1/2 28/1/2
f 27/3/2 25/3/2 28/3/2
f 28/1/2 26/1/2 29/1/2
f 27/1/2 28/1/2 30/1/2
f 28/2/2 29/2/2 31/2/2
f 30/1/2 28/1/2 31/1/2
f 31/2/2 29/2/2 32/2/2
f 39/1/3 34/1/3 33/1/3
f 40/1/3 34/1/3 39/1/3
f 41/1/3 36/1/3 35/1/3
f 42/3/3 37/3/3 36/3/3
f 42/1/3 36/1/3 41/1/3
f 43/1/3 38/1/3 37/1/3
f 43/3/3 37/3/3 42/3/3
f 44/1/3 38/1/3 43/1/3
f 47/1/3 46/1/3 45/1/3
f 48/1/3 46/1/3 47/1/3
f 49/1/4 50/1/4 54/1/4
f 50/2/4 51/2/4 55/2/4
f 54/1/4 50/1/4 55/1/4
f 51/1/4 52/1/4 56/1/4
f 55/2/4 51/2/4 56/2/4
f 52/2/4 53/2/4 57/2/4
f 56/1/4 52/1/4 57/1/4
f 57/2/4 53/2/4 58/2/4
f 61/1/5 60/1/5 59/1/5
f 62/1/5 60/1/5 61/1/5
f 65/1/5 64/1/5 63/1/5
f 66/1/5 64/1/5 65/1/5
f 67/1/6 68/1/6 69/1/6
f 69/1/6 68/1/6 70/1/6
f 71/1/6 72/1/6 73/1/6
f 73/1/6 72/1/6 74/1/6
f 73/2/6 74/2/6 75/2/6
f 75/2/6 74/2/6 76/2/6
