# MagicaVoxel @ Ephtracy

# material
mtllib Î²°Í.mtl
usemtl palette

# normals
vn -1 0 0
vn 1 0 0
vn 0 0 1
vn 0 0 -1
vn 0 -1 0
vn 0 1 0

# texcoords
vt 0.970703 0.5
vt 0.982422 0.5

# verts
v 0 1 -6
v 0 1 -7
v 0 2 -5
v 0 2 -6
v 0 2 -7
v 0 3 -4
v 0 3 -5
v 0 3 -6
v 0 4 -4
v 0 4 -5
v 2 1 -6
v 2 1 -7
v 2 2 -5
v 2 2 -6
v 2 2 -7
v 2 3 -4
v 2 3 -5
v 2 3 -6
v 2 4 -4
v 2 4 -5
v 0 3 -4
v 0 4 -4
v 2 3 -4
v 2 4 -4
v 0 2 -5
v 0 3 -5
v 2 2 -5
v 2 3 -5
v 0 1 -6
v 0 2 -6
v 2 1 -6
v 2 2 -6
v 0 3 -5
v 0 4 -5
v 2 3 -5
v 2 4 -5
v 0 2 -6
v 0 3 -6
v 2 2 -6
v 2 3 -6
v 0 1 -7
v 0 2 -7
v 2 1 -7
v 2 2 -7
v 0 1 -6
v 2 1 -6
v 0 1 -7
v 2 1 -7
v 0 2 -5
v 2 2 -5
v 0 2 -6
v 2 2 -6
v 0 3 -4
v 2 3 -4
v 0 3 -5
v 2 3 -5
v 0 2 -6
v 2 2 -6
v 0 2 -7
v 2 2 -7
v 0 3 -5
v 2 3 -5
v 0 3 -6
v 2 3 -6
v 0 4 -4
v 2 4 -4
v 0 4 -5
v 2 4 -5

# faces
f 4/2/1 2/2/1 1/2/1
f 5/2/1 2/2/1 4/2/1
f 7/1/1 4/1/1 3/1/1
f 8/1/1 4/1/1 7/1/1
f 9/2/1 7/2/1 6/2/1
f 10/2/1 7/2/1 9/2/1
f 11/2/2 12/2/2 14/2/2
f 14/2/2 12/2/2 15/2/2
f 13/1/2 14/1/2 17/1/2
f 17/1/2 14/1/2 18/1/2
f 16/2/2 17/2/2 19/2/2
f 19/2/2 17/2/2 20/2/2
f 23/2/3 22/2/3 21/2/3
f 24/2/3 22/2/3 23/2/3
f 27/1/3 26/1/3 25/1/3
f 28/1/3 26/1/3 27/1/3
f 31/2/3 30/2/3 29/2/3
f 32/2/3 30/2/3 31/2/3
f 33/2/4 34/2/4 35/2/4
f 35/2/4 34/2/4 36/2/4
f 37/1/4 38/1/4 39/1/4
f 39/1/4 38/1/4 40/1/4
f 41/2/4 42/2/4 43/2/4
f 43/2/4 42/2/4 44/2/4
f 47/2/5 46/2/5 45/2/5
f 48/2/5 46/2/5 47/2/5
f 51/1/5 50/1/5 49/1/5
f 52/1/5 50/1/5 51/1/5
f 55/2/5 54/2/5 53/2/5
f 56/2/5 54/2/5 55/2/5
f 57/2/6 58/2/6 59/2/6
f 59/2/6 58/2/6 60/2/6
f 61/1/6 62/1/6 63/1/6
f 63/1/6 62/1/6 64/1/6
f 65/2/6 66/2/6 67/2/6
f 67/2/6 66/2/6 68/2/6
