# MagicaVoxel @ Ephtracy

# material
mtllib ”“ ÷.mtl
usemtl palette

# normals
vn -1 0 0
vn 1 0 0
vn 0 0 1
vn 0 0 -1
vn 0 -1 0
vn 0 1 0

# texcoords
vt 0.970703 0.5
vt 0.978516 0.5
vt 0.982422 0.5

# verts
v 5 0 6
v 5 0 4
v 5 1 6
v 5 1 5
v 5 2 6
v 5 2 5
v 5 2 4
v 5 4 6
v 5 4 5
v 5 4 4
v 5 5 6
v 5 5 5
v 5 5 4
v 6 0 6
v 6 0 4
v 6 1 6
v 6 1 5
v 6 2 6
v 6 2 5
v 6 2 4
v 6 4 6
v 6 4 5
v 6 4 4
v 6 5 6
v 6 5 5
v 6 5 4
v 5 0 6
v 5 1 6
v 5 2 6
v 5 4 6
v 5 5 6
v 6 0 6
v 6 1 6
v 6 2 6
v 6 4 6
v 6 5 6
v 5 1 5
v 5 2 5
v 6 1 5
v 6 2 5
v 5 0 4
v 5 2 4
v 5 4 4
v 5 5 4
v 6 0 4
v 6 2 4
v 6 4 4
v 6 5 4
v 5 0 6
v 6 0 6
v 5 0 4
v 6 0 4
v 5 2 6
v 6 2 6
v 5 2 5
v 6 2 5
v 5 1 6
v 6 1 6
v 5 1 5
v 6 1 5
v 5 5 6
v 6 5 6
v 5 5 5
v 6 5 5
v 5 5 4
v 6 5 4

# faces
f 3/1/1 2/1/1 1/1/1
f 4/1/1 2/1/1 3/1/1
f 6/1/1 2/1/1 4/1/1
f 7/1/1 2/1/1 6/1/1
f 8/1/1 6/1/1 5/1/1
f 9/3/1 7/3/1 6/3/1
f 9/1/1 6/1/1 8/1/1
f 10/3/1 7/3/1 9/3/1
f 11/2/1 9/2/1 8/2/1
f 12/1/1 10/1/1 9/1/1
f 12/2/1 9/2/1 11/2/1
f 13/1/1 10/1/1 12/1/1
f 14/1/2 15/1/2 16/1/2
f 16/1/2 15/1/2 17/1/2
f 17/1/2 15/1/2 19/1/2
f 19/1/2 15/1/2 20/1/2
f 18/1/2 19/1/2 21/1/2
f 19/3/2 20/3/2 22/3/2
f 21/1/2 19/1/2 22/1/2
f 22/3/2 20/3/2 23/3/2
f 21/2/2 22/2/2 24/2/2
f 22/1/2 23/1/2 25/1/2
f 24/2/2 22/2/2 25/2/2
f 25/1/2 23/1/2 26/1/2
f 32/1/3 28/1/3 27/1/3
f 33/1/3 28/1/3 32/1/3
f 34/1/3 30/1/3 29/1/3
f 35/2/3 31/2/3 30/2/3
f 35/1/3 30/1/3 34/1/3
f 36/2/3 31/2/3 35/2/3
f 39/1/3 38/1/3 37/1/3
f 40/1/3 38/1/3 39/1/3
f 41/1/4 42/1/4 45/1/4
f 42/3/4 43/3/4 46/3/4
f 45/1/4 42/1/4 46/1/4
f 43/1/4 44/1/4 47/1/4
f 46/3/4 43/3/4 47/3/4
f 47/1/4 44/1/4 48/1/4
f 51/1/5 50/1/5 49/1/5
f 52/1/5 50/1/5 51/1/5
f 55/1/5 54/1/5 53/1/5
f 56/1/5 54/1/5 55/1/5
f 57/1/6 58/1/6 59/1/6
f 59/1/6 58/1/6 60/1/6
f 61/2/6 62/2/6 63/2/6
f 63/2/6 62/2/6 64/2/6
f 63/1/6 64/1/6 65/1/6
f 65/1/6 64/1/6 66/1/6
