# MagicaVoxel @ Ephtracy

# material
mtllib ”“≥·∞Ú.mtl
usemtl palette

# normals
vn -1 0 0
vn 1 0 0
vn 0 0 1
vn 0 0 -1
vn 0 -1 0
vn 0 1 0

# texcoords
vt 0.990234 0.5
vt 0.994141 0.5

# verts
v 4 8 4
v 4 8 1
v 4 9 4
v 4 9 3
v 4 9 2
v 4 9 1
v 4 10 3
v 4 10 2
v 5 6 3
v 5 6 2
v 5 7 4
v 5 7 3
v 5 7 2
v 5 7 1
v 5 8 4
v 5 8 1
v 5 9 4
v 5 9 3
v 5 9 2
v 5 9 1
v 5 10 4
v 5 10 3
v 5 10 2
v 5 10 1
v 5 11 3
v 5 11 2
v 6 10 4
v 6 10 3
v 6 10 2
v 6 10 1
v 6 11 4
v 6 11 3
v 6 11 2
v 6 11 1
v 6 6 3
v 6 6 2
v 6 7 4
v 6 7 3
v 6 7 2
v 6 7 1
v 6 8 4
v 6 8 3
v 6 8 2
v 6 8 1
v 7 7 3
v 7 7 2
v 7 8 4
v 7 8 3
v 7 8 2
v 7 8 1
v 7 9 4
v 7 9 3
v 7 9 2
v 7 9 1
v 8 8 3
v 8 8 2
v 8 9 4
v 8 9 3
v 8 9 2
v 8 9 1
v 8 10 4
v 8 10 3
v 8 10 2
v 8 10 1
v 9 9 3
v 9 9 2
v 9 10 4
v 9 10 3
v 9 10 2
v 9 10 1
v 9 11 4
v 9 11 3
v 9 11 2
v 9 11 1
v 10 10 3
v 10 10 2
v 10 11 3
v 10 11 2
v 4 8 4
v 4 9 4
v 5 7 4
v 5 8 4
v 5 9 4
v 5 10 4
v 6 7 4
v 6 8 4
v 6 9 4
v 6 10 4
v 6 11 4
v 7 8 4
v 7 9 4
v 7 10 4
v 7 11 4
v 8 9 4
v 8 10 4
v 8 11 4
v 9 10 4
v 9 11 4
v 4 9 3
v 4 10 3
v 5 6 3
v 5 7 3
v 5 9 3
v 5 10 3
v 5 11 3
v 6 6 3
v 6 7 3
v 6 8 3
v 6 10 3
v 6 11 3
v 7 7 3
v 7 8 3
v 7 9 3
v 8 8 3
v 8 9 3
v 8 10 3
v 9 9 3
v 9 10 3
v 9 11 3
v 10 10 3
v 10 11 3
v 4 9 2
v 4 10 2
v 5 6 2
v 5 7 2
v 5 9 2
v 5 10 2
v 5 11 2
v 6 6 2
v 6 7 2
v 6 8 2
v 6 10 2
v 6 11 2
v 7 7 2
v 7 8 2
v 7 9 2
v 8 8 2
v 8 9 2
v 8 10 2
v 9 9 2
v 9 10 2
v 9 11 2
v 10 10 2
v 10 11 2
v 4 8 1
v 4 9 1
v 5 7 1
v 5 8 1
v 5 9 1
v 5 10 1
v 6 7 1
v 6 8 1
v 6 10 1
v 6 11 1
v 7 8 1
v 7 9 1
v 7 10 1
v 8 9 1
v 8 10 1
v 8 11 1
v 9 10 1
v 9 11 1
v 5 6 3
v 6 6 3
v 5 6 2
v 6 6 2
v 5 7 4
v 6 7 4
v 5 7 3
v 6 7 3
v 7 7 3
v 5 7 2
v 6 7 2
v 7 7 2
v 5 7 1
v 6 7 1
v 4 8 4
v 5 8 4
v 6 8 4
v 7 8 4
v 6 8 3
v 7 8 3
v 8 8 3
v 6 8 2
v 7 8 2
v 8 8 2
v 4 8 1
v 5 8 1
v 6 8 1
v 7 8 1
v 7 9 4
v 8 9 4
v 7 9 3
v 8 9 3
v 9 9 3
v 7 9 2
v 8 9 2
v 9 9 2
v 7 9 1
v 8 9 1
v 8 10 4
v 9 10 4
v 8 10 3
v 9 10 3
v 10 10 3
v 8 10 2
v 9 10 2
v 10 10 2
v 8 10 1
v 9 10 1
v 4 9 4
v 5 9 4
v 4 9 3
v 5 9 3
v 4 9 2
v 5 9 2
v 4 9 1
v 5 9 1
v 5 10 4
v 6 10 4
v 4 10 3
v 5 10 3
v 6 10 3
v 4 10 2
v 5 10 2
v 6 10 2
v 5 10 1
v 6 10 1
v 6 11 4
v 7 11 4
v 8 11 4
v 9 11 4
v 5 11 3
v 6 11 3
v 7 11 3
v 9 11 3
v 10 11 3
v 5 11 2
v 6 11 2
v 8 11 2
v 9 11 2
v 10 11 2
v 6 11 1
v 8 11 1
v 9 11 1

# faces
f 3/1/1 2/1/1 1/1/1
f 4/1/1 2/1/1 3/1/1
f 5/1/1 2/1/1 4/1/1
f 6/1/1 2/1/1 5/1/1
f 7/1/1 5/1/1 4/1/1
f 8/1/1 5/1/1 7/1/1
f 12/1/1 10/1/1 9/1/1
f 13/1/1 10/1/1 12/1/1
f 15/1/1 12/1/1 11/1/1
f 15/1/1 14/1/1 13/1/1
f 15/1/1 13/1/1 12/1/1
f 16/1/1 14/1/1 15/1/1
f 21/1/1 18/1/1 17/1/1
f 22/1/1 18/1/1 21/1/1
f 23/1/1 20/1/1 19/1/1
f 24/1/1 20/1/1 23/1/1
f 25/1/1 23/1/1 22/1/1
f 26/1/1 23/1/1 25/1/1
f 31/1/1 28/1/1 27/1/1
f 32/1/1 28/1/1 31/1/1
f 33/1/1 30/1/1 29/1/1
f 34/1/1 30/1/1 33/1/1
f 35/1/2 36/1/2 38/1/2
f 38/1/2 36/1/2 39/1/2
f 37/1/2 38/1/2 41/1/2
f 41/1/2 38/1/2 42/1/2
f 39/1/2 40/1/2 43/1/2
f 43/1/2 40/1/2 44/1/2
f 45/1/2 46/1/2 48/1/2
f 48/1/2 46/1/2 49/1/2
f 47/1/2 48/1/2 51/1/2
f 51/1/2 48/1/2 52/1/2
f 49/2/2 50/2/2 53/2/2
f 53/2/2 50/2/2 54/2/2
f 55/1/2 56/1/2 58/1/2
f 58/1/2 56/1/2 59/1/2
f 57/2/2 58/2/2 61/2/2
f 61/2/2 58/2/2 62/2/2
f 59/1/2 60/1/2 63/1/2
f 63/1/2 60/1/2 64/1/2
f 65/1/2 66/1/2 68/1/2
f 68/1/2 66/1/2 69/1/2
f 67/1/2 68/1/2 71/1/2
f 71/1/2 68/1/2 72/1/2
f 69/2/2 70/2/2 73/2/2
f 73/2/2 70/2/2 74/2/2
f 75/1/2 76/1/2 77/1/2
f 77/1/2 76/1/2 78/1/2
f 82/1/3 80/1/3 79/1/3
f 83/1/3 80/1/3 82/1/3
f 85/1/3 82/1/3 81/1/3
f 86/2/3 83/2/3 82/2/3
f 86/1/3 82/1/3 85/1/3
f 87/1/3 84/1/3 83/1/3
f 87/2/3 83/2/3 86/2/3
f 88/1/3 84/1/3 87/1/3
f 90/1/3 87/1/3 86/1/3
f 91/2/3 88/2/3 87/2/3
f 91/1/3 87/1/3 90/1/3
f 92/1/3 89/1/3 88/1/3
f 92/2/3 88/2/3 91/2/3
f 93/1/3 89/1/3 92/1/3
f 94/2/3 92/2/3 91/2/3
f 94/2/3 93/2/3 92/2/3
f 95/2/3 93/2/3 94/2/3
f 96/2/3 93/2/3 95/2/3
f 97/1/3 96/1/3 95/1/3
f 98/1/3 96/1/3 97/1/3
f 103/1/3 100/1/3 99/1/3
f 104/1/3 100/1/3 103/1/3
f 106/1/3 102/1/3 101/1/3
f 107/1/3 102/1/3 106/1/3
f 109/1/3 105/1/3 104/1/3
f 110/1/3 105/1/3 109/1/3
f 111/1/3 108/1/3 107/1/3
f 112/1/3 108/1/3 111/1/3
f 114/1/3 113/1/3 112/1/3
f 115/1/3 113/1/3 114/1/3
f 117/1/3 116/1/3 115/1/3
f 118/1/3 116/1/3 117/1/3
f 120/1/3 119/1/3 118/1/3
f 121/1/3 119/1/3 120/1/3
f 122/1/4 123/1/4 126/1/4
f 126/1/4 123/1/4 127/1/4
f 124/1/4 125/1/4 129/1/4
f 129/1/4 125/1/4 130/1/4
f 127/1/4 128/1/4 132/1/4
f 132/1/4 128/1/4 133/1/4
f 130/1/4 131/1/4 134/1/4
f 134/1/4 131/1/4 135/1/4
f 135/1/4 136/1/4 137/1/4
f 137/1/4 136/1/4 138/1/4
f 138/1/4 139/1/4 140/1/4
f 140/1/4 139/1/4 141/1/4
f 141/1/4 142/1/4 143/1/4
f 143/1/4 142/1/4 144/1/4
f 145/1/4 146/1/4 148/1/4
f 148/1/4 146/1/4 149/1/4
f 147/1/4 148/1/4 151/1/4
f 149/1/4 150/1/4 151/1/4
f 148/1/4 149/1/4 151/1/4
f 151/1/4 150/1/4 152/1/4
f 152/1/4 150/1/4 153/1/4
f 152/2/4 153/2/4 155/2/4
f 155/2/4 153/2/4 156/2/4
f 153/1/4 154/1/4 157/1/4
f 156/2/4 153/2/4 157/2/4
f 156/1/4 157/1/4 158/1/4
f 157/1/4 154/1/4 159/1/4
f 158/1/4 157/1/4 159/1/4
f 159/1/4 154/1/4 160/1/4
f 159/2/4 160/2/4 161/2/4
f 161/2/4 160/2/4 162/2/4
f 165/1/5 164/1/5 163/1/5
f 166/1/5 164/1/5 165/1/5
f 169/1/5 168/1/5 167/1/5
f 170/1/5 168/1/5 169/1/5
f 173/1/5 171/1/5 170/1/5
f 174/1/5 171/1/5 173/1/5
f 175/1/5 173/1/5 172/1/5
f 176/1/5 173/1/5 175/1/5
f 181/1/5 180/1/5 179/1/5
f 182/1/5 180/1/5 181/1/5
f 185/1/5 183/1/5 182/1/5
f 186/1/5 183/1/5 185/1/5
f 187/1/5 178/1/5 177/1/5
f 188/1/5 178/1/5 187/1/5
f 189/2/5 185/2/5 184/2/5
f 190/2/5 185/2/5 189/2/5
f 193/2/5 192/2/5 191/2/5
f 194/2/5 192/2/5 193/2/5
f 197/1/5 195/1/5 194/1/5
f 198/1/5 195/1/5 197/1/5
f 199/1/5 197/1/5 196/1/5
f 200/1/5 197/1/5 199/1/5
f 203/1/5 202/1/5 201/1/5
f 204/1/5 202/1/5 203/1/5
f 207/1/5 205/1/5 204/1/5
f 208/1/5 205/1/5 207/1/5
f 209/2/5 207/2/5 206/2/5
f 210/2/5 207/2/5 209/2/5
f 211/1/6 212/1/6 213/1/6
f 213/1/6 212/1/6 214/1/6
f 215/1/6 216/1/6 217/1/6
f 217/1/6 216/1/6 218/1/6
f 219/1/6 220/1/6 222/1/6
f 222/1/6 220/1/6 223/1/6
f 221/1/6 222/1/6 224/1/6
f 224/1/6 222/1/6 225/1/6
f 225/1/6 226/1/6 227/1/6
f 227/1/6 226/1/6 228/1/6
f 229/1/6 230/1/6 234/1/6
f 230/2/6 231/2/6 235/2/6
f 234/1/6 230/1/6 235/1/6
f 231/1/6 232/1/6 236/1/6
f 233/1/6 234/1/6 238/1/6
f 234/2/6 235/2/6 239/2/6
f 238/1/6 234/1/6 239/1/6
f 235/2/6 231/2/6 240/2/6
f 239/2/6 235/2/6 240/2/6
f 236/1/6 237/1/6 240/1/6
f 231/1/6 236/1/6 240/1/6
f 240/1/6 237/1/6 241/1/6
f 241/1/6 237/1/6 242/1/6
f 239/1/6 240/1/6 243/1/6
f 240/2/6 241/2/6 244/2/6
f 243/1/6 240/1/6 244/1/6
f 244/2/6 241/2/6 245/2/6
