# MagicaVoxel @ ephtracy

# material
mtllib _box_bottom.mtl
usemtl palette

# normals
vn -1 0 0
vn 1 0 0
vn 0 0 1
vn 0 0 -1
vn 0 -1 0
vn 0 1 0

# texcoords
vt 0.595703 0.5
vt 0.658203 0.5
vt 0.720703 0.5
vt 0.876953 0.5

# verts
v -18 9 2
v -18 9 -2
v -18 11 2
v -18 11 -2
v -17 9 4
v -17 9 2
v -17 9 -2
v -17 9 -4
v -17 11 4
v -17 11 2
v -17 11 -2
v -17 11 -4
v -15 9 5
v -15 9 4
v -15 9 -4
v -15 9 -5
v -15 10 4
v -15 10 -4
v -15 11 5
v -15 11 4
v -15 11 -4
v -15 11 -5
v -14 0 11
v -14 0 -11
v -14 3 8
v -14 3 5
v -14 3 4
v -14 3 1
v -14 3 -1
v -14 3 -4
v -14 3 -5
v -14 3 -8
v -14 9 5
v -14 9 4
v -14 9 -4
v -14 9 -5
v -14 11 8
v -14 11 5
v -14 11 3
v -14 11 1
v -14 11 -1
v -14 11 -3
v -14 11 -5
v -14 11 -8
v -14 14 11
v -14 14 -11
v -13 3 8
v -13 3 5
v -13 3 4
v -13 3 1
v -13 3 -1
v -13 3 -4
v -13 3 -5
v -13 3 -8
v -13 11 8
v -13 11 5
v -13 11 4
v -13 11 1
v -13 11 -1
v -13 11 -4
v -13 11 -5
v -13 11 -8
v -8 3 11
v -8 3 10
v -8 3 -10
v -8 3 -11
v -8 11 11
v -8 11 10
v -8 11 -10
v -8 11 -11
v -3 3 11
v -3 3 10
v -3 3 -10
v -3 3 -11
v -3 11 11
v -3 11 10
v -3 11 -10
v -3 11 -11
v 2 3 11
v 2 3 10
v 2 3 -10
v 2 3 -11
v 2 11 11
v 2 11 10
v 2 11 -10
v 2 11 -11
v 7 3 11
v 7 3 10
v 7 3 -10
v 7 3 -11
v 7 11 11
v 7 11 10
v 7 11 -10
v 7 11 -11
v 11 3 11
v 11 3 10
v 11 3 8
v 11 3 -8
v 11 3 -10
v 11 3 -11
v 11 11 11
v 11 11 10
v 11 11 9
v 11 11 8
v 11 11 -8
v 11 11 -9
v 11 11 -10
v 11 11 -11
v 11 13 9
v 11 13 8
v 11 13 -8
v 11 13 -9
v 11 14 8
v 11 14 -8
v 14 10 4
v 14 10 3
v 14 10 -3
v 14 10 -4
v 14 11 4
v 14 11 3
v 14 11 -3
v 14 11 -4
v 16 9 4
v 16 9 1
v 16 9 -1
v 16 9 -4
v 16 10 4
v 16 10 3
v 16 10 -3
v 16 10 -4
v 16 11 3
v 16 11 1
v 16 11 -1
v 16 11 -3
v 17 9 1
v 17 9 -1
v 17 11 1
v 17 11 -1
v -17 9 1
v -17 9 -1
v -17 11 1
v -17 11 -1
v -16 9 4
v -16 9 1
v -16 9 -1
v -16 9 -4
v -16 10 4
v -16 10 3
v -16 10 -3
v -16 10 -4
v -16 11 3
v -16 11 1
v -16 11 -1
v -16 11 -3
v -14 10 4
v -14 10 3
v -14 10 -3
v -14 10 -4
v -14 11 4
v -14 11 3
v -14 11 -3
v -14 11 -4
v -11 3 11
v -11 3 10
v -11 3 8
v -11 3 -8
v -11 3 -10
v -11 3 -11
v -11 11 11
v -11 11 10
v -11 11 9
v -11 11 8
v -11 11 -8
v -11 11 -9
v -11 11 -10
v -11 11 -11
v -11 13 9
v -11 13 8
v -11 13 -8
v -11 13 -9
v -11 14 8
v -11 14 -8
v -7 3 11
v -7 3 10
v -7 3 -10
v -7 3 -11
v -7 11 11
v -7 11 10
v -7 11 -10
v -7 11 -11
v -2 3 11
v -2 3 10
v -2 3 -10
v -2 3 -11
v -2 11 11
v -2 11 10
v -2 11 -10
v -2 11 -11
v 3 3 11
v 3 3 10
v 3 3 -10
v 3 3 -11
v 3 11 11
v 3 11 10
v 3 11 -10
v 3 11 -11
v 8 3 11
v 8 3 10
v 8 3 -10
v 8 3 -11
v 8 11 11
v 8 11 10
v 8 11 -10
v 8 11 -11
v 13 3 8
v 13 3 5
v 13 3 4
v 13 3 1
v 13 3 -1
v 13 3 -4
v 13 3 -5
v 13 3 -8
v 13 11 8
v 13 11 5
v 13 11 4
v 13 11 1
v 13 11 -1
v 13 11 -4
v 13 11 -5
v 13 11 -8
v 14 0 11
v 14 0 -11
v 14 3 8
v 14 3 5
v 14 3 4
v 14 3 1
v 14 3 -1
v 14 3 -4
v 14 3 -5
v 14 3 -8
v 14 9 5
v 14 9 4
v 14 9 -4
v 14 9 -5
v 14 11 8
v 14 11 5
v 14 11 3
v 14 11 1
v 14 11 -1
v 14 11 -3
v 14 11 -5
v 14 11 -8
v 14 14 11
v 14 14 -11
v 15 9 5
v 15 9 4
v 15 9 -4
v 15 9 -5
v 15 10 4
v 15 10 -4
v 15 11 5
v 15 11 4
v 15 11 -4
v 15 11 -5
v 17 9 4
v 17 9 2
v 17 9 -2
v 17 9 -4
v 17 11 4
v 17 11 2
v 17 11 -2
v 17 11 -4
v 18 9 2
v 18 9 -2
v 18 11 2
v 18 11 -2
v -14 0 11
v -14 14 11
v -11 3 11
v -11 11 11
v -10 13 11
v -10 14 11
v -8 3 11
v -8 11 11
v -8 13 11
v -8 14 11
v -7 3 11
v -7 11 11
v -3 3 11
v -3 11 11
v -2 3 11
v -2 11 11
v 2 3 11
v 2 11 11
v 3 3 11
v 3 11 11
v 7 3 11
v 7 11 11
v 8 3 11
v 8 11 11
v 8 13 11
v 8 14 11
v 10 13 11
v 10 14 11
v 11 3 11
v 11 11 11
v 14 0 11
v 14 14 11
v -11 3 10
v -11 11 10
v -8 3 10
v -8 11 10
v -7 3 10
v -7 11 10
v -3 3 10
v -3 11 10
v -2 3 10
v -2 11 10
v 2 3 10
v 2 11 10
v 3 3 10
v 3 11 10
v 7 3 10
v 7 11 10
v 8 3 10
v 8 11 10
v 11 3 10
v 11 11 10
v -15 9 5
v -15 11 5
v -14 3 5
v -14 9 5
v -14 11 5
v -13 3 5
v -13 11 5
v 13 3 5
v 13 11 5
v 14 3 5
v 14 9 5
v 14 11 5
v 15 9 5
v 15 11 5
v -17 9 4
v -17 11 4
v -16 9 4
v -16 10 4
v -15 10 4
v -15 11 4
v 15 10 4
v 15 11 4
v 16 9 4
v 16 10 4
v 17 9 4
v 17 11 4
v -18 9 2
v -18 11 2
v -17 9 2
v -17 11 2
v 17 9 2
v 17 11 2
v 18 9 2
v 18 11 2
v -14 3 1
v -14 11 1
v -13 3 1
v -13 11 1
v 13 3 1
v 13 11 1
v 14 3 1
v 14 11 1
v -17 9 -1
v -17 11 -1
v -16 9 -1
v -16 11 -1
v 16 9 -1
v 16 11 -1
v 17 9 -1
v 17 11 -1
v -16 10 -3
v -16 11 -3
v -14 10 -3
v -14 11 -3
v 14 10 -3
v 14 11 -3
v 16 10 -3
v 16 11 -3
v -15 9 -4
v -15 10 -4
v -14 3 -4
v -14 9 -4
v -14 10 -4
v -14 11 -4
v -13 3 -4
v -13 11 -4
v 13 3 -4
v 13 11 -4
v 14 3 -4
v 14 9 -4
v 14 10 -4
v 14 11 -4
v 15 9 -4
v 15 10 -4
v -14 3 -8
v -14 11 -8
v -13 3 -8
v -13 11 -8
v -11 3 -8
v -11 11 -8
v -11 13 -8
v -11 14 -8
v 11 3 -8
v 11 11 -8
v 11 13 -8
v 11 14 -8
v 13 3 -8
v 13 11 -8
v 14 3 -8
v 14 11 -8
v -11 11 -9
v -11 13 -9
v 11 11 -9
v 11 13 -9
v -11 11 9
v -11 13 9
v 11 11 9
v 11 13 9
v -14 3 8
v -14 11 8
v -13 3 8
v -13 11 8
v -11 3 8
v -11 11 8
v -11 13 8
v -11 14 8
v 11 3 8
v 11 11 8
v 11 13 8
v 11 14 8
v 13 3 8
v 13 11 8
v 14 3 8
v 14 11 8
v -15 9 4
v -15 10 4
v -14 3 4
v -14 9 4
v -14 10 4
v -14 11 4
v -13 3 4
v -13 11 4
v 13 3 4
v 13 11 4
v 14 3 4
v 14 9 4
v 14 10 4
v 14 11 4
v 15 9 4
v 15 10 4
v -16 10 3
v -16 11 3
v -14 10 3
v -14 11 3
v 14 10 3
v 14 11 3
v 16 10 3
v 16 11 3
v -17 9 1
v -17 11 1
v -16 9 1
v -16 11 1
v 16 9 1
v 16 11 1
v 17 9 1
v 17 11 1
v -14 3 -1
v -14 11 -1
v -13 3 -1
v -13 11 -1
v 13 3 -1
v 13 11 -1
v 14 3 -1
v 14 11 -1
v -18 9 -2
v -18 11 -2
v -17 9 -2
v -17 11 -2
v 17 9 -2
v 17 11 -2
v 18 9 -2
v 18 11 -2
v -17 9 -4
v -17 11 -4
v -16 9 -4
v -16 10 -4
v -15 10 -4
v -15 11 -4
v 15 10 -4
v 15 11 -4
v 16 9 -4
v 16 10 -4
v 17 9 -4
v 17 11 -4
v -15 9 -5
v -15 11 -5
v -14 3 -5
v -14 9 -5
v -14 11 -5
v -13 3 -5
v -13 11 -5
v 13 3 -5
v 13 11 -5
v 14 3 -5
v 14 9 -5
v 14 11 -5
v 15 9 -5
v 15 11 -5
v -11 3 -10
v -11 11 -10
v -8 3 -10
v -8 11 -10
v -7 3 -10
v -7 11 -10
v -3 3 -10
v -3 11 -10
v -2 3 -10
v -2 11 -10
v 2 3 -10
v 2 11 -10
v 3 3 -10
v 3 11 -10
v 7 3 -10
v 7 11 -10
v 8 3 -10
v 8 11 -10
v 11 3 -10
v 11 11 -10
v -14 0 -11
v -14 14 -11
v -11 3 -11
v -11 11 -11
v -8 3 -11
v -8 11 -11
v -7 3 -11
v -7 11 -11
v -3 3 -11
v -3 11 -11
v -2 3 -11
v -2 11 -11
v 2 3 -11
v 2 11 -11
v 3 3 -11
v 3 11 -11
v 7 3 -11
v 7 11 -11
v 8 3 -11
v 8 11 -11
v 11 3 -11
v 11 11 -11
v 14 0 -11
v 14 14 -11
v -14 0 11
v 14 0 11
v -14 0 -11
v 14 0 -11
v -15 9 5
v -14 9 5
v 14 9 5
v 15 9 5
v -17 9 4
v -16 9 4
v -15 9 4
v -14 9 4
v 14 9 4
v 15 9 4
v 16 9 4
v 17 9 4
v -18 9 2
v -17 9 2
v 17 9 2
v 18 9 2
v -17 9 1
v -16 9 1
v 16 9 1
v 17 9 1
v -17 9 -1
v -16 9 -1
v 16 9 -1
v 17 9 -1
v -18 9 -2
v -17 9 -2
v 17 9 -2
v 18 9 -2
v -17 9 -4
v -16 9 -4
v -15 9 -4
v -14 9 -4
v 14 9 -4
v 15 9 -4
v 16 9 -4
v 17 9 -4
v -15 9 -5
v -14 9 -5
v 14 9 -5
v 15 9 -5
v -16 10 4
v -15 10 4
v -14 10 4
v 14 10 4
v 15 10 4
v 16 10 4
v -16 10 3
v -14 10 3
v 14 10 3
v 16 10 3
v -16 10 -3
v -14 10 -3
v 14 10 -3
v 16 10 -3
v -16 10 -4
v -15 10 -4
v -14 10 -4
v 14 10 -4
v 15 10 -4
v 16 10 -4
v -11 11 11
v -8 11 11
v -7 11 11
v -3 11 11
v -2 11 11
v 2 11 11
v 3 11 11
v 7 11 11
v 8 11 11
v 11 11 11
v -11 11 10
v -8 11 10
v -7 11 10
v -3 11 10
v -2 11 10
v 2 11 10
v 3 11 10
v 7 11 10
v 8 11 10
v 11 11 10
v -14 11 8
v -13 11 8
v 13 11 8
v 14 11 8
v -14 11 5
v -13 11 5
v 13 11 5
v 14 11 5
v -14 11 4
v -13 11 4
v 13 11 4
v 14 11 4
v -14 11 3
v 14 11 3
v -14 11 1
v -13 11 1
v 13 11 1
v 14 11 1
v -14 11 -1
v -13 11 -1
v 13 11 -1
v 14 11 -1
v -14 11 -3
v 14 11 -3
v -14 11 -4
v -13 11 -4
v 13 11 -4
v 14 11 -4
v -14 11 -5
v -13 11 -5
v 13 11 -5
v 14 11 -5
v -14 11 -8
v -13 11 -8
v 13 11 -8
v 14 11 -8
v -11 11 -10
v -8 11 -10
v -7 11 -10
v -3 11 -10
v -2 11 -10
v 2 11 -10
v 3 11 -10
v 7 11 -10
v 8 11 -10
v 11 11 -10
v -11 11 -11
v -8 11 -11
v -7 11 -11
v -3 11 -11
v -2 11 -11
v 2 11 -11
v 3 11 -11
v 7 11 -11
v 8 11 -11
v 11 11 -11
v -11 13 9
v 11 13 9
v -11 13 8
v 11 13 8
v -11 13 -8
v 11 13 -8
v -11 13 -9
v 11 13 -9
v -11 3 11
v -8 3 11
v -7 3 11
v -3 3 11
v -2 3 11
v 2 3 11
v 3 3 11
v 7 3 11
v 8 3 11
v 11 3 11
v -11 3 10
v -8 3 10
v -7 3 10
v -3 3 10
v -2 3 10
v 2 3 10
v 3 3 10
v 7 3 10
v 8 3 10
v 11 3 10
v -14 3 8
v -13 3 8
v -11 3 8
v 11 3 8
v 13 3 8
v 14 3 8
v -14 3 5
v -13 3 5
v 13 3 5
v 14 3 5
v -14 3 4
v -13 3 4
v 13 3 4
v 14 3 4
v -14 3 1
v -13 3 1
v 13 3 1
v 14 3 1
v -14 3 -1
v -13 3 -1
v 13 3 -1
v 14 3 -1
v -14 3 -4
v -13 3 -4
v 13 3 -4
v 14 3 -4
v -14 3 -5
v -13 3 -5
v 13 3 -5
v 14 3 -5
v -14 3 -8
v -13 3 -8
v -11 3 -8
v 11 3 -8
v 13 3 -8
v 14 3 -8
v -11 3 -10
v -8 3 -10
v -7 3 -10
v -3 3 -10
v -2 3 -10
v 2 3 -10
v 3 3 -10
v 7 3 -10
v 8 3 -10
v 11 3 -10
v -11 3 -11
v -8 3 -11
v -7 3 -11
v -3 3 -11
v -2 3 -11
v 2 3 -11
v 3 3 -11
v 7 3 -11
v 8 3 -11
v 11 3 -11
v -11 11 9
v 11 11 9
v -11 11 8
v 11 11 8
v -15 11 5
v -14 11 5
v 14 11 5
v 15 11 5
v -17 11 4
v -15 11 4
v 15 11 4
v 17 11 4
v -16 11 3
v -14 11 3
v 14 11 3
v 16 11 3
v -18 11 2
v -17 11 2
v 17 11 2
v 18 11 2
v -17 11 1
v -16 11 1
v 16 11 1
v 17 11 1
v -17 11 -1
v -16 11 -1
v 16 11 -1
v 17 11 -1
v -18 11 -2
v -17 11 -2
v 17 11 -2
v 18 11 -2
v -16 11 -3
v -14 11 -3
v 14 11 -3
v 16 11 -3
v -17 11 -4
v -15 11 -4
v 15 11 -4
v 17 11 -4
v -15 11 -5
v -14 11 -5
v 14 11 -5
v 15 11 -5
v -11 11 -8
v 11 11 -8
v -11 11 -9
v 11 11 -9
v -14 14 11
v -10 14 11
v -8 14 11
v 8 14 11
v 10 14 11
v 14 14 11
v -10 14 10
v -8 14 10
v 8 14 10
v 10 14 10
v -11 14 8
v 11 14 8
v -11 14 -8
v 11 14 -8
v -14 14 -11
v 14 14 -11

# faces
f 3/4/1 2/4/1 1/4/1
f 4/4/1 2/4/1 3/4/1
f 9/4/1 6/4/1 5/4/1
f 10/4/1 6/4/1 9/4/1
f 11/4/1 8/4/1 7/4/1
f 12/4/1 8/4/1 11/4/1
f 17/4/1 14/4/1 13/4/1
f 18/4/1 16/4/1 15/4/1
f 19/4/1 17/4/1 13/4/1
f 20/4/1 17/4/1 19/4/1
f 21/4/1 16/4/1 18/4/1
f 22/4/1 16/4/1 21/4/1
f 25/4/1 24/4/1 23/4/1
f 26/4/1 24/4/1 25/4/1
f 27/4/1 24/4/1 26/4/1
f 28/4/1 24/4/1 27/4/1
f 29/4/1 24/4/1 28/4/1
f 30/4/1 24/4/1 29/4/1
f 31/4/1 24/4/1 30/4/1
f 32/4/1 24/4/1 31/4/1
f 33/2/1 27/2/1 26/2/1
f 34/2/1 27/2/1 33/2/1
f 35/2/1 31/2/1 30/2/1
f 36/2/1 31/2/1 35/2/1
f 37/4/1 25/4/1 23/4/1
f 40/2/1 29/2/1 28/2/1
f 41/2/1 29/2/1 40/2/1
f 44/4/1 24/4/1 32/4/1
f 45/4/1 43/4/1 42/4/1
f 45/4/1 44/4/1 43/4/1
f 45/4/1 42/4/1 41/4/1
f 45/4/1 39/4/1 38/4/1
f 45/4/1 41/4/1 40/4/1
f 45/4/1 40/4/1 39/4/1
f 45/4/1 37/4/1 23/4/1
f 45/4/1 38/4/1 37/4/1
f 46/4/1 24/4/1 44/4/1
f 46/4/1 44/4/1 45/4/1
f 55/3/1 48/3/1 47/3/1
f 56/3/1 48/3/1 55/3/1
f 57/3/1 50/3/1 49/3/1
f 58/3/1 50/3/1 57/3/1
f 59/3/1 52/3/1 51/3/1
f 60/3/1 52/3/1 59/3/1
f 61/3/1 54/3/1 53/3/1
f 62/3/1 54/3/1 61/3/1
f 67/2/1 64/2/1 63/2/1
f 68/2/1 64/2/1 67/2/1
f 69/2/1 66/2/1 65/2/1
f 70/2/1 66/2/1 69/2/1
f 75/2/1 72/2/1 71/2/1
f 76/2/1 72/2/1 75/2/1
f 77/2/1 74/2/1 73/2/1
f 78/2/1 74/2/1 77/2/1
f 83/2/1 80/2/1 79/2/1
f 84/2/1 80/2/1 83/2/1
f 85/2/1 82/2/1 81/2/1
f 86/2/1 82/2/1 85/2/1
f 91/2/1 88/2/1 87/2/1
f 92/2/1 88/2/1 91/2/1
f 93/2/1 90/2/1 89/2/1
f 94/2/1 90/2/1 93/2/1
f 101/4/1 96/4/1 95/4/1
f 102/4/1 96/4/1 101/4/1
f 104/3/1 98/3/1 97/3/1
f 105/3/1 98/3/1 104/3/1
f 107/4/1 100/4/1 99/4/1
f 108/4/1 100/4/1 107/4/1
f 109/4/1 106/4/1 105/4/1
f 109/4/1 104/4/1 103/4/1
f 109/4/1 105/4/1 104/4/1
f 110/4/1 106/4/1 109/4/1
f 111/4/1 106/4/1 110/4/1
f 112/4/1 106/4/1 111/4/1
f 113/4/1 111/4/1 110/4/1
f 114/4/1 111/4/1 113/4/1
f 119/4/1 116/4/1 115/4/1
f 120/4/1 116/4/1 119/4/1
f 121/4/1 118/4/1 117/4/1
f 122/4/1 118/4/1 121/4/1
f 127/4/1 124/4/1 123/4/1
f 128/4/1 124/4/1 127/4/1
f 129/4/1 126/4/1 125/4/1
f 130/4/1 126/4/1 129/4/1
f 131/4/1 124/4/1 128/4/1
f 132/4/1 124/4/1 131/4/1
f 133/4/1 129/4/1 125/4/1
f 134/4/1 129/4/1 133/4/1
f 137/4/1 136/4/1 135/4/1
f 138/4/1 136/4/1 137/4/1
f 139/4/2 140/4/2 141/4/2
f 141/4/2 140/4/2 142/4/2
f 143/4/2 144/4/2 147/4/2
f 147/4/2 144/4/2 148/4/2
f 145/4/2 146/4/2 149/4/2
f 149/4/2 146/4/2 150/4/2
f 148/4/2 144/4/2 151/4/2
f 151/4/2 144/4/2 152/4/2
f 145/4/2 149/4/2 153/4/2
f 153/4/2 149/4/2 154/4/2
f 155/4/2 156/4/2 159/4/2
f 159/4/2 156/4/2 160/4/2
f 157/4/2 158/4/2 161/4/2
f 161/4/2 158/4/2 162/4/2
f 163/4/2 164/4/2 169/4/2
f 169/4/2 164/4/2 170/4/2
f 165/3/2 166/3/2 172/3/2
f 172/3/2 166/3/2 173/3/2
f 167/4/2 168/4/2 175/4/2
f 175/4/2 168/4/2 176/4/2
f 173/4/2 174/4/2 177/4/2
f 171/4/2 172/4/2 177/4/2
f 172/4/2 173/4/2 177/4/2
f 177/4/2 174/4/2 178/4/2
f 178/4/2 174/4/2 179/4/2
f 179/4/2 174/4/2 180/4/2
f 178/4/2 179/4/2 181/4/2
f 181/4/2 179/4/2 182/4/2
f 183/2/2 184/2/2 187/2/2
f 187/2/2 184/2/2 188/2/2
f 185/2/2 186/2/2 189/2/2
f 189/2/2 186/2/2 190/2/2
f 191/2/2 192/2/2 195/2/2
f 195/2/2 192/2/2 196/2/2
f 193/2/2 194/2/2 197/2/2
f 197/2/2 194/2/2 198/2/2
f 199/2/2 200/2/2 203/2/2
f 203/2/2 200/2/2 204/2/2
f 201/2/2 202/2/2 205/2/2
f 205/2/2 202/2/2 206/2/2
f 207/2/2 208/2/2 211/2/2
f 211/2/2 208/2/2 212/2/2
f 209/2/2 210/2/2 213/2/2
f 213/2/2 210/2/2 214/2/2
f 215/3/2 216/3/2 223/3/2
f 223/3/2 216/3/2 224/3/2
f 217/3/2 218/3/2 225/3/2
f 225/3/2 218/3/2 226/3/2
f 219/3/2 220/3/2 227/3/2
f 227/3/2 220/3/2 228/3/2
f 221/3/2 222/3/2 229/3/2
f 229/3/2 222/3/2 230/3/2
f 231/4/2 232/4/2 233/4/2
f 233/4/2 232/4/2 234/4/2
f 234/4/2 232/4/2 235/4/2
f 235/4/2 232/4/2 236/4/2
f 236/4/2 232/4/2 237/4/2
f 237/4/2 232/4/2 238/4/2
f 238/4/2 232/4/2 239/4/2
f 239/4/2 232/4/2 240/4/2
f 234/2/2 235/2/2 241/2/2
f 241/2/2 235/2/2 242/2/2
f 238/2/2 239/2/2 243/2/2
f 243/2/2 239/2/2 244/2/2
f 231/4/2 233/4/2 245/4/2
f 236/2/2 237/2/2 248/2/2
f 248/2/2 237/2/2 249/2/2
f 240/4/2 232/4/2 252/4/2
f 250/4/2 251/4/2 253/4/2
f 251/4/2 252/4/2 253/4/2
f 249/4/2 250/4/2 253/4/2
f 246/4/2 247/4/2 253/4/2
f 248/4/2 249/4/2 253/4/2
f 247/4/2 248/4/2 253/4/2
f 231/4/2 245/4/2 253/4/2
f 245/4/2 246/4/2 253/4/2
f 252/4/2 232/4/2 254/4/2
f 253/4/2 252/4/2 254/4/2
f 255/4/2 256/4/2 259/4/2
f 257/4/2 258/4/2 260/4/2
f 255/4/2 259/4/2 261/4/2
f 261/4/2 259/4/2 262/4/2
f 260/4/2 258/4/2 263/4/2
f 263/4/2 258/4/2 264/4/2
f 265/4/2 266/4/2 269/4/2
f 269/4/2 266/4/2 270/4/2
f 267/4/2 268/4/2 271/4/2
f 271/4/2 268/4/2 272/4/2
f 273/4/2 274/4/2 275/4/2
f 275/4/2 274/4/2 276/4/2
f 279/4/3 278/4/3 277/4/3
f 280/4/3 278/4/3 279/4/3
f 281/4/3 278/4/3 280/4/3
f 282/4/3 278/4/3 281/4/3
f 283/4/3 279/4/3 277/4/3
f 284/4/3 281/4/3 280/4/3
f 285/1/3 282/1/3 281/1/3
f 285/4/3 281/4/3 284/4/3
f 286/1/3 282/1/3 285/1/3
f 287/4/3 283/4/3 277/4/3
f 287/2/3 284/2/3 283/2/3
f 288/4/3 286/4/3 285/4/3
f 288/2/3 284/2/3 287/2/3
f 288/4/3 285/4/3 284/4/3
f 289/4/3 287/4/3 277/4/3
f 290/4/3 286/4/3 288/4/3
f 291/4/3 289/4/3 277/4/3
f 291/2/3 290/2/3 289/2/3
f 292/4/3 286/4/3 290/4/3
f 292/2/3 290/2/3 291/2/3
f 293/4/3 291/4/3 277/4/3
f 294/4/3 286/4/3 292/4/3
f 295/4/3 293/4/3 277/4/3
f 295/2/3 294/2/3 293/2/3
f 296/4/3 286/4/3 294/4/3
f 296/2/3 294/2/3 295/2/3
f 297/4/3 295/4/3 277/4/3
f 298/4/3 286/4/3 296/4/3
f 299/4/3 297/4/3 277/4/3
f 299/2/3 298/2/3 297/2/3
f 300/4/3 286/4/3 298/4/3
f 300/2/3 298/2/3 299/2/3
f 301/4/3 286/4/3 300/4/3
f 302/4/3 286/4/3 301/4/3
f 303/4/3 301/4/3 300/4/3
f 303/1/3 302/1/3 301/1/3
f 304/1/3 302/1/3 303/1/3
f 305/4/3 299/4/3 277/4/3
f 306/4/3 303/4/3 300/4/3
f 306/4/3 304/4/3 303/4/3
f 307/4/3 305/4/3 277/4/3
f 307/4/3 306/4/3 305/4/3
f 308/4/3 304/4/3 306/4/3
f 308/4/3 306/4/3 307/4/3
f 311/3/3 310/3/3 309/3/3
f 312/3/3 310/3/3 311/3/3
f 315/3/3 314/3/3 313/3/3
f 316/3/3 314/3/3 315/3/3
f 319/3/3 318/3/3 317/3/3
f 320/3/3 318/3/3 319/3/3
f 323/3/3 322/3/3 321/3/3
f 324/3/3 322/3/3 323/3/3
f 327/3/3 326/3/3 325/3/3
f 328/3/3 326/3/3 327/3/3
f 332/4/3 330/4/3 329/4/3
f 333/4/3 330/4/3 332/4/3
f 334/2/3 332/2/3 331/2/3
f 334/2/3 333/2/3 332/2/3
f 335/2/3 333/2/3 334/2/3
f 338/2/3 337/2/3 336/2/3
f 339/2/3 337/2/3 338/2/3
f 340/2/3 337/2/3 339/2/3
f 341/4/3 340/4/3 339/4/3
f 342/4/3 340/4/3 341/4/3
f 345/4/3 344/4/3 343/4/3
f 346/4/3 344/4/3 345/4/3
f 347/4/3 344/4/3 346/4/3
f 348/4/3 344/4/3 347/4/3
f 352/4/3 350/4/3 349/4/3
f 353/4/3 352/4/3 351/4/3
f 354/4/3 350/4/3 352/4/3
f 354/4/3 352/4/3 353/4/3
f 357/4/3 356/4/3 355/4/3
f 358/4/3 356/4/3 357/4/3
f 361/4/3 360/4/3 359/4/3
f 362/4/3 360/4/3 361/4/3
f 365/2/3 364/2/3 363/2/3
f 366/2/3 364/2/3 365/2/3
f 369/2/3 368/2/3 367/2/3
f 370/2/3 368/2/3 369/2/3
f 373/4/3 372/4/3 371/4/3
f 374/4/3 372/4/3 373/4/3
f 377/4/3 376/4/3 375/4/3
f 378/4/3 376/4/3 377/4/3
f 381/4/3 380/4/3 379/4/3
f 382/4/3 380/4/3 381/4/3
f 385/4/3 384/4/3 383/4/3
f 386/4/3 384/4/3 385/4/3
f 390/4/3 388/4/3 387/4/3
f 391/4/3 388/4/3 390/4/3
f 393/2/3 390/2/3 389/2/3
f 393/2/3 392/2/3 391/2/3
f 393/2/3 391/2/3 390/2/3
f 394/2/3 392/2/3 393/2/3
f 397/2/3 396/2/3 395/2/3
f 398/2/3 396/2/3 397/2/3
f 399/2/3 396/2/3 398/2/3
f 400/2/3 396/2/3 399/2/3
f 401/4/3 399/4/3 398/4/3
f 402/4/3 399/4/3 401/4/3
f 405/4/3 404/4/3 403/4/3
f 406/4/3 404/4/3 405/4/3
f 411/3/3 408/3/3 407/3/3
f 412/3/3 408/3/3 411/3/3
f 413/4/3 410/4/3 409/4/3
f 414/4/3 410/4/3 413/4/3
f 417/4/3 416/4/3 415/4/3
f 418/4/3 416/4/3 417/4/3
f 421/4/3 420/4/3 419/4/3
f 422/4/3 420/4/3 421/4/3
f 423/4/4 424/4/4 425/4/4
f 425/4/4 424/4/4 426/4/4
f 427/4/4 428/4/4 429/4/4
f 429/4/4 428/4/4 430/4/4
f 431/3/4 432/3/4 435/3/4
f 435/3/4 432/3/4 436/3/4
f 433/4/4 434/4/4 437/4/4
f 437/4/4 434/4/4 438/4/4
f 439/4/4 440/4/4 441/4/4
f 441/4/4 440/4/4 442/4/4
f 443/4/4 444/4/4 446/4/4
f 446/4/4 444/4/4 447/4/4
f 445/2/4 446/2/4 449/2/4
f 447/2/4 448/2/4 449/2/4
f 446/2/4 447/2/4 449/2/4
f 449/2/4 448/2/4 450/2/4
f 451/2/4 452/2/4 453/2/4
f 453/2/4 452/2/4 454/2/4
f 454/2/4 452/2/4 455/2/4
f 455/2/4 452/2/4 456/2/4
f 454/4/4 455/4/4 457/4/4
f 457/4/4 455/4/4 458/4/4
f 459/4/4 460/4/4 461/4/4
f 461/4/4 460/4/4 462/4/4
f 463/4/4 464/4/4 465/4/4
f 465/4/4 464/4/4 466/4/4
f 467/4/4 468/4/4 469/4/4
f 469/4/4 468/4/4 470/4/4
f 471/4/4 472/4/4 473/4/4
f 473/4/4 472/4/4 474/4/4
f 475/2/4 476/2/4 477/2/4
f 477/2/4 476/2/4 478/2/4
f 479/2/4 480/2/4 481/2/4
f 481/2/4 480/2/4 482/2/4
f 483/4/4 484/4/4 485/4/4
f 485/4/4 484/4/4 486/4/4
f 487/4/4 488/4/4 489/4/4
f 489/4/4 488/4/4 490/4/4
f 491/4/4 492/4/4 493/4/4
f 493/4/4 492/4/4 494/4/4
f 494/4/4 492/4/4 495/4/4
f 495/4/4 492/4/4 496/4/4
f 497/4/4 498/4/4 500/4/4
f 499/4/4 500/4/4 501/4/4
f 500/4/4 498/4/4 502/4/4
f 501/4/4 500/4/4 502/4/4
f 503/4/4 504/4/4 506/4/4
f 506/4/4 504/4/4 507/4/4
f 505/2/4 506/2/4 508/2/4
f 506/2/4 507/2/4 508/2/4
f 508/2/4 507/2/4 509/2/4
f 510/2/4 511/2/4 512/2/4
f 512/2/4 511/2/4 513/2/4
f 513/2/4 511/2/4 514/2/4
f 513/4/4 514/4/4 515/4/4
f 515/4/4 514/4/4 516/4/4
f 517/3/4 518/3/4 519/3/4
f 519/3/4 518/3/4 520/3/4
f 521/3/4 522/3/4 523/3/4
f 523/3/4 522/3/4 524/3/4
f 525/3/4 526/3/4 527/3/4
f 527/3/4 526/3/4 528/3/4
f 529/3/4 530/3/4 531/3/4
f 531/3/4 530/3/4 532/3/4
f 533/3/4 534/3/4 535/3/4
f 535/3/4 534/3/4 536/3/4
f 537/4/4 538/4/4 539/4/4
f 539/4/4 538/4/4 540/4/4
f 537/4/4 539/4/4 541/4/4
f 540/4/4 538/4/4 542/4/4
f 537/4/4 541/4/4 543/4/4
f 541/2/4 542/2/4 543/2/4
f 542/4/4 538/4/4 544/4/4
f 543/2/4 542/2/4 544/2/4
f 537/4/4 543/4/4 545/4/4
f 544/4/4 538/4/4 546/4/4
f 537/4/4 545/4/4 547/4/4
f 545/2/4 546/2/4 547/2/4
f 546/4/4 538/4/4 548/4/4
f 547/2/4 546/2/4 548/2/4
f 537/4/4 547/4/4 549/4/4
f 548/4/4 538/4/4 550/4/4
f 537/4/4 549/4/4 551/4/4
f 549/2/4 550/2/4 551/2/4
f 550/4/4 538/4/4 552/4/4
f 551/2/4 550/2/4 552/2/4
f 537/4/4 551/4/4 553/4/4
f 552/4/4 538/4/4 554/4/4
f 537/4/4 553/4/4 555/4/4
f 553/2/4 554/2/4 555/2/4
f 554/4/4 538/4/4 556/4/4
f 555/2/4 554/2/4 556/2/4
f 537/4/4 555/4/4 557/4/4
f 556/4/4 538/4/4 558/4/4
f 537/4/4 557/4/4 559/4/4
f 557/4/4 558/4/4 559/4/4
f 558/4/4 538/4/4 560/4/4
f 559/4/4 558/4/4 560/4/4
f 563/4/5 562/4/5 561/4/5
f 564/4/5 562/4/5 563/4/5
f 571/4/5 566/4/5 565/4/5
f 572/4/5 566/4/5 571/4/5
f 573/4/5 568/4/5 567/4/5
f 574/4/5 568/4/5 573/4/5
f 578/4/5 570/4/5 569/4/5
f 579/4/5 576/4/5 575/4/5
f 581/4/5 578/4/5 577/4/5
f 581/4/5 570/4/5 578/4/5
f 582/4/5 570/4/5 581/4/5
f 583/4/5 580/4/5 579/4/5
f 583/4/5 579/4/5 575/4/5
f 584/4/5 580/4/5 583/4/5
f 585/4/5 581/4/5 577/4/5
f 588/4/5 580/4/5 584/4/5
f 589/4/5 586/4/5 585/4/5
f 589/4/5 585/4/5 577/4/5
f 590/4/5 586/4/5 589/4/5
f 591/4/5 588/4/5 587/4/5
f 591/4/5 580/4/5 588/4/5
f 592/4/5 580/4/5 591/4/5
f 593/4/5 586/4/5 590/4/5
f 594/4/5 586/4/5 593/4/5
f 599/4/5 591/4/5 587/4/5
f 600/4/5 591/4/5 599/4/5
f 601/4/5 596/4/5 595/4/5
f 602/4/5 596/4/5 601/4/5
f 603/4/5 598/4/5 597/4/5
f 604/4/5 598/4/5 603/4/5
f 611/4/5 606/4/5 605/4/5
f 611/4/5 607/4/5 606/4/5
f 612/4/5 607/4/5 611/4/5
f 613/4/5 610/4/5 609/4/5
f 613/4/5 609/4/5 608/4/5
f 614/4/5 610/4/5 613/4/5
f 619/4/5 616/4/5 615/4/5
f 620/4/5 616/4/5 619/4/5
f 621/4/5 616/4/5 620/4/5
f 622/4/5 618/4/5 617/4/5
f 623/4/5 618/4/5 622/4/5
f 624/4/5 618/4/5 623/4/5
f 635/4/5 626/4/5 625/4/5
f 636/4/5 626/4/5 635/4/5
f 637/4/5 628/4/5 627/4/5
f 638/4/5 628/4/5 637/4/5
f 639/4/5 630/4/5 629/4/5
f 640/4/5 630/4/5 639/4/5
f 641/4/5 632/4/5 631/4/5
f 642/4/5 632/4/5 641/4/5
f 643/4/5 634/4/5 633/4/5
f 644/4/5 634/4/5 643/4/5
f 649/4/5 646/4/5 645/4/5
f 650/4/5 646/4/5 649/4/5
f 651/4/5 648/4/5 647/4/5
f 652/4/5 648/4/5 651/4/5
f 657/4/5 654/4/5 653/4/5
f 658/4/5 656/4/5 655/4/5
f 659/4/5 654/4/5 657/4/5
f 660/4/5 654/4/5 659/4/5
f 661/4/5 658/4/5 655/4/5
f 662/4/5 658/4/5 661/4/5
f 667/4/5 664/4/5 663/4/5
f 668/4/5 666/4/5 665/4/5
f 669/4/5 664/4/5 667/4/5
f 670/4/5 664/4/5 669/4/5
f 671/4/5 668/4/5 665/4/5
f 672/4/5 668/4/5 671/4/5
f 677/4/5 674/4/5 673/4/5
f 678/4/5 674/4/5 677/4/5
f 679/4/5 676/4/5 675/4/5
f 680/4/5 676/4/5 679/4/5
f 691/4/5 682/4/5 681/4/5
f 692/4/5 682/4/5 691/4/5
f 693/4/5 684/4/5 683/4/5
f 694/4/5 684/4/5 693/4/5
f 695/4/5 686/4/5 685/4/5
f 696/4/5 686/4/5 695/4/5
f 697/4/5 688/4/5 687/4/5
f 698/4/5 688/4/5 697/4/5
f 699/4/5 690/4/5 689/4/5
f 700/4/5 690/4/5 699/4/5
f 703/4/5 702/4/5 701/4/5
f 704/4/5 702/4/5 703/4/5
f 707/4/5 706/4/5 705/4/5
f 708/4/5 706/4/5 707/4/5
f 709/4/6 710/4/6 719/4/6
f 719/4/6 710/4/6 720/4/6
f 711/4/6 712/4/6 721/4/6
f 721/4/6 712/4/6 722/4/6
f 713/4/6 714/4/6 723/4/6
f 723/4/6 714/4/6 724/4/6
f 715/4/6 716/4/6 725/4/6
f 725/4/6 716/4/6 726/4/6
f 717/4/6 718/4/6 727/4/6
f 727/4/6 718/4/6 728/4/6
f 729/4/6 730/4/6 735/4/6
f 735/4/6 730/4/6 736/4/6
f 733/4/6 734/4/6 737/4/6
f 737/4/6 734/4/6 738/4/6
f 739/4/6 740/4/6 743/4/6
f 743/4/6 740/4/6 744/4/6
f 741/4/6 742/4/6 745/4/6
f 745/4/6 742/4/6 746/4/6
f 747/4/6 748/4/6 751/4/6
f 751/4/6 748/4/6 752/4/6
f 749/4/6 750/4/6 753/4/6
f 753/4/6 750/4/6 754/4/6
f 755/4/6 756/4/6 759/4/6
f 759/4/6 756/4/6 760/4/6
f 731/4/6 732/4/6 761/4/6
f 761/4/6 732/4/6 762/4/6
f 757/4/6 758/4/6 763/4/6
f 763/4/6 758/4/6 764/4/6
f 765/4/6 766/4/6 775/4/6
f 775/4/6 766/4/6 776/4/6
f 767/4/6 768/4/6 777/4/6
f 777/4/6 768/4/6 778/4/6
f 769/4/6 770/4/6 779/4/6
f 779/4/6 770/4/6 780/4/6
f 771/4/6 772/4/6 781/4/6
f 781/4/6 772/4/6 782/4/6
f 773/4/6 774/4/6 783/4/6
f 783/4/6 774/4/6 784/4/6
f 785/3/6 786/3/6 787/3/6
f 787/3/6 786/3/6 788/3/6
f 789/4/6 790/4/6 794/4/6
f 791/4/6 792/4/6 795/4/6
f 793/4/6 794/4/6 797/4/6
f 794/4/6 790/4/6 798/4/6
f 797/4/6 794/4/6 798/4/6
f 795/4/6 796/4/6 799/4/6
f 791/4/6 795/4/6 799/4/6
f 799/4/6 796/4/6 800/4/6
f 793/4/6 797/4/6 802/4/6
f 800/4/6 796/4/6 803/4/6
f 801/4/6 802/4/6 805/4/6
f 802/4/6 797/4/6 805/4/6
f 805/4/6 797/4/6 806/4/6
f 803/4/6 804/4/6 807/4/6
f 800/4/6 803/4/6 807/4/6
f 807/4/6 804/4/6 808/4/6
f 801/4/6 805/4/6 809/4/6
f 808/4/6 804/4/6 812/4/6
f 809/4/6 810/4/6 813/4/6
f 801/4/6 809/4/6 813/4/6
f 813/4/6 810/4/6 814/4/6
f 811/4/6 812/4/6 815/4/6
f 812/4/6 804/4/6 815/4/6
f 815/4/6 804/4/6 816/4/6
f 814/4/6 810/4/6 817/4/6
f 811/4/6 815/4/6 820/4/6
f 817/4/6 818/4/6 821/4/6
f 814/4/6 817/4/6 821/4/6
f 821/4/6 818/4/6 822/4/6
f 819/4/6 820/4/6 823/4/6
f 820/4/6 815/4/6 824/4/6
f 823/4/6 820/4/6 824/4/6
f 822/4/6 818/4/6 825/4/6
f 825/4/6 818/4/6 826/4/6
f 819/4/6 823/4/6 827/4/6
f 827/4/6 823/4/6 828/4/6
f 829/3/6 830/3/6 831/3/6
f 831/3/6 830/3/6 832/3/6
f 833/4/6 834/4/6 839/4/6
f 834/1/6 835/1/6 839/1/6
f 835/4/6 836/4/6 840/4/6
f 839/1/6 835/1/6 840/1/6
f 836/1/6 837/1/6 841/1/6
f 840/4/6 836/4/6 841/4/6
f 837/4/6 838/4/6 842/4/6
f 841/1/6 837/1/6 842/1/6
f 840/4/6 841/4/6 843/4/6
f 839/4/6 840/4/6 843/4/6
f 841/4/6 842/4/6 843/4/6
f 833/4/6 839/4/6 843/4/6
f 842/4/6 838/4/6 844/4/6
f 843/4/6 842/4/6 844/4/6
f 833/4/6 843/4/6 845/4/6
f 844/4/6 838/4/6 846/4/6
f 833/4/6 845/4/6 847/4/6
f 845/4/6 846/4/6 847/4/6
f 846/4/6 838/4/6 848/4/6
f 847/4/6 846/4/6 848/4/6
