# MagicaVoxel @ ephtracy

# material
mtllib Warehouse_LeftDoor.mtl
usemtl palette

# normals
vn -1 0 0
vn 1 0 0
vn 0 0 1
vn 0 0 -1
vn 0 -1 0
vn 0 1 0

# texcoords
vt 0.310547 0.5
vt 0.369141 0.5
vt 0.435547 0.5
vt 0.466797 0.5

# verts
v -6 0 -3
v -6 0 -4
v -6 13 -3
v -6 13 -4
v 0 0 -3
v 0 0 -4
v 0 13 -3
v 0 13 -4
v -6 0 -3
v -6 13 -3
v -5 1 -3
v -5 5 -3
v -5 6 -3
v -5 7 -3
v -5 8 -3
v -5 12 -3
v -1 1 -3
v -1 5 -3
v -1 6 -3
v -1 7 -3
v -1 8 -3
v -1 12 -3
v 0 0 -3
v 0 13 -3
v -6 0 -4
v -6 13 -4
v -5 1 -4
v -5 5 -4
v -5 6 -4
v -5 7 -4
v -5 8 -4
v -5 12 -4
v -1 1 -4
v -1 5 -4
v -1 6 -4
v -1 7 -4
v -1 8 -4
v -1 12 -4
v 0 0 -4
v 0 13 -4
v -6 0 -3
v 0 0 -3
v -6 0 -4
v 0 0 -4
v -6 13 -3
v 0 13 -3
v -6 13 -4
v 0 13 -4

# faces
f 3/1/1 2/1/1 1/1/1
f 4/1/1 2/1/1 3/1/1
f 5/1/2 6/1/2 7/1/2
f 7/1/2 6/1/2 8/1/2
f 11/1/3 10/1/3 9/1/3
f 12/1/3 10/1/3 11/1/3
f 13/1/3 10/1/3 12/1/3
f 14/1/3 10/1/3 13/1/3
f 15/1/3 10/1/3 14/1/3
f 16/1/3 10/1/3 15/1/3
f 17/1/3 11/1/3 9/1/3
f 17/2/3 12/2/3 11/2/3
f 18/4/3 13/4/3 12/4/3
f 18/2/3 12/2/3 17/2/3
f 19/3/3 14/3/3 13/3/3
f 19/4/3 13/4/3 18/4/3
f 20/4/3 15/4/3 14/4/3
f 20/3/3 14/3/3 19/3/3
f 21/2/3 16/2/3 15/2/3
f 21/4/3 15/4/3 20/4/3
f 22/1/3 10/1/3 16/1/3
f 22/2/3 16/2/3 21/2/3
f 23/1/3 21/1/3 20/1/3
f 23/1/3 20/1/3 19/1/3
f 23/1/3 22/1/3 21/1/3
f 23/1/3 19/1/3 18/1/3
f 23/1/3 18/1/3 17/1/3
f 23/1/3 17/1/3 9/1/3
f 24/1/3 10/1/3 22/1/3
f 24/1/3 22/1/3 23/1/3
f 25/1/4 26/1/4 27/1/4
f 27/1/4 26/1/4 28/1/4
f 28/1/4 26/1/4 29/1/4
f 29/1/4 26/1/4 30/1/4
f 30/1/4 26/1/4 31/1/4
f 31/1/4 26/1/4 32/1/4
f 25/1/4 27/1/4 33/1/4
f 27/2/4 28/2/4 33/2/4
f 28/4/4 29/4/4 34/4/4
f 33/2/4 28/2/4 34/2/4
f 29/3/4 30/3/4 35/3/4
f 34/4/4 29/4/4 35/4/4
f 30/4/4 31/4/4 36/4/4
f 35/3/4 30/3/4 36/3/4
f 31/2/4 32/2/4 37/2/4
f 36/4/4 31/4/4 37/4/4
f 32/1/4 26/1/4 38/1/4
f 37/2/4 32/2/4 38/2/4
f 36/1/4 37/1/4 39/1/4
f 35/1/4 36/1/4 39/1/4
f 37/1/4 38/1/4 39/1/4
f 34/1/4 35/1/4 39/1/4
f 33/1/4 34/1/4 39/1/4
f 25/1/4 33/1/4 39/1/4
f 38/1/4 26/1/4 40/1/4
f 39/1/4 38/1/4 40/1/4
f 43/1/5 42/1/5 41/1/5
f 44/1/5 42/1/5 43/1/5
f 45/1/6 46/1/6 47/1/6
f 47/1/6 46/1/6 48/1/6
