# MagicaVoxel @ ephtracy

# material
mtllib chuansonmen_2_door.mtl
usemtl palette

# normals
vn -1 0 0
vn 1 0 0
vn 0 0 1
vn 0 0 -1
vn 0 -1 0
vn 0 1 0

# texcoords
vt 0.283203 0.5
vt 0.423828 0.5
vt 0.564453 0.5
vt 0.705078 0.5

# verts
v -5.5 5 0.5
v -5.5 5 -0.5
v -5.5 22 0.5
v -5.5 22 -0.5
v -4.5 2 0.5
v -4.5 2 -0.5
v -4.5 3 0.5
v -4.5 3 -0.5
v -4.5 5 0.5
v -4.5 5 -0.5
v -4.5 22 0.5
v -4.5 22 -0.5
v -4.5 25 0.5
v -4.5 25 -0.5
v -3.5 1 0.5
v -3.5 1 -0.5
v -3.5 2 0.5
v -3.5 2 -0.5
v -3.5 25 0.5
v -3.5 25 -0.5
v -3.5 26 0.5
v -3.5 26 -0.5
v -1.5 0 0.5
v -1.5 0 -0.5
v -1.5 1 0.5
v -1.5 1 -0.5
v -1.5 26 0.5
v -1.5 26 -0.5
v -1.5 27 0.5
v -1.5 27 -0.5
v 1.5 0 0.5
v 1.5 0 -0.5
v 1.5 1 0.5
v 1.5 1 -0.5
v 1.5 26 0.5
v 1.5 26 -0.5
v 1.5 27 0.5
v 1.5 27 -0.5
v 3.5 1 0.5
v 3.5 1 -0.5
v 3.5 2 0.5
v 3.5 2 -0.5
v 3.5 25 0.5
v 3.5 25 -0.5
v 3.5 26 0.5
v 3.5 26 -0.5
v 4.5 2 0.5
v 4.5 2 -0.5
v 4.5 3 0.5
v 4.5 3 -0.5
v 4.5 5 0.5
v 4.5 5 -0.5
v 4.5 22 0.5
v 4.5 22 -0.5
v 4.5 25 0.5
v 4.5 25 -0.5
v 5.5 5 0.5
v 5.5 5 -0.5
v 5.5 16 0.5
v 5.5 16 -0.5
v 5.5 17 0.5
v 5.5 17 -0.5
v 5.5 22 0.5
v 5.5 22 -0.5
v -5.5 5 0.5
v -5.5 22 0.5
v -4.5 2 0.5
v -4.5 3 0.5
v -4.5 5 0.5
v -4.5 8 0.5
v -4.5 14 0.5
v -4.5 18 0.5
v -4.5 20 0.5
v -4.5 22 0.5
v -4.5 25 0.5
v -3.5 1 0.5
v -3.5 2 0.5
v -3.5 3 0.5
v -3.5 5 0.5
v -3.5 6 0.5
v -3.5 8 0.5
v -3.5 11 0.5
v -3.5 13 0.5
v -3.5 14 0.5
v -3.5 17 0.5
v -3.5 18 0.5
v -3.5 19 0.5
v -3.5 20 0.5
v -3.5 25 0.5
v -3.5 26 0.5
v -2.5 1 0.5
v -2.5 3 0.5
v -2.5 4 0.5
v -2.5 6 0.5
v -2.5 7 0.5
v -2.5 8 0.5
v -2.5 9 0.5
v -2.5 11 0.5
v -2.5 12 0.5
v -2.5 13 0.5
v -2.5 14 0.5
v -2.5 16 0.5
v -2.5 17 0.5
v -2.5 18 0.5
v -2.5 19 0.5
v -2.5 20 0.5
v -2.5 21 0.5
v -2.5 23 0.5
v -2.5 25 0.5
v -1.5 0 0.5
v -1.5 1 0.5
v -1.5 3 0.5
v -1.5 4 0.5
v -1.5 5 0.5
v -1.5 6 0.5
v -1.5 7 0.5
v -1.5 8 0.5
v -1.5 9 0.5
v -1.5 11 0.5
v -1.5 12 0.5
v -1.5 13 0.5
v -1.5 14 0.5
v -1.5 15 0.5
v -1.5 16 0.5
v -1.5 18 0.5
v -1.5 19 0.5
v -1.5 20 0.5
v -1.5 21 0.5
v -1.5 22 0.5
v -1.5 23 0.5
v -1.5 24 0.5
v -1.5 25 0.5
v -1.5 26 0.5
v -1.5 27 0.5
v -0.5 2 0.5
v -0.5 3 0.5
v -0.5 4 0.5
v -0.5 5 0.5
v -0.5 7 0.5
v -0.5 8 0.5
v -0.5 9 0.5
v -0.5 11 0.5
v -0.5 13 0.5
v -0.5 14 0.5
v -0.5 15 0.5
v -0.5 16 0.5
v -0.5 18 0.5
v -0.5 20 0.5
v -0.5 22 0.5
v -0.5 23 0.5
v -0.5 24 0.5
v -0.5 25 0.5
v -0.5 26 0.5
v 0.5 2 0.5
v 0.5 3 0.5
v 0.5 4 0.5
v 0.5 5 0.5
v 0.5 6 0.5
v 0.5 7 0.5
v 0.5 9 0.5
v 0.5 10 0.5
v 0.5 13 0.5
v 0.5 16 0.5
v 0.5 18 0.5
v 0.5 20 0.5
v 0.5 22 0.5
v 0.5 23 0.5
v 0.5 25 0.5
v 0.5 26 0.5
v 0.5 27 0.5
v 1.5 0 0.5
v 1.5 1 0.5
v 1.5 3 0.5
v 1.5 4 0.5
v 1.5 5 0.5
v 1.5 6 0.5
v 1.5 7 0.5
v 1.5 8 0.5
v 1.5 9 0.5
v 1.5 10 0.5
v 1.5 12 0.5
v 1.5 14 0.5
v 1.5 16 0.5
v 1.5 18 0.5
v 1.5 19 0.5
v 1.5 20 0.5
v 1.5 22 0.5
v 1.5 23 0.5
v 1.5 25 0.5
v 1.5 26 0.5
v 1.5 27 0.5
v 2.5 1 0.5
v 2.5 2 0.5
v 2.5 3 0.5
v 2.5 4 0.5
v 2.5 6 0.5
v 2.5 8 0.5
v 2.5 12 0.5
v 2.5 14 0.5
v 2.5 16 0.5
v 2.5 17 0.5
v 2.5 19 0.5
v 2.5 21 0.5
v 2.5 22 0.5
v 2.5 23 0.5
v 2.5 25 0.5
v 3.5 1 0.5
v 3.5 2 0.5
v 3.5 3 0.5
v 3.5 4 0.5
v 3.5 6 0.5
v 3.5 8 0.5
v 3.5 14 0.5
v 3.5 17 0.5
v 3.5 18 0.5
v 3.5 20 0.5
v 3.5 25 0.5
v 3.5 26 0.5
v 4.5 2 0.5
v 4.5 3 0.5
v 4.5 5 0.5
v 4.5 8 0.5
v 4.5 14 0.5
v 4.5 16 0.5
v 4.5 17 0.5
v 4.5 18 0.5
v 4.5 21 0.5
v 4.5 22 0.5
v 4.5 25 0.5
v 5.5 5 0.5
v 5.5 16 0.5
v 5.5 17 0.5
v 5.5 22 0.5
v -5.5 5 -0.5
v -5.5 22 -0.5
v -4.5 2 -0.5
v -4.5 3 -0.5
v -4.5 5 -0.5
v -4.5 8 -0.5
v -4.5 14 -0.5
v -4.5 18 -0.5
v -4.5 20 -0.5
v -4.5 22 -0.5
v -4.5 25 -0.5
v -3.5 1 -0.5
v -3.5 2 -0.5
v -3.5 3 -0.5
v -3.5 5 -0.5
v -3.5 6 -0.5
v -3.5 8 -0.5
v -3.5 11 -0.5
v -3.5 13 -0.5
v -3.5 14 -0.5
v -3.5 17 -0.5
v -3.5 18 -0.5
v -3.5 19 -0.5
v -3.5 20 -0.5
v -3.5 25 -0.5
v -3.5 26 -0.5
v -2.5 1 -0.5
v -2.5 3 -0.5
v -2.5 4 -0.5
v -2.5 6 -0.5
v -2.5 7 -0.5
v -2.5 8 -0.5
v -2.5 9 -0.5
v -2.5 11 -0.5
v -2.5 12 -0.5
v -2.5 13 -0.5
v -2.5 14 -0.5
v -2.5 16 -0.5
v -2.5 17 -0.5
v -2.5 18 -0.5
v -2.5 19 -0.5
v -2.5 20 -0.5
v -2.5 21 -0.5
v -2.5 23 -0.5
v -2.5 25 -0.5
v -1.5 0 -0.5
v -1.5 1 -0.5
v -1.5 3 -0.5
v -1.5 4 -0.5
v -1.5 5 -0.5
v -1.5 6 -0.5
v -1.5 7 -0.5
v -1.5 8 -0.5
v -1.5 9 -0.5
v -1.5 11 -0.5
v -1.5 12 -0.5
v -1.5 13 -0.5
v -1.5 14 -0.5
v -1.5 15 -0.5
v -1.5 16 -0.5
v -1.5 18 -0.5
v -1.5 19 -0.5
v -1.5 20 -0.5
v -1.5 21 -0.5
v -1.5 22 -0.5
v -1.5 23 -0.5
v -1.5 24 -0.5
v -1.5 25 -0.5
v -1.5 26 -0.5
v -1.5 27 -0.5
v -0.5 2 -0.5
v -0.5 3 -0.5
v -0.5 4 -0.5
v -0.5 5 -0.5
v -0.5 7 -0.5
v -0.5 8 -0.5
v -0.5 9 -0.5
v -0.5 11 -0.5
v -0.5 13 -0.5
v -0.5 14 -0.5
v -0.5 15 -0.5
v -0.5 16 -0.5
v -0.5 18 -0.5
v -0.5 20 -0.5
v -0.5 22 -0.5
v -0.5 23 -0.5
v -0.5 24 -0.5
v -0.5 25 -0.5
v -0.5 26 -0.5
v 0.5 2 -0.5
v 0.5 3 -0.5
v 0.5 4 -0.5
v 0.5 5 -0.5
v 0.5 6 -0.5
v 0.5 7 -0.5
v 0.5 9 -0.5
v 0.5 10 -0.5
v 0.5 13 -0.5
v 0.5 16 -0.5
v 0.5 18 -0.5
v 0.5 20 -0.5
v 0.5 22 -0.5
v 0.5 23 -0.5
v 0.5 25 -0.5
v 0.5 26 -0.5
v 0.5 27 -0.5
v 1.5 0 -0.5
v 1.5 1 -0.5
v 1.5 3 -0.5
v 1.5 4 -0.5
v 1.5 5 -0.5
v 1.5 6 -0.5
v 1.5 7 -0.5
v 1.5 8 -0.5
v 1.5 9 -0.5
v 1.5 10 -0.5
v 1.5 12 -0.5
v 1.5 14 -0.5
v 1.5 16 -0.5
v 1.5 18 -0.5
v 1.5 19 -0.5
v 1.5 20 -0.5
v 1.5 22 -0.5
v 1.5 23 -0.5
v 1.5 25 -0.5
v 1.5 26 -0.5
v 1.5 27 -0.5
v 2.5 1 -0.5
v 2.5 2 -0.5
v 2.5 3 -0.5
v 2.5 4 -0.5
v 2.5 6 -0.5
v 2.5 8 -0.5
v 2.5 12 -0.5
v 2.5 14 -0.5
v 2.5 16 -0.5
v 2.5 17 -0.5
v 2.5 19 -0.5
v 2.5 21 -0.5
v 2.5 22 -0.5
v 2.5 23 -0.5
v 2.5 25 -0.5
v 3.5 1 -0.5
v 3.5 2 -0.5
v 3.5 3 -0.5
v 3.5 4 -0.5
v 3.5 6 -0.5
v 3.5 8 -0.5
v 3.5 14 -0.5
v 3.5 17 -0.5
v 3.5 18 -0.5
v 3.5 20 -0.5
v 3.5 25 -0.5
v 3.5 26 -0.5
v 4.5 2 -0.5
v 4.5 3 -0.5
v 4.5 5 -0.5
v 4.5 8 -0.5
v 4.5 14 -0.5
v 4.5 16 -0.5
v 4.5 17 -0.5
v 4.5 18 -0.5
v 4.5 21 -0.5
v 4.5 22 -0.5
v 4.5 25 -0.5
v 5.5 5 -0.5
v 5.5 16 -0.5
v 5.5 17 -0.5
v 5.5 22 -0.5
v -1.5 0 0.5
v 1.5 0 0.5
v -1.5 0 -0.5
v 1.5 0 -0.5
v -3.5 1 0.5
v -2.5 1 0.5
v -1.5 1 0.5
v 1.5 1 0.5
v 2.5 1 0.5
v 3.5 1 0.5
v -3.5 1 -0.5
v -2.5 1 -0.5
v -1.5 1 -0.5
v 1.5 1 -0.5
v 2.5 1 -0.5
v 3.5 1 -0.5
v -4.5 2 0.5
v -3.5 2 0.5
v 3.5 2 0.5
v 4.5 2 0.5
v -4.5 2 -0.5
v -3.5 2 -0.5
v 3.5 2 -0.5
v 4.5 2 -0.5
v -5.5 5 0.5
v -4.5 5 0.5
v 4.5 5 0.5
v 5.5 5 0.5
v -5.5 5 -0.5
v -4.5 5 -0.5
v 4.5 5 -0.5
v 5.5 5 -0.5
v -5.5 22 0.5
v -4.5 22 0.5
v 4.5 22 0.5
v 5.5 22 0.5
v -5.5 22 -0.5
v -4.5 22 -0.5
v 4.5 22 -0.5
v 5.5 22 -0.5
v -4.5 25 0.5
v -3.5 25 0.5
v 3.5 25 0.5
v 4.5 25 0.5
v -4.5 25 -0.5
v -3.5 25 -0.5
v 3.5 25 -0.5
v 4.5 25 -0.5
v -3.5 26 0.5
v -1.5 26 0.5
v 1.5 26 0.5
v 3.5 26 0.5
v -3.5 26 -0.5
v -1.5 26 -0.5
v 1.5 26 -0.5
v 3.5 26 -0.5
v -1.5 27 0.5
v 0.5 27 0.5
v 1.5 27 0.5
v -1.5 27 -0.5
v 0.5 27 -0.5
v 1.5 27 -0.5

# faces
f 3/1/1 2/1/1 1/1/1
f 4/1/1 2/1/1 3/1/1
f 7/1/1 6/1/1 5/1/1
f 8/1/1 6/1/1 7/1/1
f 9/2/1 8/2/1 7/2/1
f 10/2/1 8/2/1 9/2/1
f 13/1/1 12/1/1 11/1/1
f 14/1/1 12/1/1 13/1/1
f 17/2/1 16/2/1 15/2/1
f 18/2/1 16/2/1 17/2/1
f 21/1/1 20/1/1 19/1/1
f 22/1/1 20/1/1 21/1/1
f 25/1/1 24/1/1 23/1/1
f 26/1/1 24/1/1 25/1/1
f 29/1/1 28/1/1 27/1/1
f 30/1/1 28/1/1 29/1/1
f 31/1/2 32/1/2 33/1/2
f 33/1/2 32/1/2 34/1/2
f 35/2/2 36/2/2 37/2/2
f 37/2/2 36/2/2 38/2/2
f 39/2/2 40/2/2 41/2/2
f 41/2/2 40/2/2 42/2/2
f 43/1/2 44/1/2 45/1/2
f 45/1/2 44/1/2 46/1/2
f 47/2/2 48/2/2 49/2/2
f 49/2/2 48/2/2 50/2/2
f 49/1/2 50/1/2 51/1/2
f 51/1/2 50/1/2 52/1/2
f 53/1/2 54/1/2 55/1/2
f 55/1/2 54/1/2 56/1/2
f 57/1/2 58/1/2 59/1/2
f 59/1/2 58/1/2 60/1/2
f 59/2/2 60/2/2 61/2/2
f 61/2/2 60/2/2 62/2/2
f 61/1/2 62/1/2 63/1/2
f 63/1/2 62/1/2 64/1/2
f 69/1/3 66/1/3 65/1/3
f 70/1/3 66/1/3 69/1/3
f 71/1/3 66/1/3 70/1/3
f 72/1/3 66/1/3 71/1/3
f 73/1/3 66/1/3 72/1/3
f 74/1/3 66/1/3 73/1/3
f 77/1/3 68/1/3 67/1/3
f 78/2/3 69/2/3 68/2/3
f 78/1/3 68/1/3 77/1/3
f 79/1/3 70/1/3 69/1/3
f 79/2/3 69/2/3 78/2/3
f 80/1/3 70/1/3 79/1/3
f 81/2/3 71/2/3 70/2/3
f 81/1/3 70/1/3 80/1/3
f 82/2/3 71/2/3 81/2/3
f 83/2/3 71/2/3 82/2/3
f 84/1/3 72/1/3 71/1/3
f 84/2/3 71/2/3 83/2/3
f 85/1/3 72/1/3 84/1/3
f 86/2/3 73/2/3 72/2/3
f 86/1/3 72/1/3 85/1/3
f 87/2/3 73/2/3 86/2/3
f 88/1/3 75/1/3 74/1/3
f 88/2/3 73/2/3 87/2/3
f 88/1/3 74/1/3 73/1/3
f 89/1/3 75/1/3 88/1/3
f 91/2/3 77/2/3 76/2/3
f 91/2/3 78/2/3 77/2/3
f 92/1/3 80/1/3 79/1/3
f 92/2/3 78/2/3 91/2/3
f 92/1/3 79/1/3 78/1/3
f 93/1/3 80/1/3 92/1/3
f 94/2/3 81/2/3 80/2/3
f 94/1/3 80/1/3 93/1/3
f 95/2/3 81/2/3 94/2/3
f 96/3/3 82/3/3 81/3/3
f 96/2/3 81/2/3 95/2/3
f 97/3/3 82/3/3 96/3/3
f 98/2/3 83/2/3 82/2/3
f 98/3/3 82/3/3 97/3/3
f 99/2/3 83/2/3 98/2/3
f 100/3/3 84/3/3 83/3/3
f 100/2/3 83/2/3 99/2/3
f 101/2/3 85/2/3 84/2/3
f 101/3/3 84/3/3 100/3/3
f 102/2/3 85/2/3 101/2/3
f 103/1/3 86/1/3 85/1/3
f 103/2/3 85/2/3 102/2/3
f 104/4/3 87/4/3 86/4/3
f 104/1/3 86/1/3 103/1/3
f 105/1/3 90/1/3 89/1/3
f 105/4/3 87/4/3 104/4/3
f 105/1/3 89/1/3 88/1/3
f 105/1/3 88/1/3 87/1/3
f 106/1/3 90/1/3 105/1/3
f 107/1/3 90/1/3 106/1/3
f 108/1/3 90/1/3 107/1/3
f 109/1/3 90/1/3 108/1/3
f 111/1/3 93/1/3 92/1/3
f 111/1/3 92/1/3 91/1/3
f 112/1/3 93/1/3 111/1/3
f 113/2/3 94/2/3 93/2/3
f 113/1/3 93/1/3 112/1/3
f 114/2/3 94/2/3 113/2/3
f 115/1/3 95/1/3 94/1/3
f 115/2/3 94/2/3 114/2/3
f 116/3/3 96/3/3 95/3/3
f 116/1/3 95/1/3 115/1/3
f 117/4/3 97/4/3 96/4/3
f 117/3/3 96/3/3 116/3/3
f 118/2/3 98/2/3 97/2/3
f 118/4/3 97/4/3 117/4/3
f 118/2/3 99/2/3 98/2/3
f 119/2/3 99/2/3 118/2/3
f 120/1/3 101/1/3 100/1/3
f 120/2/3 99/2/3 119/2/3
f 120/1/3 100/1/3 99/1/3
f 121/1/3 101/1/3 120/1/3
f 122/3/3 102/3/3 101/3/3
f 122/1/3 101/1/3 121/1/3
f 123/3/3 102/3/3 122/3/3
f 124/2/3 103/2/3 102/2/3
f 124/3/3 102/3/3 123/3/3
f 124/2/3 104/2/3 103/2/3
f 124/2/3 105/2/3 104/2/3
f 125/2/3 105/2/3 124/2/3
f 126/1/3 106/1/3 105/1/3
f 126/2/3 105/2/3 125/2/3
f 127/2/3 107/2/3 106/2/3
f 127/1/3 106/1/3 126/1/3
f 128/1/3 108/1/3 107/1/3
f 128/2/3 107/2/3 127/2/3
f 129/1/3 108/1/3 128/1/3
f 130/2/3 109/2/3 108/2/3
f 130/1/3 108/1/3 129/1/3
f 131/2/3 109/2/3 130/2/3
f 132/1/3 90/1/3 109/1/3
f 132/2/3 109/2/3 131/2/3
f 133/1/3 90/1/3 132/1/3
f 135/1/3 112/1/3 111/1/3
f 135/1/3 111/1/3 110/1/3
f 136/2/3 114/2/3 113/2/3
f 136/1/3 112/1/3 135/1/3
f 136/2/3 113/2/3 112/2/3
f 137/2/3 114/2/3 136/2/3
f 138/1/3 116/1/3 115/1/3
f 138/2/3 114/2/3 137/2/3
f 138/1/3 115/1/3 114/1/3
f 139/4/3 117/4/3 116/4/3
f 139/1/3 116/1/3 138/1/3
f 140/2/3 119/2/3 118/2/3
f 140/4/3 117/4/3 139/4/3
f 140/2/3 118/2/3 117/2/3
f 141/2/3 119/2/3 140/2/3
f 142/4/3 121/4/3 120/4/3
f 142/2/3 119/2/3 141/2/3
f 142/4/3 120/4/3 119/4/3
f 143/1/3 123/1/3 122/1/3
f 143/4/3 121/4/3 142/4/3
f 143/1/3 122/1/3 121/1/3
f 144/1/3 123/1/3 143/1/3
f 145/4/3 124/4/3 123/4/3
f 145/1/3 123/1/3 144/1/3
f 146/3/3 125/3/3 124/3/3
f 146/4/3 124/4/3 145/4/3
f 147/2/3 126/2/3 125/2/3
f 147/3/3 125/3/3 146/3/3
f 147/2/3 127/2/3 126/2/3
f 148/1/3 128/1/3 127/1/3
f 148/2/3 127/2/3 147/2/3
f 148/1/3 129/1/3 128/1/3
f 149/2/3 130/2/3 129/2/3
f 149/1/3 129/1/3 148/1/3
f 150/1/3 131/1/3 130/1/3
f 150/2/3 130/2/3 149/2/3
f 151/4/3 132/4/3 131/4/3
f 151/1/3 131/1/3 150/1/3
f 152/1/3 134/1/3 133/1/3
f 152/4/3 132/4/3 151/4/3
f 152/1/3 133/1/3 132/1/3
f 153/1/3 134/1/3 152/1/3
f 154/2/3 137/2/3 136/2/3
f 154/1/3 135/1/3 110/1/3
f 154/2/3 136/2/3 135/2/3
f 155/2/3 137/2/3 154/2/3
f 156/3/3 138/3/3 137/3/3
f 156/2/3 137/2/3 155/2/3
f 157/4/3 139/4/3 138/4/3
f 157/3/3 138/3/3 156/3/3
f 158/4/3 139/4/3 157/4/3
f 159/2/3 141/2/3 140/2/3
f 159/4/3 139/4/3 158/4/3
f 159/2/3 140/2/3 139/2/3
f 160/4/3 142/4/3 141/4/3
f 160/2/3 141/2/3 159/2/3
f 160/4/3 143/4/3 142/4/3
f 161/4/3 143/4/3 160/4/3
f 162/2/3 144/2/3 143/2/3
f 162/4/3 143/4/3 161/4/3
f 163/2/3 147/2/3 146/2/3
f 163/2/3 148/2/3 147/2/3
f 163/2/3 149/2/3 148/2/3
f 163/4/3 145/4/3 144/4/3
f 163/4/3 146/4/3 145/4/3
f 164/2/3 149/2/3 163/2/3
f 165/2/3 149/2/3 164/2/3
f 166/4/3 153/4/3 152/4/3
f 166/2/3 149/2/3 165/2/3
f 166/4/3 150/4/3 149/4/3
f 166/4/3 151/4/3 150/4/3
f 166/4/3 152/4/3 151/4/3
f 167/4/3 153/4/3 166/4/3
f 168/4/3 153/4/3 167/4/3
f 169/1/3 134/1/3 153/1/3
f 169/4/3 153/4/3 168/4/3
f 170/1/3 134/1/3 169/1/3
f 171/1/3 155/1/3 154/1/3
f 171/1/3 154/1/3 110/1/3
f 172/1/3 155/1/3 171/1/3
f 173/2/3 156/2/3 155/2/3
f 173/1/3 155/1/3 172/1/3
f 173/2/3 157/2/3 156/2/3
f 174/2/3 157/2/3 173/2/3
f 175/3/3 158/3/3 157/3/3
f 175/2/3 157/2/3 174/2/3
f 176/4/3 159/4/3 158/4/3
f 176/3/3 158/3/3 175/3/3
f 177/1/3 160/1/3 159/1/3
f 177/4/3 159/4/3 176/4/3
f 178/1/3 160/1/3 177/1/3
f 179/4/3 161/4/3 160/4/3
f 179/1/3 160/1/3 178/1/3
f 180/2/3 162/2/3 161/2/3
f 180/4/3 161/4/3 179/4/3
f 181/2/3 162/2/3 180/2/3
f 182/2/3 144/2/3 162/2/3
f 182/2/3 162/2/3 181/2/3
f 182/4/3 163/4/3 144/4/3
f 183/3/3 164/3/3 163/3/3
f 183/4/3 163/4/3 182/4/3
f 184/2/3 165/2/3 164/2/3
f 184/3/3 164/3/3 183/3/3
f 185/2/3 165/2/3 184/2/3
f 186/1/3 166/1/3 165/1/3
f 186/2/3 165/2/3 185/2/3
f 187/2/3 167/2/3 166/2/3
f 187/1/3 166/1/3 186/1/3
f 188/1/3 168/1/3 167/1/3
f 188/2/3 167/2/3 187/2/3
f 189/4/3 169/4/3 168/4/3
f 189/1/3 168/1/3 188/1/3
f 190/2/3 170/2/3 169/2/3
f 190/4/3 169/4/3 189/4/3
f 191/2/3 170/2/3 190/2/3
f 192/1/3 174/1/3 173/1/3
f 192/1/3 173/1/3 172/1/3
f 193/1/3 174/1/3 192/1/3
f 194/1/3 174/1/3 193/1/3
f 195/2/3 175/2/3 174/2/3
f 195/1/3 174/1/3 194/1/3
f 195/2/3 176/2/3 175/2/3
f 196/3/3 178/3/3 177/3/3
f 196/2/3 176/2/3 195/2/3
f 196/3/3 177/3/3 176/3/3
f 197/2/3 181/2/3 180/2/3
f 197/3/3 178/3/3 196/3/3
f 197/2/3 179/2/3 178/2/3
f 197/2/3 180/2/3 179/2/3
f 198/4/3 182/4/3 181/4/3
f 198/2/3 181/2/3 197/2/3
f 199/3/3 183/3/3 182/3/3
f 199/4/3 182/4/3 198/4/3
f 200/2/3 184/2/3 183/2/3
f 200/3/3 183/3/3 199/3/3
f 200/2/3 185/2/3 184/2/3
f 201/2/3 185/2/3 200/2/3
f 202/1/3 186/1/3 185/1/3
f 202/2/3 185/2/3 201/2/3
f 203/2/3 187/2/3 186/2/3
f 204/1/3 188/1/3 187/1/3
f 204/2/3 187/2/3 203/2/3
f 205/2/3 189/2/3 188/2/3
f 205/1/3 188/1/3 204/1/3
f 206/1/3 190/1/3 189/1/3
f 206/2/3 189/2/3 205/2/3
f 207/2/3 193/2/3 192/2/3
f 208/4/3 194/4/3 193/4/3
f 208/2/3 193/2/3 207/2/3
f 209/2/3 195/2/3 194/2/3
f 209/4/3 194/4/3 208/4/3
f 210/1/3 196/1/3 195/1/3
f 210/2/3 195/2/3 209/2/3
f 211/2/3 197/2/3 196/2/3
f 211/1/3 196/1/3 210/1/3
f 212/3/3 198/3/3 197/3/3
f 212/2/3 197/2/3 211/2/3
f 212/3/3 199/3/3 198/3/3
f 213/2/3 201/2/3 200/2/3
f 213/3/3 199/3/3 212/3/3
f 213/2/3 200/2/3 199/2/3
f 214/1/3 202/1/3 201/1/3
f 214/2/3 201/2/3 213/2/3
f 215/1/3 202/1/3 214/1/3
f 216/1/3 186/1/3 202/1/3
f 216/1/3 202/1/3 215/1/3
f 216/2/3 203/2/3 186/2/3
f 217/1/3 205/1/3 204/1/3
f 217/1/3 190/1/3 206/1/3
f 217/1/3 206/1/3 205/1/3
f 217/1/3 204/1/3 203/1/3
f 218/1/3 190/1/3 217/1/3
f 219/2/3 209/2/3 208/2/3
f 220/1/3 211/1/3 210/1/3
f 220/2/3 209/2/3 219/2/3
f 220/1/3 210/1/3 209/1/3
f 220/1/3 212/1/3 211/1/3
f 221/1/3 212/1/3 220/1/3
f 222/2/3 213/2/3 212/2/3
f 222/1/3 212/1/3 221/1/3
f 223/1/3 215/1/3 214/1/3
f 223/2/3 213/2/3 222/2/3
f 223/1/3 214/1/3 213/1/3
f 224/1/3 215/1/3 223/1/3
f 225/1/3 215/1/3 224/1/3
f 226/2/3 216/2/3 215/2/3
f 226/1/3 215/1/3 225/1/3
f 227/2/3 203/2/3 216/2/3
f 227/2/3 216/2/3 226/2/3
f 227/1/3 217/1/3 203/1/3
f 228/1/3 217/1/3 227/1/3
f 229/1/3 217/1/3 228/1/3
f 230/1/3 222/1/3 221/1/3
f 230/1/3 224/1/3 223/1/3
f 230/1/3 223/1/3 222/1/3
f 231/2/3 225/2/3 224/2/3
f 231/1/3 224/1/3 230/1/3
f 232/1/3 226/1/3 225/1/3
f 232/2/3 225/2/3 231/2/3
f 232/1/3 228/1/3 227/1/3
f 232/1/3 227/1/3 226/1/3
f 233/1/3 228/1/3 232/1/3
f 234/1/4 235/1/4 238/1/4
f 238/1/4 235/1/4 239/1/4
f 239/1/4 235/1/4 240/1/4
f 240/1/4 235/1/4 241/1/4
f 241/1/4 235/1/4 242/1/4
f 242/1/4 235/1/4 243/1/4
f 236/1/4 237/1/4 246/1/4
f 237/2/4 238/2/4 247/2/4
f 246/1/4 237/1/4 247/1/4
f 238/1/4 239/1/4 248/1/4
f 247/2/4 238/2/4 248/2/4
f 248/1/4 239/1/4 249/1/4
f 239/2/4 240/2/4 250/2/4
f 249/1/4 239/1/4 250/1/4
f 250/2/4 240/2/4 251/2/4
f 251/2/4 240/2/4 252/2/4
f 240/1/4 241/1/4 253/1/4
f 252/2/4 240/2/4 253/2/4
f 253/1/4 241/1/4 254/1/4
f 241/2/4 242/2/4 255/2/4
f 254/1/4 241/1/4 255/1/4
f 255/2/4 242/2/4 256/2/4
f 243/1/4 244/1/4 257/1/4
f 256/2/4 242/2/4 257/2/4
f 242/1/4 243/1/4 257/1/4
f 257/1/4 244/1/4 258/1/4
f 245/2/4 246/2/4 260/2/4
f 246/2/4 247/2/4 260/2/4
f 248/1/4 249/1/4 261/1/4
f 260/2/4 247/2/4 261/2/4
f 247/1/4 248/1/4 261/1/4
f 261/1/4 249/1/4 262/1/4
f 249/2/4 250/2/4 263/2/4
f 262/1/4 249/1/4 263/1/4
f 263/2/4 250/2/4 264/2/4
f 250/3/4 251/3/4 265/3/4
f 264/2/4 250/2/4 265/2/4
f 265/3/4 251/3/4 266/3/4
f 251/2/4 252/2/4 267/2/4
f 266/3/4 251/3/4 267/3/4
f 267/2/4 252/2/4 268/2/4
f 252/3/4 253/3/4 269/3/4
f 268/2/4 252/2/4 269/2/4
f 253/2/4 254/2/4 270/2/4
f 269/3/4 253/3/4 270/3/4
f 270/2/4 254/2/4 271/2/4
f 254/1/4 255/1/4 272/1/4
f 271/2/4 254/2/4 272/2/4
f 255/4/4 256/4/4 273/4/4
f 272/1/4 255/1/4 273/1/4
f 258/1/4 259/1/4 274/1/4
f 273/4/4 256/4/4 274/4/4
f 257/1/4 258/1/4 274/1/4
f 256/1/4 257/1/4 274/1/4
f 274/1/4 259/1/4 275/1/4
f 275/1/4 259/1/4 276/1/4
f 276/1/4 259/1/4 277/1/4
f 277/1/4 259/1/4 278/1/4
f 261/1/4 262/1/4 280/1/4
f 260/1/4 261/1/4 280/1/4
f 280/1/4 262/1/4 281/1/4
f 262/2/4 263/2/4 282/2/4
f 281/1/4 262/1/4 282/1/4
f 282/2/4 263/2/4 283/2/4
f 263/1/4 264/1/4 284/1/4
f 283/2/4 263/2/4 284/2/4
f 264/3/4 265/3/4 285/3/4
f 284/1/4 264/1/4 285/1/4
f 265/4/4 266/4/4 286/4/4
f 285/3/4 265/3/4 286/3/4
f 266/2/4 267/2/4 287/2/4
f 286/4/4 266/4/4 287/4/4
f 267/2/4 268/2/4 287/2/4
f 287/2/4 268/2/4 288/2/4
f 269/1/4 270/1/4 289/1/4
f 288/2/4 268/2/4 289/2/4
f 268/1/4 269/1/4 289/1/4
f 289/1/4 270/1/4 290/1/4
f 270/3/4 271/3/4 291/3/4
f 290/1/4 270/1/4 291/1/4
f 291/3/4 271/3/4 292/3/4
f 271/2/4 272/2/4 293/2/4
f 292/3/4 271/3/4 293/3/4
f 272/2/4 273/2/4 293/2/4
f 273/2/4 274/2/4 293/2/4
f 293/2/4 274/2/4 294/2/4
f 274/1/4 275/1/4 295/1/4
f 294/2/4 274/2/4 295/2/4
f 275/2/4 276/2/4 296/2/4
f 295/1/4 275/1/4 296/1/4
f 276/1/4 277/1/4 297/1/4
f 296/2/4 276/2/4 297/2/4
f 297/1/4 277/1/4 298/1/4
f 277/2/4 278/2/4 299/2/4
f 298/1/4 277/1/4 299/1/4
f 299/2/4 278/2/4 300/2/4
f 278/1/4 259/1/4 301/1/4
f 300/2/4 278/2/4 301/2/4
f 301/1/4 259/1/4 302/1/4
f 280/1/4 281/1/4 304/1/4
f 279/1/4 280/1/4 304/1/4
f 282/2/4 283/2/4 305/2/4
f 304/1/4 281/1/4 305/1/4
f 281/2/4 282/2/4 305/2/4
f 305/2/4 283/2/4 306/2/4
f 284/1/4 285/1/4 307/1/4
f 306/2/4 283/2/4 307/2/4
f 283/1/4 284/1/4 307/1/4
f 285/4/4 286/4/4 308/4/4
f 307/1/4 285/1/4 308/1/4
f 287/2/4 288/2/4 309/2/4
f 308/4/4 286/4/4 309/4/4
f 286/2/4 287/2/4 309/2/4
f 309/2/4 288/2/4 310/2/4
f 289/4/4 290/4/4 311/4/4
f 310/2/4 288/2/4 311/2/4
f 288/4/4 289/4/4 311/4/4
f 291/1/4 292/1/4 312/1/4
f 311/4/4 290/4/4 312/4/4
f 290/1/4 291/1/4 312/1/4
f 312/1/4 292/1/4 313/1/4
f 292/4/4 293/4/4 314/4/4
f 313/1/4 292/1/4 314/1/4
f 293/3/4 294/3/4 315/3/4
f 314/4/4 293/4/4 315/4/4
f 294/2/4 295/2/4 316/2/4
f 315/3/4 294/3/4 316/3/4
f 295/2/4 296/2/4 316/2/4
f 296/1/4 297/1/4 317/1/4
f 316/2/4 296/2/4 317/2/4
f 297/1/4 298/1/4 317/1/4
f 298/2/4 299/2/4 318/2/4
f 317/1/4 298/1/4 318/1/4
f 299/1/4 300/1/4 319/1/4
f 318/2/4 299/2/4 319/2/4
f 300/4/4 301/4/4 320/4/4
f 319/1/4 300/1/4 320/1/4
f 302/1/4 303/1/4 321/1/4
f 320/4/4 301/4/4 321/4/4
f 301/1/4 302/1/4 321/1/4
f 321/1/4 303/1/4 322/1/4
f 305/2/4 306/2/4 323/2/4
f 279/1/4 304/1/4 323/1/4
f 304/2/4 305/2/4 323/2/4
f 323/2/4 306/2/4 324/2/4
f 306/3/4 307/3/4 325/3/4
f 324/2/4 306/2/4 325/2/4
f 307/4/4 308/4/4 326/4/4
f 325/3/4 307/3/4 326/3/4
f 326/4/4 308/4/4 327/4/4
f 309/2/4 310/2/4 328/2/4
f 327/4/4 308/4/4 328/4/4
f 308/2/4 309/2/4 328/2/4
f 310/4/4 311/4/4 329/4/4
f 328/2/4 310/2/4 329/2/4
f 311/4/4 312/4/4 329/4/4
f 329/4/4 312/4/4 330/4/4
f 312/2/4 313/2/4 331/2/4
f 330/4/4 312/4/4 331/4/4
f 315/2/4 316/2/4 332/2/4
f 316/2/4 317/2/4 332/2/4
f 317/2/4 318/2/4 332/2/4
f 313/4/4 314/4/4 332/4/4
f 314/4/4 315/4/4 332/4/4
f 332/2/4 318/2/4 333/2/4
f 333/2/4 318/2/4 334/2/4
f 321/4/4 322/4/4 335/4/4
f 334/2/4 318/2/4 335/2/4
f 318/4/4 319/4/4 335/4/4
f 319/4/4 320/4/4 335/4/4
f 320/4/4 321/4/4 335/4/4
f 335/4/4 322/4/4 336/4/4
f 336/4/4 322/4/4 337/4/4
f 322/1/4 303/1/4 338/1/4
f 337/4/4 322/4/4 338/4/4
f 338/1/4 303/1/4 339/1/4
f 323/1/4 324/1/4 340/1/4
f 279/1/4 323/1/4 340/1/4
f 340/1/4 324/1/4 341/1/4
f 324/2/4 325/2/4 342/2/4
f 341/1/4 324/1/4 342/1/4
f 325/2/4 326/2/4 342/2/4
f 342/2/4 326/2/4 343/2/4
f 326/3/4 327/3/4 344/3/4
f 343/2/4 326/2/4 344/2/4
f 327/4/4 328/4/4 345/4/4
f 344/3/4 327/3/4 345/3/4
f 328/1/4 329/1/4 346/1/4
f 345/4/4 328/4/4 346/4/4
f 346/1/4 329/1/4 347/1/4
f 329/4/4 330/4/4 348/4/4
f 347/1/4 329/1/4 348/1/4
f 330/2/4 331/2/4 349/2/4
f 348/4/4 330/4/4 349/4/4
f 349/2/4 331/2/4 350/2/4
f 331/2/4 313/2/4 351/2/4
f 350/2/4 331/2/4 351/2/4
f 313/4/4 332/4/4 351/4/4
f 332/3/4 333/3/4 352/3/4
f 351/4/4 332/4/4 352/4/4
f 333/2/4 334/2/4 353/2/4
f 352/3/4 333/3/4 353/3/4
f 353/2/4 334/2/4 354/2/4
f 334/1/4 335/1/4 355/1/4
f 354/2/4 334/2/4 355/2/4
f 335/2/4 336/2/4 356/2/4
f 355/1/4 335/1/4 356/1/4
f 336/1/4 337/1/4 357/1/4
f 356/2/4 336/2/4 357/2/4
f 337/4/4 338/4/4 358/4/4
f 357/1/4 337/1/4 358/1/4
f 338/2/4 339/2/4 359/2/4
f 358/4/4 338/4/4 359/4/4
f 359/2/4 339/2/4 360/2/4
f 342/1/4 343/1/4 361/1/4
f 341/1/4 342/1/4 361/1/4
f 361/1/4 343/1/4 362/1/4
f 362/1/4 343/1/4 363/1/4
f 343/2/4 344/2/4 364/2/4
f 363/1/4 343/1/4 364/1/4
f 344/2/4 345/2/4 364/2/4
f 346/3/4 347/3/4 365/3/4
f 364/2/4 345/2/4 365/2/4
f 345/3/4 346/3/4 365/3/4
f 349/2/4 350/2/4 366/2/4
f 365/3/4 347/3/4 366/3/4
f 347/2/4 348/2/4 366/2/4
f 348/2/4 349/2/4 366/2/4
f 350/4/4 351/4/4 367/4/4
f 366/2/4 350/2/4 367/2/4
f 351/3/4 352/3/4 368/3/4
f 367/4/4 351/4/4 368/4/4
f 352/2/4 353/2/4 369/2/4
f 368/3/4 352/3/4 369/3/4
f 353/2/4 354/2/4 369/2/4
f 369/2/4 354/2/4 370/2/4
f 354/1/4 355/1/4 371/1/4
f 370/2/4 354/2/4 371/2/4
f 355/2/4 356/2/4 372/2/4
f 356/1/4 357/1/4 373/1/4
f 372/2/4 356/2/4 373/2/4
f 357/2/4 358/2/4 374/2/4
f 373/1/4 357/1/4 374/1/4
f 358/1/4 359/1/4 375/1/4
f 374/2/4 358/2/4 375/2/4
f 361/2/4 362/2/4 376/2/4
f 362/4/4 363/4/4 377/4/4
f 376/2/4 362/2/4 377/2/4
f 363/2/4 364/2/4 378/2/4
f 377/4/4 363/4/4 378/4/4
f 364/1/4 365/1/4 379/1/4
f 378/2/4 364/2/4 379/2/4
f 365/2/4 366/2/4 380/2/4
f 379/1/4 365/1/4 380/1/4
f 366/3/4 367/3/4 381/3/4
f 380/2/4 366/2/4 381/2/4
f 367/3/4 368/3/4 381/3/4
f 369/2/4 370/2/4 382/2/4
f 381/3/4 368/3/4 382/3/4
f 368/2/4 369/2/4 382/2/4
f 370/1/4 371/1/4 383/1/4
f 382/2/4 370/2/4 383/2/4
f 383/1/4 371/1/4 384/1/4
f 371/1/4 355/1/4 385/1/4
f 384/1/4 371/1/4 385/1/4
f 355/2/4 372/2/4 385/2/4
f 373/1/4 374/1/4 386/1/4
f 375/1/4 359/1/4 386/1/4
f 374/1/4 375/1/4 386/1/4
f 372/1/4 373/1/4 386/1/4
f 386/1/4 359/1/4 387/1/4
f 377/2/4 378/2/4 388/2/4
f 379/1/4 380/1/4 389/1/4
f 388/2/4 378/2/4 389/2/4
f 378/1/4 379/1/4 389/1/4
f 380/1/4 381/1/4 389/1/4
f 389/1/4 381/1/4 390/1/4
f 381/2/4 382/2/4 391/2/4
f 390/1/4 381/1/4 391/1/4
f 383/1/4 384/1/4 392/1/4
f 391/2/4 382/2/4 392/2/4
f 382/1/4 383/1/4 392/1/4
f 392/1/4 384/1/4 393/1/4
f 393/1/4 384/1/4 394/1/4
f 384/2/4 385/2/4 395/2/4
f 394/1/4 384/1/4 395/1/4
f 385/2/4 372/2/4 396/2/4
f 395/2/4 385/2/4 396/2/4
f 372/1/4 386/1/4 396/1/4
f 396/1/4 386/1/4 397/1/4
f 397/1/4 386/1/4 398/1/4
f 390/1/4 391/1/4 399/1/4
f 392/1/4 393/1/4 399/1/4
f 391/1/4 392/1/4 399/1/4
f 393/2/4 394/2/4 400/2/4
f 399/1/4 393/1/4 400/1/4
f 394/1/4 395/1/4 401/1/4
f 400/2/4 394/2/4 401/2/4
f 396/1/4 397/1/4 401/1/4
f 395/1/4 396/1/4 401/1/4
f 401/1/4 397/1/4 402/1/4
f 405/1/5 404/1/5 403/1/5
f 406/1/5 404/1/5 405/1/5
f 413/2/5 408/2/5 407/2/5
f 414/1/5 409/1/5 408/1/5
f 414/2/5 408/2/5 413/2/5
f 415/1/5 409/1/5 414/1/5
f 416/1/5 411/1/5 410/1/5
f 417/2/5 412/2/5 411/2/5
f 417/1/5 411/1/5 416/1/5
f 418/2/5 412/2/5 417/2/5
f 423/1/5 420/1/5 419/1/5
f 424/1/5 420/1/5 423/1/5
f 425/2/5 422/2/5 421/2/5
f 426/2/5 422/2/5 425/2/5
f 431/1/5 428/1/5 427/1/5
f 432/1/5 428/1/5 431/1/5
f 433/1/5 430/1/5 429/1/5
f 434/1/5 430/1/5 433/1/5
f 435/1/6 436/1/6 439/1/6
f 439/1/6 436/1/6 440/1/6
f 437/1/6 438/1/6 441/1/6
f 441/1/6 438/1/6 442/1/6
f 443/1/6 444/1/6 447/1/6
f 447/1/6 444/1/6 448/1/6
f 445/1/6 446/1/6 449/1/6
f 449/1/6 446/1/6 450/1/6
f 451/1/6 452/1/6 455/1/6
f 455/1/6 452/1/6 456/1/6
f 453/1/6 454/1/6 457/1/6
f 457/1/6 454/1/6 458/1/6
f 459/1/6 460/1/6 462/1/6
f 460/2/6 461/2/6 463/2/6
f 462/1/6 460/1/6 463/1/6
f 463/2/6 461/2/6 464/2/6
