# MagicaVoxel @ Ephtracy

# material
mtllib ”“ ÷.mtl
usemtl palette

# normals
vn -1 0 0
vn 1 0 0
vn 0 0 1
vn 0 0 -1
vn 0 -1 0
vn 0 1 0

# texcoords
vt 0.908203 0.5
vt 0.912109 0.5
vt 0.916016 0.5
vt 0.939453 0.5
vt 0.943359 0.5
vt 0.970703 0.5

# verts
v 0 15 6
v 0 15 3
v 0 16 4
v 0 16 3
v 0 17 6
v 0 17 4
v 1 14 8
v 1 14 3
v 1 15 8
v 1 15 7
v 1 15 6
v 1 15 3
v 1 16 7
v 1 16 6
v 1 16 4
v 1 16 3
v 1 17 7
v 1 17 6
v 1 17 4
v 1 17 3
v 2 10 9
v 2 10 8
v 2 10 6
v 2 11 10
v 2 11 9
v 2 11 8
v 2 11 6
v 2 11 5
v 2 12 10
v 2 12 9
v 2 12 8
v 2 12 7
v 2 12 6
v 2 12 5
v 2 12 4
v 2 13 7
v 2 13 6
v 2 13 4
v 2 13 1
v 2 14 6
v 2 14 3
v 2 15 2
v 2 15 1
v 2 16 3
v 2 16 2
v 2 17 6
v 2 17 3
v 2 18 6
v 2 18 3
v 3 16 8
v 3 16 7
v 3 16 6
v 3 16 3
v 3 16 2
v 3 16 1
v 3 18 8
v 3 18 6
v 3 18 3
v 3 18 1
v 3 19 6
v 3 19 3
v 4 15 9
v 4 15 7
v 4 15 6
v 4 15 3
v 4 15 2
v 4 15 -0
v 4 16 9
v 4 16 8
v 4 16 6
v 4 16 3
v 4 16 1
v 4 16 -0
v 5 11 10
v 5 11 9
v 5 12 10
v 5 12 9
v 5 14 8
v 5 14 7
v 5 14 6
v 5 14 3
v 5 14 2
v 5 14 1
v 5 15 8
v 5 15 7
v 5 15 6
v 5 15 3
v 5 15 2
v 5 15 1
v 6 11 5
v 6 11 4
v 6 12 5
v 6 12 4
v 6 12 3
v 6 13 7
v 6 13 6
v 6 13 4
v 6 13 3
v 6 13 2
v 6 14 7
v 6 14 6
v 6 14 3
v 6 14 2
v 2 14 8
v 2 14 7
v 2 15 8
v 2 15 7
v 2 16 7
v 2 16 6
v 2 17 7
v 2 17 6
v 3 11 10
v 3 11 9
v 3 12 10
v 3 12 9
v 3 14 2
v 3 14 1
v 3 15 7
v 3 15 6
v 3 15 3
v 3 15 2
v 3 15 1
v 3 16 7
v 3 16 6
v 3 16 3
v 3 16 2
v 4 13 2
v 4 13 1
v 4 14 7
v 4 14 6
v 4 14 3
v 4 14 2
v 4 14 1
v 4 15 7
v 4 15 6
v 4 15 3
v 4 15 2
v 4 16 8
v 4 16 7
v 4 16 2
v 4 16 1
v 4 17 7
v 4 17 6
v 4 17 3
v 4 17 2
v 4 18 8
v 4 18 6
v 4 18 3
v 4 18 1
v 4 19 6
v 4 19 3
v 5 13 3
v 5 13 2
v 5 14 3
v 5 14 2
v 5 15 9
v 5 15 8
v 5 15 7
v 5 15 2
v 5 15 1
v 5 15 -0
v 5 16 9
v 5 16 7
v 5 16 6
v 5 16 3
v 5 16 2
v 5 16 -0
v 5 17 7
v 5 17 6
v 5 17 5
v 5 17 4
v 5 17 3
v 5 17 2
v 5 18 6
v 5 18 3
v 6 10 9
v 6 10 8
v 6 10 6
v 6 11 10
v 6 11 9
v 6 11 8
v 6 11 6
v 6 11 5
v 6 12 10
v 6 12 9
v 6 12 8
v 6 12 7
v 6 12 6
v 6 12 5
v 6 13 7
v 6 13 6
v 6 14 8
v 6 14 7
v 6 14 6
v 6 14 3
v 6 14 2
v 6 14 1
v 6 15 8
v 6 15 7
v 6 15 6
v 6 15 5
v 6 15 4
v 6 15 3
v 6 15 2
v 6 15 1
v 6 16 7
v 6 16 6
v 6 16 5
v 6 16 4
v 6 16 3
v 6 16 2
v 6 17 6
v 6 17 5
v 6 17 4
v 6 17 3
v 7 11 5
v 7 11 4
v 7 12 6
v 7 12 5
v 7 12 4
v 7 12 3
v 7 13 7
v 7 13 6
v 7 13 5
v 7 13 4
v 7 13 3
v 7 13 2
v 7 14 7
v 7 14 6
v 7 14 5
v 7 14 4
v 7 14 3
v 7 14 2
v 7 15 6
v 7 15 5
v 7 15 4
v 7 15 3
v 7 16 5
v 7 16 4
v 8 13 5
v 8 13 4
v 8 14 5
v 8 14 4
v 2 11 10
v 2 12 10
v 3 11 10
v 3 12 10
v 5 11 10
v 5 12 10
v 6 11 10
v 6 12 10
v 2 10 9
v 2 11 9
v 3 11 9
v 4 15 9
v 4 16 9
v 5 11 9
v 5 15 9
v 5 16 9
v 6 10 9
v 6 11 9
v 1 14 8
v 1 15 8
v 2 11 8
v 2 12 8
v 2 14 8
v 2 15 8
v 3 16 8
v 3 18 8
v 4 16 8
v 4 18 8
v 5 14 8
v 5 15 8
v 6 11 8
v 6 12 8
v 6 14 8
v 6 15 8
v 1 15 7
v 1 16 7
v 1 17 7
v 2 12 7
v 2 13 7
v 2 14 7
v 2 15 7
v 2 16 7
v 2 17 7
v 3 12 7
v 3 13 7
v 3 14 7
v 3 15 7
v 3 16 7
v 4 12 7
v 4 13 7
v 4 14 7
v 4 15 7
v 4 16 7
v 4 17 7
v 5 12 7
v 5 13 7
v 5 15 7
v 5 16 7
v 5 17 7
v 6 12 7
v 6 13 7
v 6 14 7
v 6 15 7
v 6 16 7
v 7 13 7
v 7 14 7
v 0 15 6
v 0 17 6
v 1 15 6
v 1 16 6
v 1 17 6
v 2 13 6
v 2 14 6
v 2 16 6
v 2 17 6
v 2 18 6
v 3 13 6
v 3 14 6
v 3 15 6
v 3 16 6
v 3 18 6
v 3 19 6
v 4 13 6
v 4 14 6
v 4 15 6
v 4 16 6
v 4 17 6
v 4 18 6
v 4 19 6
v 5 13 6
v 5 14 6
v 5 15 6
v 5 16 6
v 5 17 6
v 5 18 6
v 6 12 6
v 6 13 6
v 6 14 6
v 6 15 6
v 6 16 6
v 6 17 6
v 7 12 6
v 7 13 6
v 7 14 6
v 7 15 6
v 6 11 5
v 6 12 5
v 6 15 5
v 6 16 5
v 7 11 5
v 7 12 5
v 7 13 5
v 7 14 5
v 7 15 5
v 7 16 5
v 8 13 5
v 8 14 5
v 2 11 9
v 2 12 9
v 3 11 9
v 3 12 9
v 5 11 9
v 5 12 9
v 6 11 9
v 6 12 9
v 2 10 6
v 2 11 6
v 6 10 6
v 6 11 6
v 2 11 5
v 2 12 5
v 6 11 5
v 6 12 5
v 0 16 4
v 0 17 4
v 1 16 4
v 1 17 4
v 2 12 4
v 2 13 4
v 6 11 4
v 6 12 4
v 6 13 4
v 6 15 4
v 6 16 4
v 7 11 4
v 7 12 4
v 7 13 4
v 7 14 4
v 7 15 4
v 7 16 4
v 8 13 4
v 8 14 4
v 0 15 3
v 0 16 3
v 1 14 3
v 1 15 3
v 1 16 3
v 1 17 3
v 2 14 3
v 2 16 3
v 2 17 3
v 2 18 3
v 3 15 3
v 3 16 3
v 3 18 3
v 3 19 3
v 4 14 3
v 4 15 3
v 4 16 3
v 4 17 3
v 4 18 3
v 4 19 3
v 5 13 3
v 5 14 3
v 5 15 3
v 5 16 3
v 5 17 3
v 5 18 3
v 6 12 3
v 6 13 3
v 6 14 3
v 6 15 3
v 6 16 3
v 6 17 3
v 7 12 3
v 7 13 3
v 7 14 3
v 7 15 3
v 2 15 2
v 2 16 2
v 3 14 2
v 3 15 2
v 3 16 2
v 4 13 2
v 4 14 2
v 4 15 2
v 4 16 2
v 4 17 2
v 5 13 2
v 5 14 2
v 5 15 2
v 5 16 2
v 5 17 2
v 6 13 2
v 6 14 2
v 6 15 2
v 6 16 2
v 7 13 2
v 7 14 2
v 2 13 1
v 2 15 1
v 3 14 1
v 3 15 1
v 3 16 1
v 3 18 1
v 4 13 1
v 4 14 1
v 4 16 1
v 4 18 1
v 5 14 1
v 5 15 1
v 6 14 1
v 6 15 1
v 4 15 -0
v 4 16 -0
v 5 15 -0
v 5 16 -0
v 2 10 9
v 6 10 9
v 2 10 8
v 6 10 8
v 2 10 6
v 6 10 6
v 2 11 10
v 3 11 10
v 5 11 10
v 6 11 10
v 2 11 9
v 3 11 9
v 5 11 9
v 6 11 9
v 2 11 6
v 6 11 6
v 2 11 5
v 6 11 5
v 7 11 5
v 6 11 4
v 7 11 4
v 6 12 6
v 7 12 6
v 2 12 5
v 6 12 5
v 7 12 5
v 2 12 4
v 6 12 4
v 7 12 4
v 6 12 3
v 7 12 3
v 6 13 7
v 7 13 7
v 6 13 6
v 7 13 6
v 7 13 5
v 8 13 5
v 2 13 4
v 6 13 4
v 7 13 4
v 8 13 4
v 5 13 3
v 6 13 3
v 7 13 3
v 4 13 2
v 5 13 2
v 6 13 2
v 7 13 2
v 2 13 1
v 4 13 1
v 1 14 8
v 2 14 8
v 5 14 8
v 6 14 8
v 2 14 7
v 3 14 7
v 4 14 7
v 5 14 7
v 6 14 7
v 2 14 6
v 3 14 6
v 4 14 6
v 5 14 6
v 6 14 6
v 1 14 3
v 2 14 3
v 5 14 3
v 6 14 3
v 5 14 2
v 6 14 2
v 5 14 1
v 6 14 1
v 4 15 9
v 5 15 9
v 5 15 8
v 4 15 7
v 5 15 7
v 0 15 6
v 1 15 6
v 4 15 6
v 5 15 6
v 0 15 3
v 1 15 3
v 4 15 3
v 5 15 3
v 4 15 2
v 5 15 2
v 5 15 1
v 4 15 -0
v 5 15 -0
v 3 16 8
v 4 16 8
v 3 16 7
v 3 16 6
v 4 16 6
v 3 16 3
v 4 16 3
v 3 16 2
v 3 16 1
v 4 16 1
v 2 11 9
v 3 11 9
v 5 11 9
v 6 11 9
v 2 11 8
v 6 11 8
v 2 12 10
v 3 12 10
v 5 12 10
v 6 12 10
v 2 12 9
v 3 12 9
v 5 12 9
v 6 12 9
v 2 12 8
v 6 12 8
v 2 12 7
v 3 12 7
v 4 12 7
v 5 12 7
v 6 12 7
v 2 13 7
v 3 13 7
v 4 13 7
v 5 13 7
v 6 13 7
v 2 13 6
v 3 13 6
v 4 13 6
v 5 13 6
v 6 13 6
v 6 14 7
v 7 14 7
v 6 14 6
v 7 14 6
v 7 14 5
v 8 14 5
v 7 14 4
v 8 14 4
v 4 14 3
v 5 14 3
v 6 14 3
v 7 14 3
v 3 14 2
v 4 14 2
v 5 14 2
v 6 14 2
v 7 14 2
v 3 14 1
v 4 14 1
v 1 15 8
v 2 15 8
v 5 15 8
v 6 15 8
v 1 15 7
v 2 15 7
v 3 15 7
v 4 15 7
v 5 15 7
v 6 15 7
v 3 15 6
v 4 15 6
v 6 15 6
v 7 15 6
v 6 15 5
v 7 15 5
v 6 15 4
v 7 15 4
v 3 15 3
v 4 15 3
v 6 15 3
v 7 15 3
v 2 15 2
v 3 15 2
v 4 15 2
v 5 15 2
v 6 15 2
v 2 15 1
v 3 15 1
v 5 15 1
v 6 15 1
v 4 16 9
v 5 16 9
v 4 16 8
v 2 16 7
v 3 16 7
v 4 16 7
v 5 16 7
v 6 16 7
v 2 16 6
v 3 16 6
v 5 16 6
v 6 16 6
v 6 16 5
v 7 16 5
v 0 16 4
v 1 16 4
v 6 16 4
v 7 16 4
v 0 16 3
v 1 16 3
v 2 16 3
v 3 16 3
v 5 16 3
v 6 16 3
v 2 16 2
v 3 16 2
v 4 16 2
v 5 16 2
v 6 16 2
v 4 16 1
v 4 16 -0
v 5 16 -0
v 1 17 7
v 2 17 7
v 4 17 7
v 5 17 7
v 0 17 6
v 1 17 6
v 2 17 6
v 4 17 6
v 5 17 6
v 6 17 6
v 5 17 5
v 6 17 5
v 0 17 4
v 1 17 4
v 5 17 4
v 6 17 4
v 1 17 3
v 2 17 3
v 4 17 3
v 5 17 3
v 6 17 3
v 4 17 2
v 5 17 2
v 3 18 8
v 4 18 8
v 2 18 6
v 3 18 6
v 4 18 6
v 5 18 6
v 2 18 3
v 3 18 3
v 4 18 3
v 5 18 3
v 3 18 1
v 4 18 1
v 3 19 6
v 4 19 6
v 3 19 3
v 4 19 3

# faces
f 3/6/1 2/6/1 1/6/1
f 4/6/1 2/6/1 3/6/1
f 5/6/1 3/6/1 1/6/1
f 6/6/1 3/6/1 5/6/1
f 9/6/1 8/6/1 7/6/1
f 10/6/1 8/6/1 9/6/1
f 11/6/1 8/6/1 10/6/1
f 12/6/1 8/6/1 11/6/1
f 13/6/1 11/6/1 10/6/1
f 14/6/1 11/6/1 13/6/1
f 17/1/1 14/1/1 13/1/1
f 18/1/1 14/1/1 17/1/1
f 19/6/1 16/6/1 15/6/1
f 20/6/1 16/6/1 19/6/1
f 25/5/1 22/5/1 21/5/1
f 26/6/1 23/6/1 22/6/1
f 26/5/1 22/5/1 25/5/1
f 27/6/1 23/6/1 26/6/1
f 29/6/1 25/6/1 24/6/1
f 30/6/1 25/6/1 29/6/1
f 31/6/1 28/6/1 27/6/1
f 31/6/1 27/6/1 26/6/1
f 32/6/1 28/6/1 31/6/1
f 33/6/1 28/6/1 32/6/1
f 34/6/1 28/6/1 33/6/1
f 36/2/1 33/2/1 32/2/1
f 37/6/1 35/6/1 34/6/1
f 37/2/1 33/2/1 36/2/1
f 37/6/1 34/6/1 33/6/1
f 38/6/1 35/6/1 37/6/1
f 40/6/1 39/6/1 38/6/1
f 40/6/1 38/6/1 37/6/1
f 41/6/1 39/6/1 40/6/1
f 42/6/1 39/6/1 41/6/1
f 43/6/1 39/6/1 42/6/1
f 44/6/1 42/6/1 41/6/1
f 45/6/1 42/6/1 44/6/1
f 48/6/1 47/6/1 46/6/1
f 49/6/1 47/6/1 48/6/1
f 56/4/1 51/4/1 50/4/1
f 56/4/1 52/4/1 51/4/1
f 57/4/1 52/4/1 56/4/1
f 58/4/1 55/4/1 54/4/1
f 58/4/1 54/4/1 53/4/1
f 59/4/1 55/4/1 58/4/1
f 60/4/1 58/4/1 57/4/1
f 61/4/1 58/4/1 60/4/1
f 68/4/1 63/4/1 62/4/1
f 68/4/1 64/4/1 63/4/1
f 69/4/1 64/4/1 68/4/1
f 70/4/1 64/4/1 69/4/1
f 71/4/1 67/4/1 66/4/1
f 71/4/1 66/4/1 65/4/1
f 72/4/1 67/4/1 71/4/1
f 73/4/1 67/4/1 72/4/1
f 76/6/1 75/6/1 74/6/1
f 77/6/1 75/6/1 76/6/1
f 84/4/1 79/4/1 78/4/1
f 85/3/1 80/3/1 79/3/1
f 85/4/1 79/4/1 84/4/1
f 86/3/1 80/3/1 85/3/1
f 87/3/1 82/3/1 81/3/1
f 88/4/1 83/4/1 82/4/1
f 88/3/1 82/3/1 87/3/1
f 89/4/1 83/4/1 88/4/1
f 92/4/1 91/4/1 90/4/1
f 93/4/1 91/4/1 92/4/1
f 97/4/1 94/4/1 93/4/1
f 98/4/1 94/4/1 97/4/1
f 100/4/1 96/4/1 95/4/1
f 101/4/1 96/4/1 100/4/1
f 102/4/1 99/4/1 98/4/1
f 103/4/1 99/4/1 102/4/1
f 104/6/2 105/6/2 106/6/2
f 106/6/2 105/6/2 107/6/2
f 108/1/2 109/1/2 110/1/2
f 110/1/2 109/1/2 111/1/2
f 112/6/2 113/6/2 114/6/2
f 114/6/2 113/6/2 115/6/2
f 116/6/2 117/6/2 121/6/2
f 121/6/2 117/6/2 122/6/2
f 118/1/2 119/1/2 123/1/2
f 123/1/2 119/1/2 124/1/2
f 120/6/2 121/6/2 125/6/2
f 125/6/2 121/6/2 126/6/2
f 127/6/2 128/6/2 132/6/2
f 132/6/2 128/6/2 133/6/2
f 129/1/2 130/1/2 134/1/2
f 134/1/2 130/1/2 135/1/2
f 131/6/2 132/6/2 136/6/2
f 136/6/2 132/6/2 137/6/2
f 138/4/2 139/4/2 142/4/2
f 140/4/2 141/4/2 145/4/2
f 142/4/2 143/4/2 146/4/2
f 138/4/2 142/4/2 146/4/2
f 146/4/2 143/4/2 147/4/2
f 144/4/2 145/4/2 148/4/2
f 145/4/2 141/4/2 149/4/2
f 148/4/2 145/4/2 149/4/2
f 147/4/2 148/4/2 150/4/2
f 150/4/2 148/4/2 151/4/2
f 152/6/2 153/6/2 154/6/2
f 154/6/2 153/6/2 155/6/2
f 157/4/2 158/4/2 162/4/2
f 156/4/2 157/4/2 162/4/2
f 162/4/2 158/4/2 163/4/2
f 160/4/2 161/4/2 166/4/2
f 159/4/2 160/4/2 166/4/2
f 166/4/2 161/4/2 167/4/2
f 163/3/2 164/3/2 168/3/2
f 168/3/2 164/3/2 169/3/2
f 165/3/2 166/3/2 172/3/2
f 172/3/2 166/3/2 173/3/2
f 170/3/2 171/3/2 174/3/2
f 171/3/2 172/3/2 174/3/2
f 169/3/2 170/3/2 174/3/2
f 174/3/2 172/3/2 175/3/2
f 176/5/2 177/5/2 180/5/2
f 177/6/2 178/6/2 181/6/2
f 180/5/2 177/5/2 181/5/2
f 181/6/2 178/6/2 182/6/2
f 179/6/2 180/6/2 184/6/2
f 184/6/2 180/6/2 185/6/2
f 182/6/2 183/6/2 186/6/2
f 181/6/2 182/6/2 186/6/2
f 186/6/2 183/6/2 187/6/2
f 187/6/2 183/6/2 188/6/2
f 188/6/2 183/6/2 189/6/2
f 187/6/2 188/6/2 190/6/2
f 190/6/2 188/6/2 191/6/2
f 192/4/2 193/4/2 198/4/2
f 193/3/2 194/3/2 199/3/2
f 198/4/2 193/4/2 199/4/2
f 199/3/2 194/3/2 200/3/2
f 195/3/2 196/3/2 203/3/2
f 196/4/2 197/4/2 204/4/2
f 203/3/2 196/3/2 204/3/2
f 204/4/2 197/4/2 205/4/2
f 200/3/2 201/3/2 206/3/2
f 199/3/2 200/3/2 206/3/2
f 206/3/2 201/3/2 207/3/2
f 207/3/2 201/3/2 208/3/2
f 202/3/2 203/3/2 209/3/2
f 203/3/2 204/3/2 209/3/2
f 209/3/2 204/3/2 210/3/2
f 210/3/2 204/3/2 211/3/2
f 207/4/2 208/4/2 212/4/2
f 208/3/2 209/3/2 213/3/2
f 212/4/2 208/4/2 213/4/2
f 209/4/2 210/4/2 214/4/2
f 213/3/2 209/3/2 214/3/2
f 214/4/2 210/4/2 215/4/2
f 216/4/2 217/4/2 219/4/2
f 219/4/2 217/4/2 220/4/2
f 218/4/2 219/4/2 223/4/2
f 219/3/2 220/3/2 224/3/2
f 223/4/2 219/4/2 224/4/2
f 220/4/2 221/4/2 225/4/2
f 224/3/2 220/3/2 225/3/2
f 225/4/2 221/4/2 226/4/2
f 222/4/2 223/4/2 228/4/2
f 223/3/2 224/3/2 229/3/2
f 228/4/2 223/4/2 229/4/2
f 229/3/2 224/3/2 230/3/2
f 225/3/2 226/3/2 231/3/2
f 226/4/2 227/4/2 232/4/2
f 231/3/2 226/3/2 232/3/2
f 232/4/2 227/4/2 233/4/2
f 230/4/2 231/4/2 234/4/2
f 229/4/2 230/4/2 234/4/2
f 231/4/2 232/4/2 234/4/2
f 234/4/2 232/4/2 235/4/2
f 235/4/2 232/4/2 236/4/2
f 236/4/2 232/4/2 237/4/2
f 235/4/2 236/4/2 238/4/2
f 238/4/2 236/4/2 239/4/2
f 240/4/2 241/4/2 242/4/2
f 242/4/2 241/4/2 243/4/2
f 246/6/3 245/6/3 244/6/3
f 247/6/3 245/6/3 246/6/3
f 250/6/3 249/6/3 248/6/3
f 251/6/3 249/6/3 250/6/3
f 254/5/3 253/5/3 252/5/3
f 257/5/3 254/5/3 252/5/3
f 258/4/3 256/4/3 255/4/3
f 259/4/3 256/4/3 258/4/3
f 260/5/3 257/5/3 252/5/3
f 261/5/3 257/5/3 260/5/3
f 266/6/3 263/6/3 262/6/3
f 267/6/3 263/6/3 266/6/3
f 270/4/3 269/4/3 268/4/3
f 271/4/3 269/4/3 270/4/3
f 274/6/3 265/6/3 264/6/3
f 275/6/3 265/6/3 274/6/3
f 276/4/3 273/4/3 272/4/3
f 277/4/3 273/4/3 276/4/3
f 284/6/3 279/6/3 278/6/3
f 285/1/3 280/1/3 279/1/3
f 285/6/3 279/6/3 284/6/3
f 286/1/3 280/1/3 285/1/3
f 287/2/3 282/2/3 281/2/3
f 288/2/3 282/2/3 287/2/3
f 289/6/3 284/6/3 283/6/3
f 290/1/3 285/1/3 284/1/3
f 290/6/3 284/6/3 289/6/3
f 291/1/3 285/1/3 290/1/3
f 292/6/3 288/6/3 287/6/3
f 293/6/3 288/6/3 292/6/3
f 294/1/3 290/1/3 289/1/3
f 295/1/3 290/1/3 294/1/3
f 298/2/3 293/2/3 292/2/3
f 299/2/3 293/2/3 298/2/3
f 301/3/3 297/3/3 296/3/3
f 302/3/3 297/3/3 301/3/3
f 303/6/3 299/6/3 298/6/3
f 304/6/3 299/6/3 303/6/3
f 306/3/3 301/3/3 300/3/3
f 307/3/3 301/3/3 306/3/3
f 308/4/3 305/4/3 304/4/3
f 309/4/3 305/4/3 308/4/3
f 312/6/3 311/6/3 310/6/3
f 313/6/3 311/6/3 312/6/3
f 314/6/3 311/6/3 313/6/3
f 320/6/3 316/6/3 315/6/3
f 321/6/3 316/6/3 320/6/3
f 323/6/3 318/6/3 317/6/3
f 323/6/3 319/6/3 318/6/3
f 324/6/3 319/6/3 323/6/3
f 326/6/3 321/6/3 320/6/3
f 327/6/3 321/6/3 326/6/3
f 328/6/3 323/6/3 322/6/3
f 329/6/3 323/6/3 328/6/3
f 331/4/3 325/4/3 324/4/3
f 332/4/3 325/4/3 331/4/3
f 333/6/3 327/6/3 326/6/3
f 333/6/3 328/6/3 327/6/3
f 334/6/3 328/6/3 333/6/3
f 335/6/3 328/6/3 334/6/3
f 337/3/3 331/3/3 330/3/3
f 338/3/3 331/3/3 337/3/3
f 340/6/3 334/6/3 333/6/3
f 341/6/3 334/6/3 340/6/3
f 343/4/3 337/4/3 336/4/3
f 344/4/3 337/4/3 343/4/3
f 345/4/3 340/4/3 339/4/3
f 346/4/3 340/4/3 345/4/3
f 347/4/3 342/4/3 341/4/3
f 348/4/3 342/4/3 347/4/3
f 353/4/3 350/4/3 349/4/3
f 354/4/3 350/4/3 353/4/3
f 357/4/3 352/4/3 351/4/3
f 358/4/3 352/4/3 357/4/3
f 359/4/3 356/4/3 355/4/3
f 360/4/3 356/4/3 359/4/3
f 361/6/4 362/6/4 363/6/4
f 363/6/4 362/6/4 364/6/4
f 365/6/4 366/6/4 367/6/4
f 367/6/4 366/6/4 368/6/4
f 369/6/4 370/6/4 371/6/4
f 371/6/4 370/6/4 372/6/4
f 373/6/4 374/6/4 375/6/4
f 375/6/4 374/6/4 376/6/4
f 377/6/4 378/6/4 379/6/4
f 379/6/4 378/6/4 380/6/4
f 381/6/4 382/6/4 384/6/4
f 384/6/4 382/6/4 385/6/4
f 383/4/4 384/4/4 388/4/4
f 388/4/4 384/4/4 389/4/4
f 386/4/4 387/4/4 392/4/4
f 392/4/4 387/4/4 393/4/4
f 390/4/4 391/4/4 394/4/4
f 394/4/4 391/4/4 395/4/4
f 396/6/4 397/6/4 399/6/4
f 399/6/4 397/6/4 400/6/4
f 398/6/4 399/6/4 402/6/4
f 400/6/4 401/6/4 402/6/4
f 399/6/4 400/6/4 402/6/4
f 402/6/4 401/6/4 403/6/4
f 403/6/4 401/6/4 404/6/4
f 404/6/4 405/6/4 407/6/4
f 403/6/4 404/6/4 407/6/4
f 407/6/4 405/6/4 408/6/4
f 406/6/4 407/6/4 411/6/4
f 411/6/4 407/6/4 412/6/4
f 408/4/4 409/4/4 414/4/4
f 414/4/4 409/4/4 415/4/4
f 410/6/4 411/6/4 417/6/4
f 417/6/4 411/6/4 418/6/4
f 413/3/4 414/3/4 420/3/4
f 420/3/4 414/3/4 421/3/4
f 416/6/4 417/6/4 423/6/4
f 423/6/4 417/6/4 424/6/4
f 419/4/4 420/4/4 426/4/4
f 426/4/4 420/4/4 427/4/4
f 422/4/4 423/4/4 428/4/4
f 428/4/4 423/4/4 429/4/4
f 424/4/4 425/4/4 430/4/4
f 430/4/4 425/4/4 431/4/4
f 432/6/4 433/6/4 435/6/4
f 435/6/4 433/6/4 436/6/4
f 434/6/4 435/6/4 438/6/4
f 438/6/4 435/6/4 439/6/4
f 437/6/4 438/6/4 442/6/4
f 442/6/4 438/6/4 443/6/4
f 440/3/4 441/3/4 445/3/4
f 445/3/4 441/3/4 446/3/4
f 444/3/4 445/3/4 449/3/4
f 449/3/4 445/3/4 450/3/4
f 447/4/4 448/4/4 451/4/4
f 451/4/4 448/4/4 452/4/4
f 453/6/4 454/6/4 455/6/4
f 455/6/4 454/6/4 456/6/4
f 453/6/4 455/6/4 459/6/4
f 459/6/4 455/6/4 460/6/4
f 457/4/4 458/4/4 461/4/4
f 461/4/4 458/4/4 462/4/4
f 463/4/4 464/4/4 465/4/4
f 465/4/4 464/4/4 466/4/4
f 467/4/4 468/4/4 469/4/4
f 469/4/4 468/4/4 470/4/4
f 473/5/5 472/5/5 471/5/5
f 474/5/5 472/5/5 473/5/5
f 475/6/5 474/6/5 473/6/5
f 476/6/5 474/6/5 475/6/5
f 481/6/5 478/6/5 477/6/5
f 482/6/5 478/6/5 481/6/5
f 483/6/5 480/6/5 479/6/5
f 484/6/5 480/6/5 483/6/5
f 487/6/5 486/6/5 485/6/5
f 488/6/5 486/6/5 487/6/5
f 490/4/5 489/4/5 488/4/5
f 491/4/5 489/4/5 490/4/5
f 495/4/5 493/4/5 492/4/5
f 496/4/5 493/4/5 495/4/5
f 497/6/5 495/6/5 494/6/5
f 498/6/5 495/6/5 497/6/5
f 500/4/5 499/4/5 498/4/5
f 501/4/5 499/4/5 500/4/5
f 504/4/5 503/4/5 502/4/5
f 505/4/5 503/4/5 504/4/5
f 510/4/5 507/4/5 506/4/5
f 511/4/5 507/4/5 510/4/5
f 512/6/5 509/6/5 508/6/5
f 513/6/5 509/6/5 512/6/5
f 515/6/5 512/6/5 508/6/5
f 516/6/5 512/6/5 515/6/5
f 517/4/5 514/4/5 513/4/5
f 518/4/5 514/4/5 517/4/5
f 519/6/5 515/6/5 508/6/5
f 520/6/5 515/6/5 519/6/5
f 525/6/5 522/6/5 521/6/5
f 528/4/5 524/4/5 523/4/5
f 529/4/5 524/4/5 528/4/5
f 530/6/5 525/6/5 521/6/5
f 530/6/5 526/6/5 525/6/5
f 531/1/5 527/1/5 526/1/5
f 531/6/5 526/6/5 530/6/5
f 532/1/5 527/1/5 531/1/5
f 533/3/5 529/3/5 528/3/5
f 534/3/5 529/3/5 533/3/5
f 535/6/5 530/6/5 521/6/5
f 536/6/5 530/6/5 535/6/5
f 539/3/5 538/3/5 537/3/5
f 540/3/5 538/3/5 539/3/5
f 541/4/5 540/4/5 539/4/5
f 542/4/5 540/4/5 541/4/5
f 545/4/5 544/4/5 543/4/5
f 546/4/5 545/4/5 543/4/5
f 547/4/5 545/4/5 546/4/5
f 550/4/5 547/4/5 546/4/5
f 551/4/5 547/4/5 550/4/5
f 552/6/5 549/6/5 548/6/5
f 553/6/5 549/6/5 552/6/5
f 556/4/5 555/4/5 554/4/5
f 557/4/5 555/4/5 556/4/5
f 558/4/5 557/4/5 556/4/5
f 559/4/5 558/4/5 556/4/5
f 560/4/5 558/4/5 559/4/5
f 563/4/5 562/4/5 561/4/5
f 564/4/5 562/4/5 563/4/5
f 565/4/5 562/4/5 564/4/5
f 568/4/5 567/4/5 566/4/5
f 569/4/5 567/4/5 568/4/5
f 570/4/5 567/4/5 569/4/5
f 571/5/6 572/5/6 575/5/6
f 573/5/6 574/5/6 575/5/6
f 572/5/6 573/5/6 575/5/6
f 575/5/6 574/5/6 576/5/6
f 577/6/6 578/6/6 581/6/6
f 581/6/6 578/6/6 582/6/6
f 579/6/6 580/6/6 583/6/6
f 583/6/6 580/6/6 584/6/6
f 585/6/6 586/6/6 587/6/6
f 587/6/6 586/6/6 588/6/6
f 588/6/6 586/6/6 589/6/6
f 589/6/6 586/6/6 590/6/6
f 590/6/6 586/6/6 591/6/6
f 592/2/6 593/2/6 597/2/6
f 593/6/6 594/6/6 598/6/6
f 597/2/6 593/2/6 598/2/6
f 594/2/6 595/2/6 599/2/6
f 598/6/6 594/6/6 599/6/6
f 595/6/6 596/6/6 600/6/6
f 599/2/6 595/2/6 600/2/6
f 600/6/6 596/6/6 601/6/6
f 602/4/6 603/4/6 604/4/6
f 604/4/6 603/4/6 605/4/6
f 606/4/6 607/4/6 608/4/6
f 608/4/6 607/4/6 609/4/6
f 610/6/6 611/6/6 615/6/6
f 615/6/6 611/6/6 616/6/6
f 612/4/6 613/4/6 617/4/6
f 617/4/6 613/4/6 618/4/6
f 614/6/6 615/6/6 619/6/6
f 619/6/6 615/6/6 620/6/6
f 621/6/6 622/6/6 625/6/6
f 625/6/6 622/6/6 626/6/6
f 623/4/6 624/4/6 629/4/6
f 629/4/6 624/4/6 630/4/6
f 627/1/6 628/1/6 631/1/6
f 631/1/6 628/1/6 632/1/6
f 633/4/6 634/4/6 635/4/6
f 635/4/6 634/4/6 636/4/6
f 637/4/6 638/4/6 641/4/6
f 641/4/6 638/4/6 642/4/6
f 639/6/6 640/6/6 644/6/6
f 644/6/6 640/6/6 645/6/6
f 643/6/6 644/6/6 648/6/6
f 648/6/6 644/6/6 649/6/6
f 646/4/6 647/4/6 650/4/6
f 650/4/6 647/4/6 651/4/6
f 652/4/6 653/4/6 654/4/6
f 654/4/6 653/4/6 657/4/6
f 657/4/6 653/4/6 658/4/6
f 655/1/6 656/1/6 660/1/6
f 660/1/6 656/1/6 661/1/6
f 658/3/6 659/3/6 662/3/6
f 662/3/6 659/3/6 663/3/6
f 664/4/6 665/4/6 668/4/6
f 668/4/6 665/4/6 669/4/6
f 666/6/6 667/6/6 670/6/6
f 670/6/6 667/6/6 671/6/6
f 672/6/6 673/6/6 676/6/6
f 676/6/6 673/6/6 677/6/6
f 674/3/6 675/3/6 679/3/6
f 679/3/6 675/3/6 680/3/6
f 678/4/6 679/4/6 681/4/6
f 681/4/6 679/4/6 682/4/6
f 682/4/6 679/4/6 683/4/6
f 684/1/6 685/1/6 689/1/6
f 689/1/6 685/1/6 690/1/6
f 686/3/6 687/3/6 691/3/6
f 691/3/6 687/3/6 692/3/6
f 692/4/6 693/4/6 694/4/6
f 694/4/6 693/4/6 695/4/6
f 689/6/6 690/6/6 696/6/6
f 688/6/6 689/6/6 696/6/6
f 696/6/6 690/6/6 697/6/6
f 694/3/6 695/3/6 698/3/6
f 698/3/6 695/3/6 699/3/6
f 697/6/6 690/6/6 700/6/6
f 700/6/6 690/6/6 701/6/6
f 698/4/6 699/4/6 703/4/6
f 703/4/6 699/4/6 704/4/6
f 702/3/6 703/3/6 705/3/6
f 705/3/6 703/3/6 706/3/6
f 707/4/6 708/4/6 710/4/6
f 710/4/6 708/4/6 711/4/6
f 709/6/6 710/6/6 713/6/6
f 713/6/6 710/6/6 714/6/6
f 711/3/6 712/3/6 715/3/6
f 715/3/6 712/3/6 716/3/6
f 714/4/6 715/4/6 717/4/6
f 717/4/6 715/4/6 718/4/6
f 719/4/6 720/4/6 721/4/6
f 721/4/6 720/4/6 722/4/6
