# MagicaVoxel @ Ephtracy

# material
mtllib ×ó½Å.mtl
usemtl palette

# normals
vn -1 0 0
vn 1 0 0
vn 0 0 1
vn 0 0 -1
vn 0 -1 0
vn 0 1 0

# texcoords
vt 0.908203 0.5
vt 0.912109 0.5
vt 0.943359 0.5
vt 0.970703 0.5
vt 0.978516 0.5

# verts
v -14 0 7
v -14 0 2
v -14 1 7
v -14 1 6
v -14 1 3
v -14 1 2
v -14 2 6
v -14 2 5
v -14 3 5
v -14 3 3
v -14 4 5
v -14 4 4
v -14 6 4
v -14 6 3
v -13 0 9
v -13 0 7
v -13 0 2
v -13 0 1
v -13 1 9
v -13 1 8
v -13 1 7
v -13 1 6
v -13 1 3
v -13 1 2
v -13 1 1
v -13 2 8
v -13 2 6
v -13 2 5
v -13 2 3
v -13 2 2
v -13 3 5
v -13 3 3
v -13 3 2
v -13 4 6
v -13 4 5
v -13 4 4
v -13 4 3
v -13 4 2
v -13 5 6
v -13 5 5
v -13 5 4
v -13 5 3
v -13 5 2
v -13 6 5
v -13 6 4
v -13 6 3
v -13 7 5
v -13 7 2
v -12 2 7
v -12 2 6
v -12 3 7
v -12 3 6
v -12 7 5
v -12 7 3
v -12 8 5
v -12 8 3
v -11 0 9
v -11 0 8
v -11 1 9
v -11 1 8
v -11 6 6
v -11 6 5
v -11 7 6
v -11 7 5
v -11 7 3
v -11 7 2
v -11 8 6
v -11 8 5
v -11 8 3
v -11 9 6
v -11 9 2
v -12 0 9
v -12 0 8
v -12 1 9
v -12 1 8
v -11 2 7
v -11 2 6
v -11 3 7
v -11 3 6
v -10 0 9
v -10 0 7
v -10 0 2
v -10 0 1
v -10 1 9
v -10 1 8
v -10 1 7
v -10 1 6
v -10 1 3
v -10 1 2
v -10 1 1
v -10 2 8
v -10 2 6
v -10 2 5
v -10 2 3
v -10 2 2
v -10 3 6
v -10 3 5
v -10 3 3
v -10 3 2
v -10 4 6
v -10 4 5
v -10 4 4
v -10 5 6
v -10 5 5
v -10 5 4
v -10 5 3
v -10 6 6
v -10 6 5
v -10 6 4
v -10 7 6
v -10 7 5
v -10 8 6
v -10 8 5
v -10 9 6
v -10 9 2
v -9 0 7
v -9 0 2
v -9 1 7
v -9 1 6
v -9 1 3
v -9 1 2
v -9 2 6
v -9 2 5
v -9 3 5
v -9 3 3
v -9 4 5
v -9 4 4
v -9 5 4
v -9 5 3
v -13 0 9
v -13 1 9
v -12 0 9
v -12 1 9
v -11 0 9
v -11 1 9
v -10 0 9
v -10 1 9
v -13 1 8
v -13 2 8
v -12 0 8
v -12 1 8
v -11 0 8
v -11 1 8
v -10 1 8
v -10 2 8
v -14 0 7
v -14 1 7
v -13 0 7
v -13 1 7
v -12 2 7
v -12 3 7
v -11 2 7
v -11 3 7
v -10 0 7
v -10 1 7
v -9 0 7
v -9 1 7
v -14 1 6
v -14 2 6
v -13 1 6
v -13 2 6
v -13 4 6
v -13 5 6
v -12 2 6
v -12 3 6
v -11 2 6
v -11 3 6
v -11 4 6
v -11 6 6
v -11 7 6
v -11 8 6
v -11 9 6
v -10 1 6
v -10 2 6
v -10 3 6
v -10 4 6
v -10 5 6
v -10 6 6
v -10 7 6
v -10 8 6
v -10 9 6
v -9 1 6
v -9 2 6
v -14 2 5
v -14 3 5
v -14 4 5
v -13 2 5
v -13 3 5
v -13 4 5
v -13 5 5
v -13 6 5
v -13 7 5
v -12 7 5
v -12 8 5
v -11 6 5
v -11 7 5
v -11 8 5
v -10 2 5
v -10 3 5
v -10 4 5
v -10 5 5
v -10 6 5
v -9 2 5
v -9 3 5
v -9 4 5
v -14 4 4
v -14 6 4
v -13 4 4
v -13 5 4
v -13 6 4
v -10 4 4
v -10 5 4
v -9 4 4
v -9 5 4
v -14 1 3
v -14 3 3
v -14 6 3
v -13 1 3
v -13 2 3
v -13 3 3
v -13 4 3
v -13 5 3
v -13 6 3
v -12 7 3
v -12 8 3
v -11 7 3
v -11 8 3
v -10 1 3
v -10 2 3
v -10 3 3
v -10 5 3
v -9 1 3
v -9 3 3
v -9 5 3
v -14 0 2
v -14 1 2
v -13 0 2
v -13 1 2
v -13 2 2
v -13 3 2
v -13 4 2
v -13 5 2
v -13 7 2
v -12 4 2
v -12 5 2
v -12 7 2
v -11 5 2
v -11 7 2
v -11 9 2
v -10 0 2
v -10 1 2
v -10 2 2
v -10 3 2
v -10 9 2
v -9 0 2
v -9 1 2
v -13 0 1
v -13 1 1
v -10 0 1
v -10 1 1
v -13 0 9
v -12 0 9
v -11 0 9
v -10 0 9
v -12 0 8
v -11 0 8
v -14 0 7
v -13 0 7
v -12 0 7
v -11 0 7
v -10 0 7
v -9 0 7
v -13 0 4
v -10 0 4
v -14 0 2
v -13 0 2
v -10 0 2
v -9 0 2
v -13 0 1
v -10 0 1
v -13 3 3
v -10 3 3
v -13 3 2
v -10 3 2
v -11 6 6
v -10 6 6
v -11 6 5
v -10 6 5
v -13 1 9
v -12 1 9
v -11 1 9
v -10 1 9
v -13 1 8
v -12 1 8
v -11 1 8
v -10 1 8
v -14 1 7
v -13 1 7
v -10 1 7
v -9 1 7
v -14 1 6
v -13 1 6
v -10 1 6
v -9 1 6
v -14 1 3
v -13 1 3
v -10 1 3
v -9 1 3
v -14 1 2
v -13 1 2
v -10 1 2
v -9 1 2
v -13 1 1
v -10 1 1
v -13 2 8
v -10 2 8
v -12 2 7
v -11 2 7
v -14 2 6
v -13 2 6
v -12 2 6
v -11 2 6
v -10 2 6
v -9 2 6
v -14 2 5
v -13 2 5
v -10 2 5
v -9 2 5
v -13 2 3
v -10 2 3
v -13 2 2
v -10 2 2
v -12 3 7
v -11 3 7
v -12 3 6
v -11 3 6
v -14 4 5
v -13 4 5
v -10 4 5
v -9 4 5
v -14 4 4
v -13 4 4
v -10 4 4
v -9 4 4
v -13 5 6
v -10 5 6
v -13 5 5
v -10 5 5
v -10 5 4
v -9 5 4
v -10 5 3
v -9 5 3
v -14 6 4
v -13 6 4
v -14 6 3
v -13 6 3
v -13 7 5
v -12 7 5
v -12 7 3
v -11 7 3
v -13 7 2
v -12 7 2
v -11 7 2
v -12 8 5
v -11 8 5
v -12 8 3
v -11 8 3
v -11 9 6
v -10 9 6
v -11 9 2
v -10 9 2

# faces
f 3/5/1 2/5/1 1/5/1
f 4/5/1 2/5/1 3/5/1
f 5/5/1 2/5/1 4/5/1
f 6/5/1 2/5/1 5/5/1
f 7/5/1 5/5/1 4/5/1
f 8/5/1 5/5/1 7/5/1
f 9/5/1 5/5/1 8/5/1
f 10/5/1 5/5/1 9/5/1
f 11/4/1 10/4/1 9/4/1
f 12/4/1 10/4/1 11/4/1
f 13/4/1 10/4/1 12/4/1
f 14/4/1 10/4/1 13/4/1
f 19/4/1 16/4/1 15/4/1
f 20/4/1 16/4/1 19/4/1
f 21/4/1 16/4/1 20/4/1
f 24/5/1 18/5/1 17/5/1
f 25/5/1 18/5/1 24/5/1
f 26/5/1 22/5/1 21/5/1
f 26/5/1 21/5/1 20/5/1
f 27/5/1 22/5/1 26/5/1
f 29/5/1 24/5/1 23/5/1
f 30/5/1 24/5/1 29/5/1
f 31/4/1 28/4/1 27/4/1
f 34/4/1 31/4/1 27/4/1
f 35/4/1 31/4/1 34/4/1
f 37/4/1 33/4/1 32/4/1
f 38/4/1 33/4/1 37/4/1
f 39/3/1 35/3/1 34/3/1
f 40/4/1 36/4/1 35/4/1
f 40/3/1 35/3/1 39/3/1
f 41/4/1 36/4/1 40/4/1
f 42/1/1 38/1/1 37/1/1
f 43/1/1 38/1/1 42/1/1
f 44/3/1 41/3/1 40/3/1
f 45/3/1 41/3/1 44/3/1
f 46/4/1 43/4/1 42/4/1
f 47/4/1 45/4/1 44/4/1
f 47/4/1 46/4/1 45/4/1
f 48/4/1 43/4/1 46/4/1
f 48/4/1 46/4/1 47/4/1
f 51/5/1 50/5/1 49/5/1
f 52/5/1 50/5/1 51/5/1
f 55/4/1 54/4/1 53/4/1
f 56/4/1 54/4/1 55/4/1
f 59/4/1 58/4/1 57/4/1
f 60/4/1 58/4/1 59/4/1
f 63/4/1 62/4/1 61/4/1
f 64/4/1 62/4/1 63/4/1
f 67/1/1 64/1/1 63/1/1
f 68/1/1 64/1/1 67/1/1
f 69/4/1 66/4/1 65/4/1
f 70/4/1 68/4/1 67/4/1
f 70/4/1 69/4/1 68/4/1
f 71/4/1 66/4/1 69/4/1
f 71/4/1 69/4/1 70/4/1
f 72/4/2 73/4/2 74/4/2
f 74/4/2 73/4/2 75/4/2
f 76/5/2 77/5/2 78/5/2
f 78/5/2 77/5/2 79/5/2
f 80/4/2 81/4/2 84/4/2
f 84/4/2 81/4/2 85/4/2
f 85/4/2 81/4/2 86/4/2
f 82/5/2 83/5/2 89/5/2
f 89/5/2 83/5/2 90/5/2
f 86/5/2 87/5/2 91/5/2
f 85/5/2 86/5/2 91/5/2
f 91/5/2 87/5/2 92/5/2
f 88/5/2 89/5/2 94/5/2
f 94/5/2 89/5/2 95/5/2
f 92/4/2 93/4/2 96/4/2
f 96/4/2 93/4/2 97/4/2
f 96/2/2 97/2/2 100/2/2
f 100/2/2 97/2/2 101/2/2
f 100/3/2 101/3/2 103/3/2
f 101/4/2 102/4/2 104/4/2
f 103/3/2 101/3/2 104/3/2
f 104/4/2 102/4/2 105/4/2
f 98/4/2 99/4/2 106/4/2
f 104/3/2 105/3/2 108/3/2
f 105/4/2 106/4/2 109/4/2
f 108/3/2 105/3/2 109/3/2
f 107/4/2 108/4/2 110/4/2
f 108/4/2 109/4/2 110/4/2
f 110/4/2 109/4/2 111/4/2
f 110/1/2 111/1/2 112/1/2
f 111/4/2 109/4/2 113/4/2
f 112/1/2 111/1/2 113/1/2
f 112/4/2 113/4/2 114/4/2
f 106/4/2 99/4/2 115/4/2
f 114/4/2 113/4/2 115/4/2
f 109/4/2 106/4/2 115/4/2
f 113/4/2 109/4/2 115/4/2
f 116/5/2 117/5/2 118/5/2
f 118/5/2 117/5/2 119/5/2
f 119/5/2 117/5/2 120/5/2
f 120/5/2 117/5/2 121/5/2
f 119/5/2 120/5/2 122/5/2
f 122/5/2 120/5/2 123/5/2
f 123/5/2 120/5/2 124/5/2
f 124/5/2 120/5/2 125/5/2
f 124/4/2 125/4/2 126/4/2
f 126/4/2 125/4/2 127/4/2
f 127/4/2 125/4/2 128/4/2
f 128/4/2 125/4/2 129/4/2
f 132/4/3 131/4/3 130/4/3
f 133/4/3 131/4/3 132/4/3
f 136/4/3 135/4/3 134/4/3
f 137/4/3 135/4/3 136/4/3
f 141/5/3 139/5/3 138/5/3
f 142/2/3 141/2/3 140/2/3
f 143/5/3 139/5/3 141/5/3
f 143/2/3 141/2/3 142/2/3
f 144/5/3 139/5/3 143/5/3
f 145/5/3 139/5/3 144/5/3
f 148/5/3 147/5/3 146/5/3
f 149/5/3 147/5/3 148/5/3
f 152/5/3 151/5/3 150/5/3
f 153/5/3 151/5/3 152/5/3
f 156/5/3 155/5/3 154/5/3
f 157/5/3 155/5/3 156/5/3
f 160/5/3 159/5/3 158/5/3
f 161/5/3 159/5/3 160/5/3
f 164/4/3 162/4/3 161/4/3
f 165/4/3 162/4/3 164/4/3
f 167/4/3 162/4/3 165/4/3
f 168/3/3 163/3/3 162/3/3
f 168/4/3 162/4/3 167/4/3
f 174/4/3 167/4/3 166/4/3
f 175/2/3 168/2/3 167/2/3
f 175/4/3 167/4/3 174/4/3
f 176/3/3 163/3/3 168/3/3
f 176/2/3 168/2/3 175/2/3
f 177/3/3 163/3/3 176/3/3
f 178/4/3 170/4/3 169/4/3
f 179/1/3 171/1/3 170/1/3
f 179/4/3 170/4/3 178/4/3
f 180/4/3 172/4/3 171/4/3
f 180/1/3 171/1/3 179/1/3
f 181/4/3 172/4/3 180/4/3
f 182/5/3 174/5/3 173/5/3
f 183/5/3 174/5/3 182/5/3
f 187/5/3 185/5/3 184/5/3
f 188/4/3 186/4/3 185/4/3
f 188/5/3 185/5/3 187/5/3
f 189/4/3 186/4/3 188/4/3
f 193/4/3 192/4/3 191/4/3
f 195/3/3 191/3/3 190/3/3
f 195/4/3 194/4/3 193/4/3
f 195/4/3 193/4/3 191/4/3
f 196/4/3 194/4/3 195/4/3
f 197/4/3 194/4/3 196/4/3
f 201/3/3 195/3/3 190/3/3
f 202/3/3 195/3/3 201/3/3
f 203/5/3 199/5/3 198/5/3
f 204/4/3 200/4/3 199/4/3
f 204/5/3 199/5/3 203/5/3
f 205/4/3 200/4/3 204/4/3
f 208/4/3 207/4/3 206/4/3
f 209/4/3 207/4/3 208/4/3
f 210/4/3 207/4/3 209/4/3
f 213/4/3 212/4/3 211/4/3
f 214/4/3 212/4/3 213/4/3
f 215/5/4 216/5/4 218/5/4
f 218/5/4 216/5/4 219/5/4
f 216/4/4 217/4/4 220/4/4
f 219/5/4 216/5/4 220/5/4
f 220/4/4 217/4/4 221/4/4
f 221/4/4 217/4/4 222/4/4
f 222/4/4 217/4/4 223/4/4
f 224/4/4 225/4/4 226/4/4
f 226/4/4 225/4/4 227/4/4
f 219/5/4 220/5/4 229/5/4
f 229/5/4 220/5/4 230/5/4
f 228/5/4 229/5/4 232/5/4
f 229/5/4 230/5/4 232/5/4
f 230/4/4 231/4/4 233/4/4
f 232/5/4 230/5/4 233/5/4
f 233/4/4 231/4/4 234/4/4
f 235/5/4 236/5/4 237/5/4
f 237/5/4 236/5/4 238/5/4
f 240/4/4 241/4/4 244/4/4
f 241/1/4 242/1/4 244/1/4
f 242/4/4 243/4/4 245/4/4
f 244/1/4 242/1/4 245/1/4
f 245/4/4 243/4/4 246/4/4
f 244/4/4 245/4/4 247/4/4
f 245/2/4 246/2/4 247/2/4
f 247/2/4 246/2/4 248/2/4
f 238/5/4 239/5/4 251/5/4
f 251/5/4 239/5/4 252/5/4
f 240/4/4 244/4/4 253/4/4
f 248/4/4 249/4/4 253/4/4
f 247/4/4 248/4/4 253/4/4
f 244/4/4 247/4/4 253/4/4
f 253/4/4 249/4/4 254/4/4
f 250/5/4 251/5/4 255/5/4
f 255/5/4 251/5/4 256/5/4
f 257/5/4 258/5/4 259/5/4
f 259/5/4 258/5/4 260/5/4
f 265/4/5 262/4/5 261/4/5
f 266/4/5 264/4/5 263/4/5
f 268/4/5 265/4/5 261/4/5
f 269/2/5 266/2/5 265/2/5
f 269/4/5 265/4/5 268/4/5
f 270/4/5 264/4/5 266/4/5
f 270/2/5 266/2/5 269/2/5
f 271/4/5 264/4/5 270/4/5
f 273/5/5 268/5/5 267/5/5
f 273/4/5 269/4/5 268/4/5
f 273/4/5 271/4/5 270/4/5
f 273/4/5 270/4/5 269/4/5
f 274/5/5 272/5/5 271/5/5
f 274/4/5 271/4/5 273/4/5
f 275/5/5 273/5/5 267/5/5
f 275/5/5 274/5/5 273/5/5
f 276/5/5 274/5/5 275/5/5
f 277/5/5 272/5/5 274/5/5
f 277/5/5 274/5/5 276/5/5
f 278/5/5 272/5/5 277/5/5
f 279/5/5 277/5/5 276/5/5
f 280/5/5 277/5/5 279/5/5
f 283/4/5 282/4/5 281/4/5
f 284/4/5 282/4/5 283/4/5
f 287/4/5 286/4/5 285/4/5
f 288/4/5 286/4/5 287/4/5
f 289/4/6 290/4/6 293/4/6
f 293/4/6 290/4/6 294/4/6
f 291/4/6 292/4/6 295/4/6
f 295/4/6 292/4/6 296/4/6
f 297/5/6 298/5/6 301/5/6
f 301/5/6 298/5/6 302/5/6
f 299/5/6 300/5/6 303/5/6
f 303/5/6 300/5/6 304/5/6
f 305/5/6 306/5/6 309/5/6
f 309/5/6 306/5/6 310/5/6
f 307/5/6 308/5/6 311/5/6
f 311/5/6 308/5/6 312/5/6
f 310/5/6 311/5/6 313/5/6
f 313/5/6 311/5/6 314/5/6
f 315/5/6 316/5/6 317/5/6
f 317/5/6 316/5/6 318/5/6
f 315/5/6 317/5/6 320/5/6
f 320/5/6 317/5/6 321/5/6
f 318/5/6 316/5/6 322/5/6
f 322/5/6 316/5/6 323/5/6
f 319/5/6 320/5/6 325/5/6
f 325/5/6 320/5/6 326/5/6
f 323/5/6 324/5/6 327/5/6
f 327/5/6 324/5/6 328/5/6
f 329/5/6 330/5/6 331/5/6
f 331/5/6 330/5/6 332/5/6
f 333/5/6 334/5/6 335/5/6
f 335/5/6 334/5/6 336/5/6
f 337/4/6 338/4/6 341/4/6
f 341/4/6 338/4/6 342/4/6
f 339/4/6 340/4/6 343/4/6
f 343/4/6 340/4/6 344/4/6
f 345/3/6 346/3/6 347/3/6
f 347/3/6 346/3/6 348/3/6
f 349/4/6 350/4/6 351/4/6
f 351/4/6 350/4/6 352/4/6
f 353/4/6 354/4/6 355/4/6
f 355/4/6 354/4/6 356/4/6
f 357/4/6 358/4/6 359/4/6
f 357/4/6 359/4/6 361/4/6
f 359/2/6 360/2/6 362/2/6
f 361/4/6 359/4/6 362/4/6
f 362/2/6 360/2/6 363/2/6
f 364/4/6 365/4/6 366/4/6
f 366/4/6 365/4/6 367/4/6
f 368/4/6 369/4/6 370/4/6
f 370/4/6 369/4/6 371/4/6
