# MagicaVoxel @ Ephtracy

# material
mtllib ср╫е.mtl
usemtl palette

# normals
vn -1 0 0
vn 1 0 0
vn 0 0 1
vn 0 0 -1
vn 0 -1 0
vn 0 1 0

# texcoords
vt 0.908203 0.5
vt 0.912109 0.5
vt 0.943359 0.5
vt 0.970703 0.5
vt 0.978516 0.5

# verts
v -1 0 7
v -1 0 2
v -1 1 7
v -1 1 6
v -1 1 4
v -1 1 2
v -1 2 6
v -1 2 5
v -1 3 5
v -1 3 4
v 0 0 9
v 0 0 7
v 0 0 2
v 0 0 1
v 0 1 9
v 0 1 8
v 0 1 7
v 0 1 6
v 0 1 4
v 0 1 2
v 0 1 1
v 0 2 8
v 0 2 6
v 0 2 5
v 0 2 3
v 0 2 2
v 0 3 6
v 0 3 5
v 0 3 4
v 0 3 3
v 0 3 2
v 0 4 6
v 0 4 5
v 0 4 3
v 0 4 2
v 0 5 6
v 0 5 5
v 0 5 4
v 0 5 3
v 0 5 2
v 0 6 5
v 0 6 4
v 0 9 4
v 0 9 2
v 1 2 7
v 1 2 6
v 1 3 7
v 1 3 6
v 1 6 5
v 1 6 4
v 1 8 5
v 1 8 4
v 2 0 9
v 2 0 8
v 2 1 9
v 2 1 8
v 1 0 9
v 1 0 8
v 1 1 9
v 1 1 8
v 1 7 3
v 1 7 2
v 1 8 4
v 1 8 3
v 1 9 4
v 1 9 2
v 2 2 7
v 2 2 6
v 2 3 7
v 2 3 6
v 2 7 5
v 2 7 3
v 2 8 5
v 2 8 3
v 3 0 9
v 3 0 7
v 3 0 2
v 3 0 1
v 3 1 9
v 3 1 8
v 3 1 7
v 3 1 6
v 3 1 3
v 3 1 2
v 3 1 1
v 3 2 8
v 3 2 6
v 3 2 5
v 3 2 3
v 3 2 2
v 3 3 6
v 3 3 5
v 3 3 3
v 3 3 2
v 3 4 6
v 3 4 5
v 3 4 4
v 3 4 3
v 3 4 2
v 3 5 6
v 3 5 5
v 3 5 4
v 3 5 3
v 3 5 2
v 3 6 5
v 3 6 4
v 3 6 3
v 3 6 2
v 3 7 5
v 3 7 2
v 4 0 7
v 4 0 2
v 4 1 7
v 4 1 6
v 4 1 3
v 4 1 2
v 4 2 6
v 4 2 5
v 4 3 5
v 4 3 3
v 4 4 5
v 4 4 4
v 4 4 3
v 4 5 4
v 4 5 3
v 4 6 4
v 4 6 3
v 0 0 9
v 0 1 9
v 1 0 9
v 1 1 9
v 2 0 9
v 2 1 9
v 3 0 9
v 3 1 9
v 0 1 8
v 0 2 8
v 1 0 8
v 1 1 8
v 2 0 8
v 2 1 8
v 3 1 8
v 3 2 8
v -1 0 7
v -1 1 7
v 0 0 7
v 0 1 7
v 1 2 7
v 1 3 7
v 2 2 7
v 2 3 7
v 3 0 7
v 3 1 7
v 4 0 7
v 4 1 7
v -1 1 6
v -1 2 6
v 0 1 6
v 0 2 6
v 0 3 6
v 0 4 6
v 0 5 6
v 1 2 6
v 1 3 6
v 1 4 6
v 2 2 6
v 2 3 6
v 2 4 6
v 3 1 6
v 3 2 6
v 3 3 6
v 3 4 6
v 3 5 6
v 4 1 6
v 4 2 6
v -1 2 5
v -1 3 5
v 0 2 5
v 0 3 5
v 0 5 5
v 0 6 5
v 1 6 5
v 1 8 5
v 2 7 5
v 2 8 5
v 3 2 5
v 3 3 5
v 3 4 5
v 3 5 5
v 3 6 5
v 3 7 5
v 4 2 5
v 4 3 5
v 4 4 5
v 0 6 4
v 0 9 4
v 1 6 4
v 1 8 4
v 1 9 4
v 3 4 4
v 3 5 4
v 3 6 4
v 4 4 4
v 4 5 4
v 4 6 4
v -1 1 4
v -1 3 4
v 0 1 4
v 0 3 4
v 0 2 3
v 0 3 3
v 1 7 3
v 1 8 3
v 2 3 3
v 2 7 3
v 2 8 3
v 3 1 3
v 3 2 3
v 3 3 3
v 3 4 3
v 3 5 3
v 3 6 3
v 4 1 3
v 4 3 3
v 4 4 3
v 4 5 3
v 4 6 3
v -1 0 2
v -1 1 2
v 0 0 2
v 0 1 2
v 0 2 2
v 0 3 2
v 0 4 2
v 0 5 2
v 0 9 2
v 1 4 2
v 1 5 2
v 1 6 2
v 1 7 2
v 1 9 2
v 2 3 2
v 2 4 2
v 2 5 2
v 2 6 2
v 2 7 2
v 3 0 2
v 3 1 2
v 3 2 2
v 3 3 2
v 3 4 2
v 3 5 2
v 3 6 2
v 3 7 2
v 4 0 2
v 4 1 2
v 0 0 1
v 0 1 1
v 3 0 1
v 3 1 1
v 0 0 9
v 1 0 9
v 2 0 9
v 3 0 9
v 1 0 8
v 2 0 8
v -1 0 7
v 0 0 7
v 1 0 7
v 2 0 7
v 3 0 7
v 4 0 7
v 0 0 4
v 3 0 4
v -1 0 2
v 0 0 2
v 3 0 2
v 4 0 2
v 0 0 1
v 3 0 1
v 0 3 3
v 2 3 3
v 3 3 3
v 0 3 2
v 2 3 2
v 3 3 2
v 0 1 9
v 1 1 9
v 2 1 9
v 3 1 9
v 0 1 8
v 1 1 8
v 2 1 8
v 3 1 8
v -1 1 7
v 0 1 7
v 3 1 7
v 4 1 7
v -1 1 6
v 0 1 6
v 3 1 6
v 4 1 6
v -1 1 4
v 0 1 4
v 3 1 3
v 4 1 3
v -1 1 2
v 0 1 2
v 3 1 2
v 4 1 2
v 0 1 1
v 3 1 1
v 0 2 8
v 3 2 8
v 1 2 7
v 2 2 7
v -1 2 6
v 0 2 6
v 1 2 6
v 2 2 6
v 3 2 6
v 4 2 6
v -1 2 5
v 0 2 5
v 3 2 5
v 4 2 5
v 0 2 3
v 3 2 3
v 0 2 2
v 3 2 2
v 1 3 7
v 2 3 7
v 1 3 6
v 2 3 6
v -1 3 5
v 0 3 5
v -1 3 4
v 0 3 4
v 3 4 5
v 4 4 5
v 3 4 4
v 4 4 4
v 0 5 6
v 3 5 6
v 0 5 5
v 3 5 5
v 0 6 5
v 1 6 5
v 0 6 4
v 1 6 4
v 3 6 4
v 4 6 4
v 3 6 3
v 4 6 3
v 2 7 5
v 3 7 5
v 1 7 3
v 2 7 3
v 1 7 2
v 2 7 2
v 3 7 2
v 1 8 5
v 2 8 5
v 1 8 4
v 1 8 3
v 2 8 3
v 0 9 4
v 1 9 4
v 0 9 2
v 1 9 2

# faces
f 3/5/1 2/5/1 1/5/1
f 4/5/1 2/5/1 3/5/1
f 5/5/1 2/5/1 4/5/1
f 6/5/1 2/5/1 5/5/1
f 7/5/1 5/5/1 4/5/1
f 8/5/1 5/5/1 7/5/1
f 9/5/1 5/5/1 8/5/1
f 10/5/1 5/5/1 9/5/1
f 15/4/1 12/4/1 11/4/1
f 16/4/1 12/4/1 15/4/1
f 17/4/1 12/4/1 16/4/1
f 20/5/1 14/5/1 13/5/1
f 21/5/1 14/5/1 20/5/1
f 22/5/1 18/5/1 17/5/1
f 22/5/1 17/5/1 16/5/1
f 23/5/1 18/5/1 22/5/1
f 25/5/1 20/5/1 19/5/1
f 26/5/1 20/5/1 25/5/1
f 27/5/1 24/5/1 23/5/1
f 28/5/1 24/5/1 27/5/1
f 29/5/1 25/5/1 19/5/1
f 30/5/1 25/5/1 29/5/1
f 32/4/1 28/4/1 27/4/1
f 32/4/1 31/4/1 30/4/1
f 32/4/1 30/4/1 29/4/1
f 32/4/1 29/4/1 28/4/1
f 33/4/1 31/4/1 32/4/1
f 34/4/1 31/4/1 33/4/1
f 35/4/1 31/4/1 34/4/1
f 36/3/1 33/3/1 32/3/1
f 37/4/1 34/4/1 33/4/1
f 37/3/1 33/3/1 36/3/1
f 38/4/1 34/4/1 37/4/1
f 39/2/1 35/2/1 34/2/1
f 39/4/1 34/4/1 38/4/1
f 40/2/1 35/2/1 39/2/1
f 41/3/1 38/3/1 37/3/1
f 42/4/1 40/4/1 39/4/1
f 42/3/1 38/3/1 41/3/1
f 42/4/1 39/4/1 38/4/1
f 43/4/1 40/4/1 42/4/1
f 44/4/1 40/4/1 43/4/1
f 47/5/1 46/5/1 45/5/1
f 48/5/1 46/5/1 47/5/1
f 51/4/1 50/4/1 49/4/1
f 52/4/1 50/4/1 51/4/1
f 55/4/1 54/4/1 53/4/1
f 56/4/1 54/4/1 55/4/1
f 57/4/2 58/4/2 59/4/2
f 59/4/2 58/4/2 60/4/2
f 61/4/2 62/4/2 64/4/2
f 63/4/2 64/4/2 65/4/2
f 64/4/2 62/4/2 66/4/2
f 65/4/2 64/4/2 66/4/2
f 67/5/2 68/5/2 69/5/2
f 69/5/2 68/5/2 70/5/2
f 71/4/2 72/4/2 73/4/2
f 73/4/2 72/4/2 74/4/2
f 75/4/2 76/4/2 79/4/2
f 79/4/2 76/4/2 80/4/2
f 80/4/2 76/4/2 81/4/2
f 77/5/2 78/5/2 84/5/2
f 84/5/2 78/5/2 85/5/2
f 81/5/2 82/5/2 86/5/2
f 80/5/2 81/5/2 86/5/2
f 86/5/2 82/5/2 87/5/2
f 83/5/2 84/5/2 89/5/2
f 89/5/2 84/5/2 90/5/2
f 87/5/2 88/5/2 91/5/2
f 91/5/2 88/5/2 92/5/2
f 91/4/2 92/4/2 95/4/2
f 95/4/2 92/4/2 96/4/2
f 93/1/2 94/1/2 98/1/2
f 98/1/2 94/1/2 99/1/2
f 95/3/2 96/3/2 100/3/2
f 96/4/2 97/4/2 101/4/2
f 100/3/2 96/3/2 101/3/2
f 101/4/2 97/4/2 102/4/2
f 98/4/2 99/4/2 103/4/2
f 103/4/2 99/4/2 104/4/2
f 101/3/2 102/3/2 105/3/2
f 105/3/2 102/3/2 106/3/2
f 103/2/2 104/2/2 107/2/2
f 107/2/2 104/2/2 108/2/2
f 105/4/2 106/4/2 109/4/2
f 106/4/2 107/4/2 109/4/2
f 107/4/2 108/4/2 109/4/2
f 109/4/2 108/4/2 110/4/2
f 111/5/2 112/5/2 113/5/2
f 113/5/2 112/5/2 114/5/2
f 114/5/2 112/5/2 115/5/2
f 115/5/2 112/5/2 116/5/2
f 114/5/2 115/5/2 117/5/2
f 117/5/2 115/5/2 118/5/2
f 118/5/2 115/5/2 119/5/2
f 119/5/2 115/5/2 120/5/2
f 119/4/2 120/4/2 121/4/2
f 121/4/2 120/4/2 122/4/2
f 122/4/2 120/4/2 123/4/2
f 122/2/2 123/2/2 124/2/2
f 124/2/2 123/2/2 125/2/2
f 124/4/2 125/4/2 126/4/2
f 126/4/2 125/4/2 127/4/2
f 130/4/3 129/4/3 128/4/3
f 131/4/3 129/4/3 130/4/3
f 134/4/3 133/4/3 132/4/3
f 135/4/3 133/4/3 134/4/3
f 139/5/3 137/5/3 136/5/3
f 140/2/3 139/2/3 138/2/3
f 141/5/3 137/5/3 139/5/3
f 141/2/3 139/2/3 140/2/3
f 142/5/3 137/5/3 141/5/3
f 143/5/3 137/5/3 142/5/3
f 146/5/3 145/5/3 144/5/3
f 147/5/3 145/5/3 146/5/3
f 150/5/3 149/5/3 148/5/3
f 151/5/3 149/5/3 150/5/3
f 154/5/3 153/5/3 152/5/3
f 155/5/3 153/5/3 154/5/3
f 158/5/3 157/5/3 156/5/3
f 159/5/3 157/5/3 158/5/3
f 163/5/3 160/5/3 159/5/3
f 164/4/3 161/4/3 160/4/3
f 164/5/3 160/5/3 163/5/3
f 165/3/3 162/3/3 161/3/3
f 165/4/3 161/4/3 164/4/3
f 167/2/3 165/2/3 164/2/3
f 168/3/3 162/3/3 165/3/3
f 168/2/3 165/2/3 167/2/3
f 170/5/3 167/5/3 166/5/3
f 171/4/3 168/4/3 167/4/3
f 171/5/3 167/5/3 170/5/3
f 172/3/3 162/3/3 168/3/3
f 172/4/3 168/4/3 171/4/3
f 173/3/3 162/3/3 172/3/3
f 174/5/3 170/5/3 169/5/3
f 175/5/3 170/5/3 174/5/3
f 178/5/3 177/5/3 176/5/3
f 179/5/3 177/5/3 178/5/3
f 182/3/3 181/3/3 180/3/3
f 184/4/3 183/4/3 182/4/3
f 185/4/3 183/4/3 184/4/3
f 189/3/3 182/3/3 180/3/3
f 190/4/3 184/4/3 182/4/3
f 190/3/3 182/3/3 189/3/3
f 191/4/3 184/4/3 190/4/3
f 192/5/3 187/5/3 186/5/3
f 193/4/3 188/4/3 187/4/3
f 193/5/3 187/5/3 192/5/3
f 194/4/3 188/4/3 193/4/3
f 197/4/3 196/4/3 195/4/3
f 198/4/3 196/4/3 197/4/3
f 199/4/3 196/4/3 198/4/3
f 203/2/3 201/2/3 200/2/3
f 204/4/3 202/4/3 201/4/3
f 204/2/3 201/2/3 203/2/3
f 205/4/3 202/4/3 204/4/3
f 206/5/4 207/5/4 208/5/4
f 208/5/4 207/5/4 209/5/4
f 210/5/4 211/5/4 214/5/4
f 212/4/4 213/4/4 215/4/4
f 215/4/4 213/4/4 216/4/4
f 210/5/4 214/5/4 218/5/4
f 218/5/4 214/5/4 219/5/4
f 217/5/4 218/5/4 223/5/4
f 218/5/4 219/5/4 223/5/4
f 219/4/4 220/4/4 224/4/4
f 223/5/4 219/5/4 224/5/4
f 220/2/4 221/2/4 225/2/4
f 224/4/4 220/4/4 225/4/4
f 221/4/4 222/4/4 226/4/4
f 225/2/4 221/2/4 226/2/4
f 226/4/4 222/4/4 227/4/4
f 228/5/4 229/5/4 230/5/4
f 230/5/4 229/5/4 231/5/4
f 233/4/4 234/4/4 237/4/4
f 234/2/4 235/2/4 237/2/4
f 235/4/4 236/4/4 238/4/4
f 237/2/4 235/2/4 238/2/4
f 238/4/4 236/4/4 239/4/4
f 239/4/4 236/4/4 240/4/4
f 240/4/4 236/4/4 241/4/4
f 233/4/4 237/4/4 242/4/4
f 237/4/4 238/4/4 242/4/4
f 238/4/4 239/4/4 242/4/4
f 242/4/4 239/4/4 243/4/4
f 243/4/4 239/4/4 244/4/4
f 239/1/4 240/1/4 245/1/4
f 244/4/4 239/4/4 245/4/4
f 245/1/4 240/1/4 246/1/4
f 231/5/4 232/5/4 248/5/4
f 248/5/4 232/5/4 249/5/4
f 242/1/4 243/1/4 250/1/4
f 243/4/4 244/4/4 251/4/4
f 250/1/4 243/1/4 251/1/4
f 244/2/4 245/2/4 252/2/4
f 251/4/4 244/4/4 252/4/4
f 245/4/4 246/4/4 253/4/4
f 252/2/4 245/2/4 253/2/4
f 253/4/4 246/4/4 254/4/4
f 247/5/4 248/5/4 255/5/4
f 255/5/4 248/5/4 256/5/4
f 257/5/4 258/5/4 259/5/4
f 259/5/4 258/5/4 260/5/4
f 265/4/5 262/4/5 261/4/5
f 266/4/5 264/4/5 263/4/5
f 268/4/5 265/4/5 261/4/5
f 269/2/5 266/2/5 265/2/5
f 269/4/5 265/4/5 268/4/5
f 270/4/5 264/4/5 266/4/5
f 270/2/5 266/2/5 269/2/5
f 271/4/5 264/4/5 270/4/5
f 273/5/5 268/5/5 267/5/5
f 273/4/5 269/4/5 268/4/5
f 273/4/5 271/4/5 270/4/5
f 273/4/5 270/4/5 269/4/5
f 274/5/5 272/5/5 271/5/5
f 274/4/5 271/4/5 273/4/5
f 275/5/5 273/5/5 267/5/5
f 275/5/5 274/5/5 273/5/5
f 276/5/5 274/5/5 275/5/5
f 277/5/5 272/5/5 274/5/5
f 277/5/5 274/5/5 276/5/5
f 278/5/5 272/5/5 277/5/5
f 279/5/5 277/5/5 276/5/5
f 280/5/5 277/5/5 279/5/5
f 284/4/5 282/4/5 281/4/5
f 285/1/5 283/1/5 282/1/5
f 285/4/5 282/4/5 284/4/5
f 286/1/5 283/1/5 285/1/5
f 287/4/6 288/4/6 291/4/6
f 291/4/6 288/4/6 292/4/6
f 289/4/6 290/4/6 293/4/6
f 293/4/6 290/4/6 294/4/6
f 295/5/6 296/5/6 299/5/6
f 299/5/6 296/5/6 300/5/6
f 297/5/6 298/5/6 301/5/6
f 301/5/6 298/5/6 302/5/6
f 303/5/6 304/5/6 307/5/6
f 307/5/6 304/5/6 308/5/6
f 305/5/6 306/5/6 309/5/6
f 309/5/6 306/5/6 310/5/6
f 308/5/6 309/5/6 311/5/6
f 311/5/6 309/5/6 312/5/6
f 313/5/6 314/5/6 315/5/6
f 315/5/6 314/5/6 316/5/6
f 313/5/6 315/5/6 318/5/6
f 318/5/6 315/5/6 319/5/6
f 316/5/6 314/5/6 320/5/6
f 320/5/6 314/5/6 321/5/6
f 317/5/6 318/5/6 323/5/6
f 323/5/6 318/5/6 324/5/6
f 321/5/6 322/5/6 325/5/6
f 325/5/6 322/5/6 326/5/6
f 327/5/6 328/5/6 329/5/6
f 329/5/6 328/5/6 330/5/6
f 331/5/6 332/5/6 333/5/6
f 333/5/6 332/5/6 334/5/6
f 335/5/6 336/5/6 337/5/6
f 337/5/6 336/5/6 338/5/6
f 339/4/6 340/4/6 341/4/6
f 341/4/6 340/4/6 342/4/6
f 343/3/6 344/3/6 345/3/6
f 345/3/6 344/3/6 346/3/6
f 347/3/6 348/3/6 349/3/6
f 349/3/6 348/3/6 350/3/6
f 351/4/6 352/4/6 353/4/6
f 353/4/6 352/4/6 354/4/6
f 355/4/6 356/4/6 358/4/6
f 357/1/6 358/1/6 359/1/6
f 358/4/6 356/4/6 360/4/6
f 359/1/6 358/1/6 360/1/6
f 360/4/6 356/4/6 361/4/6
f 362/4/6 363/4/6 364/4/6
f 364/4/6 363/4/6 365/4/6
f 365/4/6 363/4/6 366/4/6
f 367/4/6 368/4/6 369/4/6
f 369/4/6 368/4/6 370/4/6
