# MagicaVoxel @ ephtracy

# material
mtllib C01_body.mtl
usemtl palette

# normals
vn -1 0 0
vn 1 0 0
vn 0 0 1
vn 0 0 -1
vn 0 -1 0
vn 0 1 0

# texcoords
vt 0.0371094 0.5
vt 0.0683594 0.5
vt 0.830078 0.5
vt 0.849609 0.5
vt 0.865234 0.5
vt 0.958984 0.5
vt 0.970703 0.5
vt 0.974609 0.5
vt 0.986328 0.5
vt 0.990234 0.5

# verts
v -3 4 1.5
v -3 4 0.5
v -3 5 1.5
v -3 5 0.5
v -3 6 0.5
v -3 6 -0.5
v -3 6 -1.5
v -3 7 0.5
v -3 7 -0.5
v -3 7 -1.5
v -2 3 1.5
v -2 3 0.5
v -2 3 -0.5
v -2 3 -1.5
v -2 3 -2.5
v -2 4 1.5
v -2 4 0.5
v -2 4 -0.5
v -2 4 -1.5
v -2 4 -2.5
v -2 5 1.5
v -2 5 0.5
v -2 6 2.5
v -2 6 1.5
v -2 6 0.5
v -2 6 -0.5
v -2 6 -1.5
v -2 6 -2.5
v -2 7 2.5
v -2 7 0.5
v -2 7 -1.5
v -2 7 -2.5
v 2 3 1.5
v 2 3 0.5
v 2 3 -0.5
v 2 3 -1.5
v 2 3 -2.5
v 2 4 1.5
v 2 4 0.5
v 2 4 -0.5
v 2 4 -1.5
v 2 4 -2.5
v 2 5 1.5
v 2 5 0.5
v 2 6 2.5
v 2 6 1.5
v 2 6 0.5
v 2 6 -0.5
v 2 6 -1.5
v 2 6 -2.5
v 2 7 2.5
v 2 7 1.5
v 2 7 0.5
v 2 7 -1.5
v 2 7 -2.5
v 3 4 1.5
v 3 4 0.5
v 3 5 1.5
v 3 5 0.5
v 3 6 0.5
v 3 6 -0.5
v 3 6 -1.5
v 3 7 0.5
v 3 7 -0.5
v 3 7 -1.5
v -2 6 2.5
v -2 7 2.5
v -1 6 2.5
v -1 7 2.5
v 1 6 2.5
v 1 7 2.5
v 2 6 2.5
v 2 7 2.5
v -3 4 1.5
v -3 5 1.5
v -2 3 1.5
v -2 4 1.5
v -2 5 1.5
v -2 6 1.5
v -1 3 1.5
v -1 4 1.5
v -1 5 1.5
v -1 6 1.5
v 1 3 1.5
v 1 4 1.5
v 1 5 1.5
v 1 6 1.5
v 2 3 1.5
v 2 4 1.5
v 2 5 1.5
v 2 6 1.5
v 3 4 1.5
v 3 5 1.5
v -3 6 0.5
v -3 7 0.5
v -2 6 0.5
v -2 7 0.5
v 2 6 0.5
v 2 7 0.5
v 3 6 0.5
v 3 7 0.5
v -3 4 0.5
v -3 5 0.5
v -2 4 0.5
v -2 5 0.5
v 2 4 0.5
v 2 5 0.5
v 3 4 0.5
v 3 5 0.5
v -3 6 -1.5
v -3 7 -1.5
v -2 4 -1.5
v -2 6 -1.5
v -2 7 -1.5
v 2 4 -1.5
v 2 6 -1.5
v 2 7 -1.5
v 3 6 -1.5
v 3 7 -1.5
v -2 3 -2.5
v -2 4 -2.5
v -2 6 -2.5
v -2 7 -2.5
v 2 3 -2.5
v 2 4 -2.5
v 2 6 -2.5
v 2 7 -2.5
v -2 3 1.5
v -1 3 1.5
v 1 3 1.5
v 2 3 1.5
v -2 3 0.5
v -1 3 0.5
v 1 3 0.5
v 2 3 0.5
v -2 3 -0.5
v -1 3 -0.5
v 1 3 -0.5
v 2 3 -0.5
v -2 3 -1.5
v 2 3 -1.5
v -2 3 -2.5
v 2 3 -2.5
v -3 4 1.5
v -2 4 1.5
v 2 4 1.5
v 3 4 1.5
v -3 4 0.5
v -2 4 0.5
v 2 4 0.5
v 3 4 0.5
v -2 6 2.5
v -1 6 2.5
v 1 6 2.5
v 2 6 2.5
v -2 6 1.5
v -1 6 1.5
v 1 6 1.5
v 2 6 1.5
v -3 6 0.5
v -2 6 0.5
v 2 6 0.5
v 3 6 0.5
v -3 6 -0.5
v -2 6 -0.5
v 2 6 -0.5
v 3 6 -0.5
v -3 6 -1.5
v -2 6 -1.5
v 2 6 -1.5
v 3 6 -1.5
v -2 6 -2.5
v 2 6 -2.5
v -2 4 -1.5
v 2 4 -1.5
v -2 4 -2.5
v 2 4 -2.5
v -3 5 1.5
v -2 5 1.5
v 2 5 1.5
v 3 5 1.5
v -3 5 0.5
v -2 5 0.5
v 2 5 0.5
v 3 5 0.5
v -2 7 2.5
v -1 7 2.5
v 1 7 2.5
v 2 7 2.5
v -1 7 1.5
v 1 7 1.5
v 2 7 1.5
v -3 7 0.5
v -2 7 0.5
v -1 7 0.5
v 1 7 0.5
v 2 7 0.5
v 3 7 0.5
v -3 7 -0.5
v -2 7 -0.5
v 2 7 -0.5
v 3 7 -0.5
v -3 7 -1.5
v -2 7 -1.5
v 2 7 -1.5
v 3 7 -1.5
v -2 7 -2.5
v 2 7 -2.5

# faces
f 3/8/1 2/8/1 1/8/1
f 4/8/1 2/8/1 3/8/1
f 8/7/1 6/7/1 5/7/1
f 9/9/1 7/9/1 6/9/1
f 9/7/1 6/7/1 8/7/1
f 10/9/1 7/9/1 9/9/1
f 16/8/1 12/8/1 11/8/1
f 17/9/1 13/9/1 12/9/1
f 17/8/1 12/8/1 16/8/1
f 18/7/1 14/7/1 13/7/1
f 18/9/1 13/9/1 17/9/1
f 19/9/1 15/9/1 14/9/1
f 19/7/1 14/7/1 18/7/1
f 20/9/1 15/9/1 19/9/1
f 22/7/1 18/7/1 17/7/1
f 22/7/1 19/7/1 18/7/1
f 24/4/1 22/4/1 21/4/1
f 25/7/1 19/7/1 22/7/1
f 25/4/1 22/4/1 24/4/1
f 26/7/1 19/7/1 25/7/1
f 27/7/1 19/7/1 26/7/1
f 29/7/1 24/7/1 23/7/1
f 29/7/1 25/7/1 24/7/1
f 30/7/1 25/7/1 29/7/1
f 31/9/1 28/9/1 27/9/1
f 32/9/1 28/9/1 31/9/1
f 33/10/2 34/10/2 38/10/2
f 34/9/2 35/9/2 39/9/2
f 38/10/2 34/10/2 39/10/2
f 35/7/2 36/7/2 40/7/2
f 39/9/2 35/9/2 40/9/2
f 36/9/2 37/9/2 41/9/2
f 40/7/2 36/7/2 41/7/2
f 41/9/2 37/9/2 42/9/2
f 39/7/2 40/7/2 44/7/2
f 40/7/2 41/7/2 44/7/2
f 43/4/2 44/4/2 46/4/2
f 44/7/2 41/7/2 47/7/2
f 46/4/2 44/4/2 47/4/2
f 47/7/2 41/7/2 48/7/2
f 48/7/2 41/7/2 49/7/2
f 45/6/2 46/6/2 51/6/2
f 46/7/2 47/7/2 52/7/2
f 51/6/2 46/6/2 52/6/2
f 52/7/2 47/7/2 53/7/2
f 49/9/2 50/9/2 54/9/2
f 54/9/2 50/9/2 55/9/2
f 56/10/2 57/10/2 58/10/2
f 58/10/2 57/10/2 59/10/2
f 60/7/2 61/7/2 63/7/2
f 61/9/2 62/9/2 64/9/2
f 63/7/2 61/7/2 64/7/2
f 64/9/2 62/9/2 65/9/2
f 68/7/3 67/7/3 66/7/3
f 69/7/3 67/7/3 68/7/3
f 70/5/3 69/5/3 68/5/3
f 71/5/3 69/5/3 70/5/3
f 72/6/3 71/6/3 70/6/3
f 73/6/3 71/6/3 72/6/3
f 77/8/3 75/8/3 74/8/3
f 78/8/3 75/8/3 77/8/3
f 80/8/3 77/8/3 76/8/3
f 81/7/3 78/7/3 77/7/3
f 81/8/3 77/8/3 80/8/3
f 82/4/3 79/4/3 78/4/3
f 82/7/3 78/7/3 81/7/3
f 83/4/3 79/4/3 82/4/3
f 84/7/3 81/7/3 80/7/3
f 85/1/3 82/1/3 81/1/3
f 85/7/3 81/7/3 84/7/3
f 86/7/3 83/7/3 82/7/3
f 86/1/3 82/1/3 85/1/3
f 87/7/3 83/7/3 86/7/3
f 88/10/3 85/10/3 84/10/3
f 89/7/3 86/7/3 85/7/3
f 89/10/3 85/10/3 88/10/3
f 90/4/3 87/4/3 86/4/3
f 90/7/3 86/7/3 89/7/3
f 91/4/3 87/4/3 90/4/3
f 92/10/3 90/10/3 89/10/3
f 93/10/3 90/10/3 92/10/3
f 96/7/3 95/7/3 94/7/3
f 97/7/3 95/7/3 96/7/3
f 100/7/3 99/7/3 98/7/3
f 101/7/3 99/7/3 100/7/3
f 102/8/4 103/8/4 104/8/4
f 104/8/4 103/8/4 105/8/4
f 106/10/4 107/10/4 108/10/4
f 108/10/4 107/10/4 109/10/4
f 110/9/4 111/9/4 113/9/4
f 113/9/4 111/9/4 114/9/4
f 112/7/4 113/7/4 115/7/4
f 115/7/4 113/7/4 116/7/4
f 116/9/4 117/9/4 118/9/4
f 118/9/4 117/9/4 119/9/4
f 120/9/4 121/9/4 124/9/4
f 124/9/4 121/9/4 125/9/4
f 122/9/4 123/9/4 126/9/4
f 126/9/4 123/9/4 127/9/4
f 132/8/5 129/8/5 128/8/5
f 133/7/5 130/7/5 129/7/5
f 133/8/5 129/8/5 132/8/5
f 134/10/5 131/10/5 130/10/5
f 134/7/5 130/7/5 133/7/5
f 135/10/5 131/10/5 134/10/5
f 136/9/5 133/9/5 132/9/5
f 137/7/5 134/7/5 133/7/5
f 137/9/5 133/9/5 136/9/5
f 138/9/5 135/9/5 134/9/5
f 138/7/5 134/7/5 137/7/5
f 139/9/5 135/9/5 138/9/5
f 140/7/5 137/7/5 136/7/5
f 140/7/5 138/7/5 137/7/5
f 140/7/5 139/7/5 138/7/5
f 141/7/5 139/7/5 140/7/5
f 142/9/5 141/9/5 140/9/5
f 143/9/5 141/9/5 142/9/5
f 148/8/5 145/8/5 144/8/5
f 149/8/5 145/8/5 148/8/5
f 150/10/5 147/10/5 146/10/5
f 151/10/5 147/10/5 150/10/5
f 156/7/5 153/7/5 152/7/5
f 157/5/5 154/5/5 153/5/5
f 157/7/5 153/7/5 156/7/5
f 158/6/5 155/6/5 154/6/5
f 158/5/5 154/5/5 157/5/5
f 159/6/5 155/6/5 158/6/5
f 164/7/5 161/7/5 160/7/5
f 165/7/5 161/7/5 164/7/5
f 166/7/5 163/7/5 162/7/5
f 167/7/5 163/7/5 166/7/5
f 168/9/5 165/9/5 164/9/5
f 169/9/5 165/9/5 168/9/5
f 170/9/5 167/9/5 166/9/5
f 171/9/5 167/9/5 170/9/5
f 172/9/5 170/9/5 169/9/5
f 173/9/5 170/9/5 172/9/5
f 174/9/6 175/9/6 176/9/6
f 176/9/6 175/9/6 177/9/6
f 178/8/6 179/8/6 182/8/6
f 182/8/6 179/8/6 183/8/6
f 180/10/6 181/10/6 184/10/6
f 184/10/6 181/10/6 185/10/6
f 186/7/6 187/7/6 190/7/6
f 187/5/6 188/5/6 190/5/6
f 188/6/6 189/6/6 191/6/6
f 190/5/6 188/5/6 191/5/6
f 191/6/6 189/6/6 192/6/6
f 186/7/6 190/7/6 194/7/6
f 190/3/6 191/3/6 195/3/6
f 194/7/6 190/7/6 195/7/6
f 191/7/6 192/7/6 196/7/6
f 195/3/6 191/3/6 196/3/6
f 196/7/6 192/7/6 197/7/6
f 193/7/6 194/7/6 199/7/6
f 196/9/6 197/9/6 200/9/6
f 199/7/6 194/7/6 200/7/6
f 194/9/6 195/9/6 200/9/6
f 195/9/6 196/9/6 200/9/6
f 197/7/6 198/7/6 201/7/6
f 200/9/6 197/9/6 201/9/6
f 201/7/6 198/7/6 202/7/6
f 199/9/6 200/9/6 203/9/6
f 200/9/6 201/9/6 203/9/6
f 201/9/6 202/9/6 203/9/6
f 203/9/6 202/9/6 204/9/6
f 204/9/6 202/9/6 205/9/6
f 205/9/6 202/9/6 206/9/6
f 204/9/6 205/9/6 207/9/6
f 207/9/6 205/9/6 208/9/6
