# MagicaVoxel @ ephtracy

# material
mtllib C01_fly_left.mtl
usemtl palette

# normals
vn -1 0 0
vn 1 0 0
vn 0 0 1
vn 0 0 -1
vn 0 -1 0
vn 0 1 0

# texcoords
vt 0.0332031 0.5
vt 0.958984 0.5
vt 0.970703 0.5
vt 0.990234 0.5

# verts
v 1 6 -5.5
v 1 6 -7.5
v 1 7 -5.5
v 1 7 -7.5
v 2 7 -5.5
v 2 7 -7.5
v 2 8 -5.5
v 2 8 -7.5
v 4 5 -5.5
v 4 5 -7.5
v 4 6 -5.5
v 4 6 -7.5
v 5 8 -5.5
v 5 8 -7.5
v 5 9 -5.5
v 5 9 -7.5
v 6 9 -5.5
v 6 9 -7.5
v 6 10 -5.5
v 6 10 -7.5
v 5 5 -5.5
v 5 5 -7.5
v 5 6 -5.5
v 5 6 -7.5
v 6 6 -5.5
v 6 6 -7.5
v 6 8 -5.5
v 6 8 -7.5
v 7 8 -5.5
v 7 8 -7.5
v 7 10 -5.5
v 7 10 -7.5
v 1 6 -5.5
v 1 7 -5.5
v 2 6 -5.5
v 2 7 -5.5
v 2 8 -5.5
v 4 5 -5.5
v 4 6 -5.5
v 4 7 -5.5
v 4 8 -5.5
v 5 5 -5.5
v 5 6 -5.5
v 5 7 -5.5
v 5 8 -5.5
v 5 9 -5.5
v 6 6 -5.5
v 6 8 -5.5
v 6 9 -5.5
v 6 10 -5.5
v 7 8 -5.5
v 7 10 -5.5
v 1 6 -7.5
v 1 7 -7.5
v 2 6 -7.5
v 2 7 -7.5
v 2 8 -7.5
v 4 5 -7.5
v 4 6 -7.5
v 4 7 -7.5
v 4 8 -7.5
v 5 5 -7.5
v 5 6 -7.5
v 5 7 -7.5
v 5 8 -7.5
v 5 9 -7.5
v 6 6 -7.5
v 6 8 -7.5
v 6 9 -7.5
v 6 10 -7.5
v 7 8 -7.5
v 7 10 -7.5
v 4 5 -5.5
v 5 5 -5.5
v 4 5 -7.5
v 5 5 -7.5
v 1 6 -5.5
v 2 6 -5.5
v 4 6 -5.5
v 5 6 -5.5
v 6 6 -5.5
v 1 6 -7.5
v 2 6 -7.5
v 4 6 -7.5
v 5 6 -7.5
v 6 6 -7.5
v 6 8 -5.5
v 7 8 -5.5
v 6 8 -7.5
v 7 8 -7.5
v 1 7 -5.5
v 2 7 -5.5
v 1 7 -7.5
v 2 7 -7.5
v 2 8 -5.5
v 4 8 -5.5
v 5 8 -5.5
v 2 8 -7.5
v 4 8 -7.5
v 5 8 -7.5
v 5 9 -5.5
v 6 9 -5.5
v 5 9 -7.5
v 6 9 -7.5
v 6 10 -5.5
v 7 10 -5.5
v 6 10 -7.5
v 7 10 -7.5

# faces
f 3/4/1 2/4/1 1/4/1
f 4/4/1 2/4/1 3/4/1
f 7/3/1 6/3/1 5/3/1
f 8/3/1 6/3/1 7/3/1
f 11/2/1 10/2/1 9/2/1
f 12/2/1 10/2/1 11/2/1
f 15/2/1 14/2/1 13/2/1
f 16/2/1 14/2/1 15/2/1
f 19/2/1 18/2/1 17/2/1
f 20/2/1 18/2/1 19/2/1
f 21/2/2 22/2/2 23/2/2
f 23/2/2 22/2/2 24/2/2
f 25/2/2 26/2/2 27/2/2
f 27/2/2 26/2/2 28/2/2
f 29/2/2 30/2/2 31/2/2
f 31/2/2 30/2/2 32/2/2
f 35/4/3 34/4/3 33/4/3
f 36/4/3 34/4/3 35/4/3
f 39/3/3 36/3/3 35/3/3
f 39/3/3 37/3/3 36/3/3
f 40/3/3 37/3/3 39/3/3
f 41/3/3 37/3/3 40/3/3
f 42/2/3 39/2/3 38/2/3
f 43/3/3 40/3/3 39/3/3
f 43/2/3 39/2/3 42/2/3
f 44/1/3 41/1/3 40/1/3
f 44/3/3 40/3/3 43/3/3
f 45/1/3 41/1/3 44/1/3
f 47/2/3 45/2/3 44/2/3
f 47/2/3 46/2/3 45/2/3
f 47/2/3 44/2/3 43/2/3
f 48/2/3 46/2/3 47/2/3
f 49/2/3 46/2/3 48/2/3
f 51/2/3 50/2/3 49/2/3
f 51/2/3 49/2/3 48/2/3
f 52/2/3 50/2/3 51/2/3
f 53/4/4 54/4/4 55/4/4
f 55/4/4 54/4/4 56/4/4
f 55/3/4 56/3/4 59/3/4
f 56/3/4 57/3/4 59/3/4
f 59/3/4 57/3/4 60/3/4
f 60/3/4 57/3/4 61/3/4
f 58/2/4 59/2/4 62/2/4
f 59/3/4 60/3/4 63/3/4
f 62/2/4 59/2/4 63/2/4
f 60/1/4 61/1/4 64/1/4
f 63/3/4 60/3/4 64/3/4
f 64/1/4 61/1/4 65/1/4
f 64/2/4 65/2/4 67/2/4
f 65/2/4 66/2/4 67/2/4
f 63/2/4 64/2/4 67/2/4
f 67/2/4 66/2/4 68/2/4
f 68/2/4 66/2/4 69/2/4
f 69/2/4 70/2/4 71/2/4
f 68/2/4 69/2/4 71/2/4
f 71/2/4 70/2/4 72/2/4
f 75/2/5 74/2/5 73/2/5
f 76/2/5 74/2/5 75/2/5
f 82/4/5 78/4/5 77/4/5
f 83/3/5 79/3/5 78/3/5
f 83/4/5 78/4/5 82/4/5
f 84/3/5 79/3/5 83/3/5
f 85/2/5 81/2/5 80/2/5
f 86/2/5 81/2/5 85/2/5
f 89/2/5 88/2/5 87/2/5
f 90/2/5 88/2/5 89/2/5
f 91/4/6 92/4/6 93/4/6
f 93/4/6 92/4/6 94/4/6
f 95/3/6 96/3/6 98/3/6
f 96/1/6 97/1/6 99/1/6
f 98/3/6 96/3/6 99/3/6
f 99/1/6 97/1/6 100/1/6
f 101/2/6 102/2/6 103/2/6
f 103/2/6 102/2/6 104/2/6
f 105/2/6 106/2/6 107/2/6
f 107/2/6 106/2/6 108/2/6
