# MagicaVoxel @ ephtracy

# material
mtllib PeaShooter.mtl
usemtl palette

# normals
vn -1 0 0
vn 1 0 0
vn 0 0 1
vn 0 0 -1
vn 0 -1 0
vn 0 1 0

# texcoords
vt 0.0410156 0.5
vt 0.373047 0.5
vt 0.802734 0.5
vt 0.837891 0.5
vt 0.841797 0.5
vt 0.962891 0.5
vt 0.974609 0.5
vt 0.990234 0.5

# verts
v -4 0 0.5
v -4 0 -0.5
v -4 1 0.5
v -4 1 -0.5
v -4 2 0.5
v -4 2 -0.5
v -2 2 0.5
v -2 2 -0.5
v -2 3 0.5
v -2 3 -0.5
v -1 2 1.5
v -1 2 0.5
v -1 2 -0.5
v -1 2 -1.5
v -1 3 0.5
v -1 3 -0.5
v -1 4 1.5
v -1 4 -1.5
v 0 4 0.5
v 0 4 -0.5
v 0 5 0.5
v 0 5 -0.5
v 2 1 0.5
v 2 1 -0.5
v 2 2 0.5
v 2 2 -0.5
v -1 0 0.5
v -1 0 -0.5
v -1 1 0.5
v -1 1 -0.5
v 1 1 0.5
v 1 1 -0.5
v 1 2 0.5
v 1 2 -0.5
v 4 1 0.5
v 4 1 -0.5
v 4 2 0.5
v 4 2 -0.5
v 5 2 1.5
v 5 2 0.5
v 5 2 -0.5
v 5 2 -1.5
v 5 3 1.5
v 5 3 0.5
v 5 3 -0.5
v 5 3 -1.5
v 8 4 0.5
v 8 4 -0.5
v 8 5 0.5
v 8 5 -0.5
v 9 2 0.5
v 9 2 -0.5
v 9 3 1.5
v 9 3 0.5
v 9 3 -0.5
v 9 3 -1.5
v 9 4 1.5
v 9 4 0.5
v 9 4 -0.5
v 9 4 -1.5
v -1 2 1.5
v -1 4 1.5
v 0 2 1.5
v 0 3 1.5
v 3 3 1.5
v 3 4 1.5
v 4 2 1.5
v 4 3 1.5
v 5 2 1.5
v 5 3 1.5
v 5 4 1.5
v 6 3 1.5
v 6 4 1.5
v 7 3 1.5
v 7 4 1.5
v 8 3 1.5
v 8 4 1.5
v 9 3 1.5
v 9 4 1.5
v -4 0 0.5
v -4 1 0.5
v -4 2 0.5
v -3 1 0.5
v -3 2 0.5
v -2 2 0.5
v -2 3 0.5
v -1 0 0.5
v -1 1 0.5
v -1 2 0.5
v -1 3 0.5
v 0 1 0.5
v 0 2 0.5
v 0 4 0.5
v 0 5 0.5
v 1 1 0.5
v 1 2 0.5
v 2 1 0.5
v 2 2 0.5
v 2 4 0.5
v 2 5 0.5
v 3 4 0.5
v 4 1 0.5
v 4 2 0.5
v 5 2 0.5
v 5 3 0.5
v 5 4 0.5
v 6 2 0.5
v 6 3 0.5
v 6 4 0.5
v 7 2 0.5
v 7 3 0.5
v 7 4 0.5
v 7 5 0.5
v 8 2 0.5
v 8 3 0.5
v 8 4 0.5
v 8 5 0.5
v 9 2 0.5
v 9 3 0.5
v -4 0 -0.5
v -4 1 -0.5
v -4 2 -0.5
v -3 1 -0.5
v -3 2 -0.5
v -2 2 -0.5
v -2 3 -0.5
v -1 0 -0.5
v -1 1 -0.5
v -1 2 -0.5
v -1 3 -0.5
v 0 1 -0.5
v 0 2 -0.5
v 0 4 -0.5
v 0 5 -0.5
v 1 1 -0.5
v 1 2 -0.5
v 2 1 -0.5
v 2 2 -0.5
v 2 4 -0.5
v 2 5 -0.5
v 3 4 -0.5
v 4 1 -0.5
v 4 2 -0.5
v 5 2 -0.5
v 5 3 -0.5
v 5 4 -0.5
v 6 2 -0.5
v 6 3 -0.5
v 6 4 -0.5
v 7 2 -0.5
v 7 3 -0.5
v 7 4 -0.5
v 7 5 -0.5
v 8 2 -0.5
v 8 3 -0.5
v 8 4 -0.5
v 8 5 -0.5
v 9 2 -0.5
v 9 3 -0.5
v -1 2 -1.5
v -1 4 -1.5
v 0 2 -1.5
v 0 3 -1.5
v 3 3 -1.5
v 3 4 -1.5
v 4 2 -1.5
v 4 3 -1.5
v 5 2 -1.5
v 5 3 -1.5
v 5 4 -1.5
v 6 3 -1.5
v 6 4 -1.5
v 7 3 -1.5
v 7 4 -1.5
v 8 3 -1.5
v 8 4 -1.5
v 9 3 -1.5
v 9 4 -1.5
v -4 0 0.5
v -1 0 0.5
v -4 0 -0.5
v -1 0 -0.5
v -1 1 0.5
v 0 1 0.5
v 1 1 0.5
v 2 1 0.5
v 4 1 0.5
v -1 1 -0.5
v 0 1 -0.5
v 1 1 -0.5
v 2 1 -0.5
v 4 1 -0.5
v -1 2 1.5
v 0 2 1.5
v 4 2 1.5
v 5 2 1.5
v -1 2 0.5
v 0 2 0.5
v 1 2 0.5
v 2 2 0.5
v 4 2 0.5
v 5 2 0.5
v 6 2 0.5
v 7 2 0.5
v 8 2 0.5
v 9 2 0.5
v -1 2 -0.5
v 0 2 -0.5
v 1 2 -0.5
v 2 2 -0.5
v 4 2 -0.5
v 5 2 -0.5
v 6 2 -0.5
v 7 2 -0.5
v 8 2 -0.5
v 9 2 -0.5
v -1 2 -1.5
v 0 2 -1.5
v 4 2 -1.5
v 5 2 -1.5
v 5 3 1.5
v 6 3 1.5
v 7 3 1.5
v 8 3 1.5
v 9 3 1.5
v 5 3 0.5
v 6 3 0.5
v 7 3 0.5
v 8 3 0.5
v 9 3 0.5
v 5 3 -0.5
v 6 3 -0.5
v 7 3 -0.5
v 8 3 -0.5
v 9 3 -0.5
v 5 3 -1.5
v 6 3 -1.5
v 7 3 -1.5
v 8 3 -1.5
v 9 3 -1.5
v -4 2 0.5
v -3 2 0.5
v -2 2 0.5
v -4 2 -0.5
v -3 2 -0.5
v -2 2 -0.5
v -2 3 0.5
v -1 3 0.5
v -2 3 -0.5
v -1 3 -0.5
v -1 4 1.5
v 3 4 1.5
v 5 4 1.5
v 6 4 1.5
v 7 4 1.5
v 8 4 1.5
v 9 4 1.5
v 0 4 0.5
v 2 4 0.5
v 3 4 0.5
v 5 4 0.5
v 6 4 0.5
v 7 4 0.5
v 8 4 0.5
v 9 4 0.5
v 0 4 -0.5
v 2 4 -0.5
v 3 4 -0.5
v 5 4 -0.5
v 6 4 -0.5
v 7 4 -0.5
v 8 4 -0.5
v 9 4 -0.5
v -1 4 -1.5
v 3 4 -1.5
v 5 4 -1.5
v 6 4 -1.5
v 7 4 -1.5
v 8 4 -1.5
v 9 4 -1.5
v 0 5 0.5
v 2 5 0.5
v 7 5 0.5
v 8 5 0.5
v 0 5 -0.5
v 2 5 -0.5
v 7 5 -0.5
v 8 5 -0.5

# faces
f 3/8/1 2/8/1 1/8/1
f 4/8/1 2/8/1 3/8/1
f 5/3/1 4/3/1 3/3/1
f 6/3/1 4/3/1 5/3/1
f 9/8/1 8/8/1 7/8/1
f 10/8/1 8/8/1 9/8/1
f 15/3/1 12/3/1 11/3/1
f 16/3/1 14/3/1 13/3/1
f 17/3/1 15/3/1 11/3/1
f 17/3/1 16/3/1 15/3/1
f 18/3/1 14/3/1 16/3/1
f 18/3/1 16/3/1 17/3/1
f 21/8/1 20/8/1 19/8/1
f 22/8/1 20/8/1 21/8/1
f 25/3/1 24/3/1 23/3/1
f 26/3/1 24/3/1 25/3/1
f 27/8/2 28/8/2 29/8/2
f 29/8/2 28/8/2 30/8/2
f 31/3/2 32/3/2 33/3/2
f 33/3/2 32/3/2 34/3/2
f 35/3/2 36/3/2 37/3/2
f 37/3/2 36/3/2 38/3/2
f 39/3/2 40/3/2 43/3/2
f 43/3/2 40/3/2 44/3/2
f 41/3/2 42/3/2 45/3/2
f 45/3/2 42/3/2 46/3/2
f 47/8/2 48/8/2 49/8/2
f 49/8/2 48/8/2 50/8/2
f 51/1/2 52/1/2 54/1/2
f 54/1/2 52/1/2 55/1/2
f 53/1/2 54/1/2 57/1/2
f 54/7/2 55/7/2 58/7/2
f 57/1/2 54/1/2 58/1/2
f 55/1/2 56/1/2 59/1/2
f 58/7/2 55/7/2 59/7/2
f 59/1/2 56/1/2 60/1/2
f 63/3/3 62/3/3 61/3/3
f 64/3/3 62/3/3 63/3/3
f 65/8/3 64/8/3 63/8/3
f 65/3/3 62/3/3 64/3/3
f 66/3/3 62/3/3 65/3/3
f 67/8/3 65/8/3 63/8/3
f 67/8/3 66/8/3 65/8/3
f 68/8/3 66/8/3 67/8/3
f 69/3/3 68/3/3 67/3/3
f 70/8/3 66/8/3 68/8/3
f 70/3/3 68/3/3 69/3/3
f 71/8/3 66/8/3 70/8/3
f 72/3/3 71/3/3 70/3/3
f 73/3/3 71/3/3 72/3/3
f 74/6/3 73/6/3 72/6/3
f 75/6/3 73/6/3 74/6/3
f 76/3/3 75/3/3 74/3/3
f 77/3/3 75/3/3 76/3/3
f 78/1/3 77/1/3 76/1/3
f 79/1/3 77/1/3 78/1/3
f 83/8/3 81/8/3 80/8/3
f 83/3/3 82/3/3 81/3/3
f 84/3/3 82/3/3 83/3/3
f 85/8/3 84/8/3 83/8/3
f 87/8/3 83/8/3 80/8/3
f 87/8/3 86/8/3 85/8/3
f 87/8/3 85/8/3 83/8/3
f 88/8/3 86/8/3 87/8/3
f 89/8/3 86/8/3 88/8/3
f 90/8/3 86/8/3 89/8/3
f 91/8/3 89/8/3 88/8/3
f 92/8/3 89/8/3 91/8/3
f 95/3/3 92/3/3 91/3/3
f 96/3/3 92/3/3 95/3/3
f 99/8/3 94/8/3 93/8/3
f 100/8/3 94/8/3 99/8/3
f 101/1/3 100/1/3 99/1/3
f 102/3/3 98/3/3 97/3/3
f 103/3/3 98/3/3 102/3/3
f 106/1/3 100/1/3 101/1/3
f 107/8/3 105/8/3 104/8/3
f 108/8/3 105/8/3 107/8/3
f 109/1/3 100/1/3 106/1/3
f 110/3/3 108/3/3 107/3/3
f 111/3/3 108/3/3 110/3/3
f 112/1/3 100/1/3 109/1/3
f 113/1/3 100/1/3 112/1/3
f 114/8/3 111/8/3 110/8/3
f 115/8/3 111/8/3 114/8/3
f 116/8/3 113/8/3 112/8/3
f 117/8/3 113/8/3 116/8/3
f 118/1/3 115/1/3 114/1/3
f 119/1/3 115/1/3 118/1/3
f 120/8/4 121/8/4 123/8/4
f 121/3/4 122/3/4 123/3/4
f 123/3/4 122/3/4 124/3/4
f 123/8/4 124/8/4 125/8/4
f 120/8/4 123/8/4 127/8/4
f 125/8/4 126/8/4 127/8/4
f 123/8/4 125/8/4 127/8/4
f 127/8/4 126/8/4 128/8/4
f 128/8/4 126/8/4 129/8/4
f 129/8/4 126/8/4 130/8/4
f 128/8/4 129/8/4 131/8/4
f 131/8/4 129/8/4 132/8/4
f 131/3/4 132/3/4 135/3/4
f 135/3/4 132/3/4 136/3/4
f 133/8/4 134/8/4 139/8/4
f 139/8/4 134/8/4 140/8/4
f 139/1/4 140/1/4 141/1/4
f 137/3/4 138/3/4 142/3/4
f 142/3/4 138/3/4 143/3/4
f 141/1/4 140/1/4 146/1/4
f 144/8/4 145/8/4 147/8/4
f 147/8/4 145/8/4 148/8/4
f 146/1/4 140/1/4 149/1/4
f 147/3/4 148/3/4 150/3/4
f 150/3/4 148/3/4 151/3/4
f 149/1/4 140/1/4 152/1/4
f 152/1/4 140/1/4 153/1/4
f 150/8/4 151/8/4 154/8/4
f 154/8/4 151/8/4 155/8/4
f 152/8/4 153/8/4 156/8/4
f 156/8/4 153/8/4 157/8/4
f 154/1/4 155/1/4 158/1/4
f 158/1/4 155/1/4 159/1/4
f 160/3/4 161/3/4 162/3/4
f 162/3/4 161/3/4 163/3/4
f 162/8/4 163/8/4 164/8/4
f 163/3/4 161/3/4 164/3/4
f 164/3/4 161/3/4 165/3/4
f 162/8/4 164/8/4 166/8/4
f 164/8/4 165/8/4 166/8/4
f 166/8/4 165/8/4 167/8/4
f 166/3/4 167/3/4 168/3/4
f 167/8/4 165/8/4 169/8/4
f 168/3/4 167/3/4 169/3/4
f 169/8/4 165/8/4 170/8/4
f 169/3/4 170/3/4 171/3/4
f 171/3/4 170/3/4 172/3/4
f 171/6/4 172/6/4 173/6/4
f 173/6/4 172/6/4 174/6/4
f 173/3/4 174/3/4 175/3/4
f 175/3/4 174/3/4 176/3/4
f 175/1/4 176/1/4 177/1/4
f 177/1/4 176/1/4 178/1/4
f 181/8/5 180/8/5 179/8/5
f 182/8/5 180/8/5 181/8/5
f 188/8/5 184/8/5 183/8/5
f 189/3/5 185/3/5 184/3/5
f 189/8/5 184/8/5 188/8/5
f 190/3/5 185/3/5 189/3/5
f 191/3/5 187/3/5 186/3/5
f 192/3/5 187/3/5 191/3/5
f 197/3/5 194/3/5 193/3/5
f 198/8/5 195/8/5 194/8/5
f 198/3/5 194/3/5 197/3/5
f 199/8/5 195/8/5 198/8/5
f 200/8/5 195/8/5 199/8/5
f 201/3/5 196/3/5 195/3/5
f 201/8/5 195/8/5 200/8/5
f 202/3/5 196/3/5 201/3/5
f 209/4/5 200/4/5 199/4/5
f 210/4/5 200/4/5 209/4/5
f 211/3/5 202/3/5 201/3/5
f 212/8/5 203/8/5 202/8/5
f 212/3/5 202/3/5 211/3/5
f 213/3/5 204/3/5 203/3/5
f 213/8/5 203/8/5 212/8/5
f 214/8/5 205/8/5 204/8/5
f 214/3/5 204/3/5 213/3/5
f 215/1/5 206/1/5 205/1/5
f 215/8/5 205/8/5 214/8/5
f 216/1/5 206/1/5 215/1/5
f 217/3/5 208/3/5 207/3/5
f 218/8/5 209/8/5 208/8/5
f 218/3/5 208/3/5 217/3/5
f 218/8/5 210/8/5 209/8/5
f 218/8/5 211/8/5 210/8/5
f 219/3/5 212/3/5 211/3/5
f 219/8/5 211/8/5 218/8/5
f 220/3/5 212/3/5 219/3/5
f 226/3/5 222/3/5 221/3/5
f 227/6/5 223/6/5 222/6/5
f 227/3/5 222/3/5 226/3/5
f 228/3/5 224/3/5 223/3/5
f 228/6/5 223/6/5 227/6/5
f 229/1/5 225/1/5 224/1/5
f 229/3/5 224/3/5 228/3/5
f 230/1/5 225/1/5 229/1/5
f 236/3/5 232/3/5 231/3/5
f 237/6/5 233/6/5 232/6/5
f 237/3/5 232/3/5 236/3/5
f 238/3/5 234/3/5 233/3/5
f 238/6/5 233/6/5 237/6/5
f 239/1/5 235/1/5 234/1/5
f 239/3/5 234/3/5 238/3/5
f 240/1/5 235/1/5 239/1/5
f 241/3/6 242/3/6 244/3/6
f 242/8/6 243/8/6 245/8/6
f 244/3/6 242/3/6 245/3/6
f 245/8/6 243/8/6 246/8/6
f 247/8/6 248/8/6 249/8/6
f 249/8/6 248/8/6 250/8/6
f 251/3/6 252/3/6 258/3/6
f 258/3/6 252/3/6 259/3/6
f 252/8/6 253/8/6 260/8/6
f 259/3/6 252/3/6 260/3/6
f 253/3/6 254/3/6 261/3/6
f 260/8/6 253/8/6 261/8/6
f 254/6/6 255/6/6 262/6/6
f 261/3/6 254/3/6 262/3/6
f 255/3/6 256/3/6 263/3/6
f 262/6/6 255/6/6 263/6/6
f 256/1/6 257/1/6 264/1/6
f 263/3/6 256/3/6 264/3/6
f 264/1/6 257/1/6 265/1/6
f 251/3/6 258/3/6 266/3/6
f 264/7/6 265/7/6 272/7/6
f 272/7/6 265/7/6 273/7/6
f 251/3/6 266/3/6 274/3/6
f 266/3/6 267/3/6 274/3/6
f 267/3/6 268/3/6 274/3/6
f 268/8/6 269/8/6 275/8/6
f 274/3/6 268/3/6 275/3/6
f 269/3/6 270/3/6 276/3/6
f 275/8/6 269/8/6 276/8/6
f 270/6/6 271/6/6 277/6/6
f 276/3/6 270/3/6 277/3/6
f 271/3/6 272/3/6 278/3/6
f 277/6/6 271/6/6 278/6/6
f 272/1/6 273/1/6 279/1/6
f 278/3/6 272/3/6 279/3/6
f 279/1/6 273/1/6 280/1/6
f 281/8/6 282/8/6 285/8/6
f 282/1/6 283/1/6 286/1/6
f 285/8/6 282/8/6 286/8/6
f 283/8/6 284/8/6 287/8/6
f 286/1/6 283/1/6 287/1/6
f 287/8/6 284/8/6 288/8/6
