# MagicaVoxel @ ephtracy

# material
mtllib RedMedicine_S.mtl
usemtl palette

# normals
vn -1 0 0
vn 1 0 0
vn 0 0 1
vn 0 0 -1
vn 0 -1 0
vn 0 1 0

# texcoords
vt 0.0683594 0.5
vt 0.853516 0.5
vt 0.861328 0.5
vt 0.869141 0.5
vt 0.970703 0.5

# verts
v -3 8 3
v -3 8 -3
v -3 9 3
v -3 9 -3
v -2 0 2
v -2 0 -2
v -2 1 2
v -2 1 -2
v -2 6 2
v -2 6 -2
v -2 8 2
v -2 8 -2
v -2 9 2
v -2 9 -2
v -2 10 2
v -2 10 -2
v -2 11 2
v -2 11 -2
v -2 12 2
v -2 12 -2
v -1 1 1
v -1 1 -1
v -1 2 1
v -1 2 -1
v -1 6 1
v -1 6 -1
v -1 12 1
v -1 12 -1
v -1 16 1
v -1 16 -1
v -1 17 1
v -1 17 -1
v -1 18 1
v -1 18 -1
v -1 19 1
v -1 19 -1
v 1 1 1
v 1 1 -1
v 1 2 1
v 1 2 -1
v 1 6 1
v 1 6 -1
v 1 12 1
v 1 12 -1
v 1 16 1
v 1 16 -1
v 1 17 1
v 1 17 -1
v 1 18 1
v 1 18 -1
v 1 19 1
v 1 19 -1
v 2 0 2
v 2 0 -2
v 2 1 2
v 2 1 -2
v 2 6 2
v 2 6 -2
v 2 8 2
v 2 8 -2
v 2 9 2
v 2 9 -2
v 2 10 2
v 2 10 -2
v 2 11 2
v 2 11 -2
v 2 12 2
v 2 12 -2
v 3 8 3
v 3 8 -3
v 3 9 3
v 3 9 -3
v -3 8 3
v -3 9 3
v 3 8 3
v 3 9 3
v -2 0 2
v -2 1 2
v -2 6 2
v -2 8 2
v -2 9 2
v -2 10 2
v -2 11 2
v -2 12 2
v 2 0 2
v 2 1 2
v 2 6 2
v 2 8 2
v 2 9 2
v 2 10 2
v 2 11 2
v 2 12 2
v -1 1 1
v -1 2 1
v -1 6 1
v -1 12 1
v -1 16 1
v -1 17 1
v -1 18 1
v -1 19 1
v 1 1 1
v 1 2 1
v 1 6 1
v 1 12 1
v 1 16 1
v 1 17 1
v 1 18 1
v 1 19 1
v -1 1 -1
v -1 2 -1
v -1 6 -1
v -1 12 -1
v -1 16 -1
v -1 17 -1
v -1 18 -1
v -1 19 -1
v 1 1 -1
v 1 2 -1
v 1 6 -1
v 1 12 -1
v 1 16 -1
v 1 17 -1
v 1 18 -1
v 1 19 -1
v -2 0 -2
v -2 1 -2
v -2 6 -2
v -2 8 -2
v -2 9 -2
v -2 10 -2
v -2 11 -2
v -2 12 -2
v 2 0 -2
v 2 1 -2
v 2 6 -2
v 2 8 -2
v 2 9 -2
v 2 10 -2
v 2 11 -2
v 2 12 -2
v -3 8 -3
v -3 9 -3
v 3 8 -3
v 3 9 -3
v -2 0 2
v 2 0 2
v -2 0 -2
v 2 0 -2
v -2 6 2
v 2 6 2
v -1 6 1
v 1 6 1
v -1 6 -1
v 1 6 -1
v -2 6 -2
v 2 6 -2
v -3 8 3
v 3 8 3
v -2 8 2
v 2 8 2
v -2 8 -2
v 2 8 -2
v -3 8 -3
v 3 8 -3
v -2 1 2
v 2 1 2
v -1 1 1
v 1 1 1
v -1 1 -1
v 1 1 -1
v -2 1 -2
v 2 1 -2
v -3 9 3
v 3 9 3
v -2 9 2
v 2 9 2
v -2 9 -2
v 2 9 -2
v -3 9 -3
v 3 9 -3
v -2 12 2
v 2 12 2
v -1 12 1
v 1 12 1
v -1 12 -1
v 1 12 -1
v -2 12 -2
v 2 12 -2
v -1 19 1
v 1 19 1
v -1 19 -1
v 1 19 -1

# faces
f 3/1/1 2/1/1 1/1/1
f 4/1/1 2/1/1 3/1/1
f 7/1/1 6/1/1 5/1/1
f 8/1/1 6/1/1 7/1/1
f 11/2/1 10/2/1 9/2/1
f 12/2/1 10/2/1 11/2/1
f 15/2/1 14/2/1 13/2/1
f 16/2/1 14/2/1 15/2/1
f 17/5/1 16/5/1 15/5/1
f 18/5/1 16/5/1 17/5/1
f 19/1/1 18/1/1 17/1/1
f 20/1/1 18/1/1 19/1/1
f 23/1/1 22/1/1 21/1/1
f 24/1/1 22/1/1 23/1/1
f 25/2/1 24/2/1 23/2/1
f 26/2/1 24/2/1 25/2/1
f 29/5/1 28/5/1 27/5/1
f 30/5/1 28/5/1 29/5/1
f 31/1/1 30/1/1 29/1/1
f 32/1/1 30/1/1 31/1/1
f 33/4/1 32/4/1 31/4/1
f 34/4/1 32/4/1 33/4/1
f 35/3/1 34/3/1 33/3/1
f 36/3/1 34/3/1 35/3/1
f 37/1/2 38/1/2 39/1/2
f 39/1/2 38/1/2 40/1/2
f 39/2/2 40/2/2 41/2/2
f 41/2/2 40/2/2 42/2/2
f 43/5/2 44/5/2 45/5/2
f 45/5/2 44/5/2 46/5/2
f 45/1/2 46/1/2 47/1/2
f 47/1/2 46/1/2 48/1/2
f 47/4/2 48/4/2 49/4/2
f 49/4/2 48/4/2 50/4/2
f 49/3/2 50/3/2 51/3/2
f 51/3/2 50/3/2 52/3/2
f 53/1/2 54/1/2 55/1/2
f 55/1/2 54/1/2 56/1/2
f 57/2/2 58/2/2 59/2/2
f 59/2/2 58/2/2 60/2/2
f 61/2/2 62/2/2 63/2/2
f 63/2/2 62/2/2 64/2/2
f 63/5/2 64/5/2 65/5/2
f 65/5/2 64/5/2 66/5/2
f 65/1/2 66/1/2 67/1/2
f 67/1/2 66/1/2 68/1/2
f 69/1/2 70/1/2 71/1/2
f 71/1/2 70/1/2 72/1/2
f 75/1/3 74/1/3 73/1/3
f 76/1/3 74/1/3 75/1/3
f 85/1/3 78/1/3 77/1/3
f 86/1/3 78/1/3 85/1/3
f 87/2/3 80/2/3 79/2/3
f 88/2/3 80/2/3 87/2/3
f 89/2/3 82/2/3 81/2/3
f 90/5/3 83/5/3 82/5/3
f 90/2/3 82/2/3 89/2/3
f 91/1/3 84/1/3 83/1/3
f 91/5/3 83/5/3 90/5/3
f 92/1/3 84/1/3 91/1/3
f 101/1/3 94/1/3 93/1/3
f 102/2/3 95/2/3 94/2/3
f 102/1/3 94/1/3 101/1/3
f 103/2/3 95/2/3 102/2/3
f 104/5/3 97/5/3 96/5/3
f 105/1/3 98/1/3 97/1/3
f 105/5/3 97/5/3 104/5/3
f 106/4/3 99/4/3 98/4/3
f 106/1/3 98/1/3 105/1/3
f 107/3/3 100/3/3 99/3/3
f 107/4/3 99/4/3 106/4/3
f 108/3/3 100/3/3 107/3/3
f 109/1/4 110/1/4 117/1/4
f 110/2/4 111/2/4 118/2/4
f 117/1/4 110/1/4 118/1/4
f 118/2/4 111/2/4 119/2/4
f 112/5/4 113/5/4 120/5/4
f 113/1/4 114/1/4 121/1/4
f 120/5/4 113/5/4 121/5/4
f 114/4/4 115/4/4 122/4/4
f 121/1/4 114/1/4 122/1/4
f 115/3/4 116/3/4 123/3/4
f 122/4/4 115/4/4 123/4/4
f 123/3/4 116/3/4 124/3/4
f 125/1/4 126/1/4 133/1/4
f 133/1/4 126/1/4 134/1/4
f 127/2/4 128/2/4 135/2/4
f 135/2/4 128/2/4 136/2/4
f 129/2/4 130/2/4 137/2/4
f 130/5/4 131/5/4 138/5/4
f 137/2/4 130/2/4 138/2/4
f 131/1/4 132/1/4 139/1/4
f 138/5/4 131/5/4 139/5/4
f 139/1/4 132/1/4 140/1/4
f 141/1/4 142/1/4 143/1/4
f 143/1/4 142/1/4 144/1/4
f 147/1/5 146/1/5 145/1/5
f 148/1/5 146/1/5 147/1/5
f 151/2/5 150/2/5 149/2/5
f 152/2/5 150/2/5 151/2/5
f 153/2/5 151/2/5 149/2/5
f 154/2/5 150/2/5 152/2/5
f 155/2/5 153/2/5 149/2/5
f 155/2/5 154/2/5 153/2/5
f 156/2/5 150/2/5 154/2/5
f 156/2/5 154/2/5 155/2/5
f 159/1/5 158/1/5 157/1/5
f 160/1/5 158/1/5 159/1/5
f 161/1/5 159/1/5 157/1/5
f 162/1/5 158/1/5 160/1/5
f 163/1/5 161/1/5 157/1/5
f 163/1/5 162/1/5 161/1/5
f 164/1/5 158/1/5 162/1/5
f 164/1/5 162/1/5 163/1/5
f 165/1/6 166/1/6 167/1/6
f 167/1/6 166/1/6 168/1/6
f 165/1/6 167/1/6 169/1/6
f 168/1/6 166/1/6 170/1/6
f 165/1/6 169/1/6 171/1/6
f 169/1/6 170/1/6 171/1/6
f 170/1/6 166/1/6 172/1/6
f 171/1/6 170/1/6 172/1/6
f 173/1/6 174/1/6 175/1/6
f 175/1/6 174/1/6 176/1/6
f 173/1/6 175/1/6 177/1/6
f 176/1/6 174/1/6 178/1/6
f 173/1/6 177/1/6 179/1/6
f 177/1/6 178/1/6 179/1/6
f 178/1/6 174/1/6 180/1/6
f 179/1/6 178/1/6 180/1/6
f 181/1/6 182/1/6 183/1/6
f 183/1/6 182/1/6 184/1/6
f 181/1/6 183/1/6 185/1/6
f 184/1/6 182/1/6 186/1/6
f 181/1/6 185/1/6 187/1/6
f 185/1/6 186/1/6 187/1/6
f 186/1/6 182/1/6 188/1/6
f 187/1/6 186/1/6 188/1/6
f 189/3/6 190/3/6 191/3/6
f 191/3/6 190/3/6 192/3/6
