# MagicaVoxel @ ephtracy

# material
mtllib Sniper Rifle_bullet.mtl
usemtl palette

# normals
vn -1 0 0
vn 1 0 0
vn 0 0 1
vn 0 0 -1
vn 0 -1 0
vn 0 1 0

# texcoords
vt 0.0683594 0.5
vt 0.0917969 0.5
vt 0.806641 0.5
vt 0.919922 0.5

# verts
v -2 0 1
v -2 0 -0
v -2 0 -1
v -2 1 1
v -2 1 -0
v -2 1 -1
v -2 2 1
v -2 2 -0
v -2 2 -1
v 2 0 1
v 2 0 -1
v 2 2 1
v 2 2 -1
v -2 0 1
v -2 1 1
v -2 2 1
v -1 0 1
v -1 1 1
v -1 2 1
v 0 0 1
v 0 1 1
v 0 2 1
v 1 0 1
v 1 2 1
v 2 0 1
v 2 2 1
v -2 0 -1
v -2 1 -1
v -2 2 -1
v -1 0 -1
v -1 1 -1
v -1 2 -1
v 0 0 -1
v 0 1 -1
v 0 2 -1
v 1 0 -1
v 1 2 -1
v 2 0 -1
v 2 2 -1
v -2 0 1
v -1 0 1
v 0 0 1
v 1 0 1
v 2 0 1
v -2 0 -0
v -1 0 -0
v 0 0 -0
v -2 0 -1
v -1 0 -1
v 0 0 -1
v 1 0 -1
v 2 0 -1
v -2 2 1
v -1 2 1
v 0 2 1
v 1 2 1
v 2 2 1
v -2 2 -0
v -1 2 -0
v 0 2 -0
v -2 2 -1
v -1 2 -1
v 0 2 -1
v 1 2 -1
v 2 2 -1

# faces
f 4/2/1 2/2/1 1/2/1
f 5/1/1 3/1/1 2/1/1
f 5/2/1 2/2/1 4/2/1
f 6/1/1 3/1/1 5/1/1
f 7/1/1 5/1/1 4/1/1
f 8/2/1 6/2/1 5/2/1
f 8/1/1 5/1/1 7/1/1
f 9/2/1 6/2/1 8/2/1
f 10/3/2 11/3/2 12/3/2
f 12/3/2 11/3/2 13/3/2
f 17/2/3 15/2/3 14/2/3
f 18/1/3 16/1/3 15/1/3
f 18/2/3 15/2/3 17/2/3
f 19/1/3 16/1/3 18/1/3
f 20/1/3 18/1/3 17/1/3
f 21/2/3 19/2/3 18/2/3
f 21/1/3 18/1/3 20/1/3
f 22/2/3 19/2/3 21/2/3
f 23/4/3 21/4/3 20/4/3
f 23/4/3 22/4/3 21/4/3
f 24/4/3 22/4/3 23/4/3
f 25/3/3 24/3/3 23/3/3
f 26/3/3 24/3/3 25/3/3
f 27/1/4 28/1/4 30/1/4
f 28/2/4 29/2/4 31/2/4
f 30/1/4 28/1/4 31/1/4
f 31/2/4 29/2/4 32/2/4
f 30/2/4 31/2/4 33/2/4
f 31/1/4 32/1/4 34/1/4
f 33/2/4 31/2/4 34/2/4
f 34/1/4 32/1/4 35/1/4
f 33/4/4 34/4/4 36/4/4
f 34/4/4 35/4/4 36/4/4
f 36/4/4 35/4/4 37/4/4
f 36/3/4 37/3/4 38/3/4
f 38/3/4 37/3/4 39/3/4
f 45/2/5 41/2/5 40/2/5
f 46/1/5 42/1/5 41/1/5
f 46/2/5 41/2/5 45/2/5
f 47/4/5 43/4/5 42/4/5
f 47/1/5 42/1/5 46/1/5
f 48/1/5 46/1/5 45/1/5
f 49/2/5 47/2/5 46/2/5
f 49/1/5 46/1/5 48/1/5
f 50/4/5 43/4/5 47/4/5
f 50/2/5 47/2/5 49/2/5
f 51/3/5 44/3/5 43/3/5
f 51/4/5 43/4/5 50/4/5
f 52/3/5 44/3/5 51/3/5
f 53/1/6 54/1/6 58/1/6
f 54/2/6 55/2/6 59/2/6
f 58/1/6 54/1/6 59/1/6
f 55/4/6 56/4/6 60/4/6
f 59/2/6 55/2/6 60/2/6
f 58/2/6 59/2/6 61/2/6
f 59/1/6 60/1/6 62/1/6
f 61/2/6 59/2/6 62/2/6
f 60/4/6 56/4/6 63/4/6
f 62/1/6 60/1/6 63/1/6
f 56/3/6 57/3/6 64/3/6
f 63/4/6 56/4/6 64/4/6
f 64/3/6 57/3/6 65/3/6
